<svg width="713" height="442" viewBox="0 0 713 442" fill="none" xmlns="http://www.w3.org/2000/svg">
    <path
        d="M341.298 90.7079C344.829 77.9069 357.363 69.6695 370.499 71.5176L409.901 77.0615C423.007 78.9055 432.599 90.2124 432.27 103.429L425.318 382.362C424.926 398.109 410.795 410.07 395.18 407.873L288.408 392.85C272.824 390.658 262.787 375.349 266.976 360.162L341.298 90.7079Z"
        fill="#07A8F8" />
    <path
        d="M341.298 90.7079C344.829 77.9069 357.363 69.6695 370.499 71.5176L409.901 77.0615C423.007 78.9055 432.599 90.2124 432.27 103.429L425.318 382.362C424.926 398.109 410.795 410.07 395.18 407.873L288.408 392.85C272.824 390.658 262.787 375.349 266.976 360.162L341.298 90.7079Z"
        fill="#07A8F8" />
    <path
        d="M297.953 242.231L429.445 260.731L458.981 248.548C458.981 248.548 469.248 243.81 472.756 238.171C504.584 187.005 256.829 161.724 258.018 202.028C258.214 208.694 261.86 215.156 268.195 220.336C279.648 229.701 297.953 242.231 297.953 242.231Z"
        fill="#07A8F8" />
    <path
        d="M297.953 242.231L429.445 260.731L458.981 248.548C458.981 248.548 469.248 243.81 472.756 238.171C504.584 187.005 256.829 161.724 258.018 202.028C258.214 208.694 261.86 215.156 268.195 220.336C279.648 229.701 297.953 242.231 297.953 242.231Z"
        fill="#07A8F8" />
    <path
        d="M321.643 95.8388L333.946 97.5698L338.881 81.9252C338.881 81.9252 340.664 75.9935 341.807 70.0221C352.183 15.8374 327.729 21.9749 322.504 61.3768C321.64 67.8934 321.19 73.7792 321.213 78.0709C321.254 85.8304 321.643 95.8388 321.643 95.8388Z"
        fill="#07A8F8" />
    <path
        d="M321.643 95.8388L333.946 97.5698L338.881 81.9252C338.881 81.9252 340.664 75.9935 341.807 70.0221C352.183 15.8374 327.729 21.9749 322.504 61.3768C321.64 67.8934 321.19 73.7792 321.213 78.0709C321.254 85.8304 321.643 95.8388 321.643 95.8388Z"
        fill="#07A8F8" />
    <path
        d="M294.188 83.4962C298.199 71.3566 310.366 63.7866 323.008 65.5653L449.093 83.3053C461.309 85.0241 470.6 95.0129 471.413 107.3L478.876 220.223C479.978 236.888 465.356 250.438 448.787 248.106L279.917 224.347C263.809 222.08 253.756 205.868 258.867 190.399L294.188 83.4962Z"
        fill="#07A8F8" />
    <path
        d="M294.188 83.4962C298.199 71.3566 310.366 63.7866 323.008 65.5653L449.093 83.3053C461.309 85.0241 470.6 95.0129 471.413 107.3L478.876 220.223C479.978 236.888 465.356 250.438 448.787 248.106L279.917 224.347C263.809 222.08 253.756 205.868 258.867 190.399L294.188 83.4962Z"
        fill="#07A8F8" />
    <path
        d="M306.919 99.2767C310.862 87.0373 323.084 79.3695 335.8 81.1586L434.516 95.0478C446.973 96.8006 456.354 107.14 456.871 119.689L460.12 198.563C460.797 214.989 446.303 228.094 429.996 225.799L303.865 208.053C287.836 205.797 277.783 189.722 282.754 174.293L306.919 99.2767Z"
        fill="#07A8F8" />
    <path
        d="M306.919 99.2767C310.862 87.0373 323.084 79.3695 335.8 81.1586L434.516 95.0478C446.973 96.8006 456.354 107.14 456.871 119.689L460.12 198.563C460.797 214.989 446.303 228.094 429.996 225.799L303.865 208.053C287.836 205.797 277.783 189.722 282.754 174.293L306.919 99.2767Z"
        fill="#07A8F8" />
    <path
        d="M406.378 268.076C406.767 266.608 408.192 265.663 409.695 265.874L477.547 275.421C479.061 275.634 480.172 276.951 480.128 278.479L478.235 343.548C478.183 345.335 476.589 346.68 474.819 346.431L392.153 334.8C390.372 334.55 389.21 332.799 389.671 331.06L406.378 268.076Z"
        fill="#07A8F8" />
    <path
        d="M341.298 92.7079C344.829 79.9069 357.363 71.6695 370.499 73.5176L409.901 79.0615C423.007 80.9055 432.599 92.2124 432.27 105.429L425.318 384.362C424.926 400.109 410.795 412.07 395.18 409.873L288.408 394.85C272.824 392.658 262.787 377.349 266.976 362.162L341.298 92.7079Z"
        fill="url(#paint0_linear_970_2576)" />
    <path
        d="M341.298 92.7079C344.829 79.9069 357.363 71.6695 370.499 73.5176L409.901 79.0615C423.007 80.9055 432.599 92.2124 432.27 105.429L425.318 384.362C424.926 400.109 410.795 412.07 395.18 409.873L288.408 394.85C272.824 392.658 262.787 377.349 266.976 362.162L341.298 92.7079Z"
        fill="url(#paint1_linear_970_2576)" />
    <path
        d="M297.953 244.231L429.445 262.731L458.981 250.548C458.981 250.548 469.248 245.81 472.756 240.171C504.584 189.005 256.829 163.724 258.018 204.028C258.214 210.694 261.86 217.156 268.195 222.336C279.648 231.701 297.953 244.231 297.953 244.231Z"
        fill="url(#paint2_linear_970_2576)" />
    <path
        d="M297.953 244.231L429.445 262.731L458.981 250.548C458.981 250.548 469.248 245.81 472.756 240.171C504.584 189.005 256.829 163.724 258.018 204.028C258.214 210.694 261.86 217.156 268.195 222.336C279.648 231.701 297.953 244.231 297.953 244.231Z"
        fill="url(#paint3_linear_970_2576)" />
    <path
        d="M321.643 97.8388L333.946 99.5698L338.881 83.9252C338.881 83.9252 340.664 77.9935 341.807 72.0221C352.183 17.8374 327.729 23.9749 322.504 63.3768C321.64 69.8934 321.19 75.7792 321.213 80.0709C321.254 87.8304 321.643 97.8388 321.643 97.8388Z"
        fill="url(#paint4_linear_970_2576)" />
    <path
        d="M321.643 97.8388L333.946 99.5698L338.881 83.9252C338.881 83.9252 340.664 77.9935 341.807 72.0221C352.183 17.8374 327.729 23.9749 322.504 63.3768C321.64 69.8934 321.19 75.7792 321.213 80.0709C321.254 87.8304 321.643 97.8388 321.643 97.8388Z"
        fill="url(#paint5_linear_970_2576)" />
    <path
        d="M294.188 85.4962C298.199 73.3566 310.366 65.7866 323.008 67.5653L449.093 85.3053C461.309 87.0241 470.6 97.0129 471.413 109.3L478.876 222.223C479.978 238.888 465.356 252.438 448.787 250.106L279.917 226.347C263.809 224.08 253.756 207.868 258.867 192.399L294.188 85.4962Z"
        fill="url(#paint6_linear_970_2576)" />
    <path
        d="M294.188 85.4962C298.199 73.3566 310.366 65.7866 323.008 67.5653L449.093 85.3053C461.309 87.0241 470.6 97.0129 471.413 109.3L478.876 222.223C479.978 238.888 465.356 252.438 448.787 250.106L279.917 226.347C263.809 224.08 253.756 207.868 258.867 192.399L294.188 85.4962Z"
        fill="url(#paint7_linear_970_2576)" />
    <path
        d="M294.188 85.4962C298.199 73.3566 310.366 65.7866 323.008 67.5653L449.093 85.3053C461.309 87.0241 470.6 97.0129 471.413 109.3L478.876 222.223C479.978 238.888 465.356 252.438 448.787 250.106L279.917 226.347C263.809 224.08 253.756 207.868 258.867 192.399L294.188 85.4962Z"
        fill="url(#paint8_linear_970_2576)" />
    <path
        d="M306.919 101.277C310.862 89.0373 323.084 81.3695 335.8 83.1586L434.516 97.0478C446.973 98.8006 456.354 109.14 456.871 121.689L460.12 200.563C460.797 216.989 446.303 230.094 429.996 227.799L303.865 210.053C287.836 207.797 277.783 191.722 282.754 176.293L306.919 101.277Z"
        fill="url(#paint9_linear_970_2576)" />
    <path
        d="M306.919 101.277C310.862 89.0373 323.084 81.3695 335.8 83.1586L434.516 97.0478C446.973 98.8006 456.354 109.14 456.871 121.689L460.12 200.563C460.797 216.989 446.303 230.094 429.996 227.799L303.865 210.053C287.836 207.797 277.783 191.722 282.754 176.293L306.919 101.277Z"
        fill="url(#paint10_linear_970_2576)" />
    <path
        d="M408.467 255.572C408.832 254.074 410.273 253.096 411.8 253.311L479.545 262.842C481.081 263.058 482.198 264.409 482.124 265.957L478.295 345.613C478.211 347.377 476.629 348.686 474.881 348.44L392.084 336.791C390.328 336.543 389.168 334.834 389.588 333.11L408.467 255.572Z"
        fill="url(#paint11_linear_970_2576)" />
    <path
        d="M427.613 293.167C429.003 287.937 434.081 284.57 439.439 285.324L442.81 285.798C448.204 286.557 452.166 291.249 452.01 296.694C451.828 303.069 446.144 307.868 439.83 306.98L436.459 306.505C430.107 305.612 425.965 299.366 427.613 293.167Z"
        fill="#D9CDCA" />
    <rect width="19.2336" height="40.9788" rx="9.6168"
        transform="matrix(-0.739923 0.672691 0.672691 0.739923 475.23 292)" fill="#07A8F8" />
    <rect width="19.2336" height="40.9788" rx="9.6168"
        transform="matrix(-0.780477 -0.625185 -0.625185 0.780477 501.631 325.309)" fill="#07A8F8" />
    <rect width="19.2336" height="23.9532" rx="9.6168"
        transform="matrix(-0.998935 -0.0461494 -0.0461494 0.998935 405.182 319.625)" fill="#07A8F8" />
    <path
        d="M460.15 322.491C458.551 319.804 455.855 317.959 452.815 317.472L416.625 311.671C414.113 311.268 411.566 311.826 409.487 313.235L389.563 326.741C383.841 330.619 383.785 339.087 389.623 343.1C400.851 350.817 417.535 361.306 427.716 363.17C438.52 365.147 455.918 359.938 467.047 355.93C472.724 353.885 474.801 347.12 471.633 341.793L460.15 322.491Z"
        fill="#07A8F8" />
    <path
        d="M455.975 341.178C454.545 339.903 452.804 339.045 450.945 338.701L411.419 331.382C409.882 331.097 408.31 331.172 406.825 331.6L402.28 332.909C393.375 335.475 392.715 347.644 401.417 351.267C410.964 355.243 421.256 359.089 428.211 360.46C435.58 361.912 445.693 361.859 454.738 361.341C463.314 360.849 466.312 350.396 459.775 344.566L455.975 341.178Z"
        fill="#07A8F8" />
    <rect width="19.2336" height="23.9532" rx="9.6168"
        transform="matrix(-0.800488 0.599349 0.599349 0.800488 409.845 324.466)" fill="#07A8F8" />
    <rect width="19.2336" height="23.9532" rx="9.6168"
        transform="matrix(-0.993657 -0.112451 -0.112451 0.993657 469.37 339.891)" fill="#07A8F8" />
    <rect width="19.2336" height="23.9532" rx="9.6168"
        transform="matrix(-0.999806 -0.0197008 -0.0197008 0.999806 429.986 331.946)" fill="#07A8F8" />
    <rect width="19.2336" height="23.9532" rx="9.6168"
        transform="matrix(-0.960603 -0.277923 -0.277923 0.960603 449.294 337.191)" fill="#07A8F8" />
    <rect width="19.2336" height="35.2417" rx="9.6168"
        transform="matrix(-0.766034 0.6428 0.6428 0.766034 398.255 312.129)" fill="#07A8F8" />
    <rect width="19.2336" height="23.9532" rx="9.6168"
        transform="matrix(-0.975874 0.218336 0.218336 0.975874 400.438 309.62)" fill="#07A8F8" />
    <rect width="19.2336" height="25.5468" rx="9.6168"
        transform="matrix(-0.99124 -0.132073 -0.132073 0.99124 432.381 326.749)" fill="#07A8F8" />
    <rect width="19.2336" height="38.7913" rx="9.6168"
        transform="matrix(-0.956692 -0.291102 -0.291102 0.956692 411.693 293.599)" fill="#07A8F8" />
    <rect width="19.2336" height="23.9532" rx="9.6168"
        transform="matrix(-0.968673 -0.248341 -0.248341 0.968673 433.855 317.642)" fill="#07A8F8" />
    <rect width="19.2336" height="47.7253" rx="9.6168"
        transform="matrix(-0.999918 -0.0128446 -0.0128446 0.999918 432.491 286.226)" fill="#07A8F8" />
    <rect width="19.2336" height="46.2875" rx="9.6168"
        transform="matrix(-0.911858 -0.410506 -0.410506 0.911858 461.611 315.728)" fill="#07A8F8" />
    <rect width="19.2336" height="40.9788" rx="9.6168"
        transform="matrix(-0.760424 -0.649427 -0.649427 0.760424 484.538 332.817)" fill="#07A8F8" />
    <rect width="19.2336" height="23.9532" rx="9.6168"
        transform="matrix(-0.943425 0.331586 0.331586 0.943425 476.461 314.875)" fill="#07A8F8" />
    <rect width="19.2336" height="42.484" rx="9.6168"
        transform="matrix(-0.957571 0.288196 0.288196 0.957571 472.862 292.22)" fill="#07A8F8" />
    <rect width="19.2336" height="23.9532" rx="9.6168"
        transform="matrix(-0.960603 -0.277923 -0.277923 0.960603 461.057 313.992)" fill="#07A8F8" />
    <rect width="19.2336" height="51.4764" rx="9.6168"
        transform="matrix(-0.99343 0.11444 0.11444 0.99343 453.107 280)" fill="#07A8F8" />
    <rect y="367" width="713" height="75" fill="url(#paint12_linear_970_2576)" />
    <rect x="303.147" y="365.879" width="19.2336" height="40.9788" rx="9.6168"
        transform="rotate(166.696 303.147 365.879)" fill="#07A8F8" />
    <rect x="219.857" y="360.47" width="19.2336" height="23.9532" rx="9.6168"
        transform="rotate(-179.748 219.857 360.47)" fill="#07A8F8" />
    <path
        d="M274.9 360.386C273.168 362.989 270.382 364.695 267.321 365.028L230.885 368.993C228.354 369.268 225.84 368.582 223.834 367.069L204.618 352.574C199.1 348.411 199.472 339.951 205.506 336.239C217.109 329.099 234.301 319.466 244.564 318.12C255.454 316.691 272.567 322.773 283.479 327.339C289.045 329.667 290.778 336.529 287.344 341.689L274.9 360.386Z"
        fill="#07A8F8" />
    <path
        d="M271.675 341.512C270.183 342.713 268.4 343.482 266.526 343.731L226.681 349.043C225.131 349.25 223.565 349.096 222.104 348.593L217.63 347.056C208.867 344.043 208.823 331.857 217.697 328.678C227.433 325.19 237.906 321.869 244.921 320.852C252.354 319.774 262.451 320.337 271.458 321.312C279.999 322.237 282.465 332.828 275.641 338.32L271.675 341.512Z"
        fill="#07A8F8" />
    <rect x="224.76" y="355.871" width="19.2336" height="23.9532" rx="9.6168"
        transform="rotate(-140.279 224.76 355.871)" fill="#07A8F8" />
    <rect x="284.988" y="343.474" width="19.2336" height="23.9532" rx="9.6168"
        transform="rotate(176.441 284.988 343.474)" fill="#07A8F8" />
    <rect x="245.253" y="349.418" width="19.2336" height="23.9532" rx="9.6168"
        transform="rotate(-178.231 245.253 349.418)" fill="#07A8F8" />
    <rect x="264.802" y="345.155" width="19.2336" height="23.9532" rx="9.6168"
        transform="rotate(166.761 264.802 345.155)" fill="#07A8F8" />
    <rect x="212.561" y="367.606" width="19.2336" height="35.2417" rx="9.6168"
        transform="rotate(-137.102 212.561 367.606)" fill="#07A8F8" />
    <rect x="214.614" y="370.223" width="19.2336" height="23.9532" rx="9.6168"
        transform="rotate(-164.491 214.614 370.223)" fill="#07A8F8" />
    <rect x="247.383" y="354.73" width="19.2336" height="25.5468" rx="9.6168"
        transform="rotate(175.308 247.383 354.73)" fill="#07A8F8" />
    <rect x="225.287" y="386.252" width="19.2336" height="38.7913" rx="9.6168"
        transform="rotate(163.808 225.287 386.252)" fill="#07A8F8" />
    <rect x="248.395" y="363.9" width="19.2336" height="23.9532" rx="9.6168"
        transform="rotate(168.518 248.395 363.9)" fill="#07A8F8" />
    <rect x="245.444" y="395.206" width="19.2336" height="47.7253" rx="9.6168"
        transform="rotate(-177.839 245.444 395.206)" fill="#07A8F8" />
    <rect x="276.019" y="367.214" width="19.2336" height="46.2875" rx="9.6168"
        transform="rotate(158.661 276.019 367.214)" fill="#07A8F8" />
    <rect x="299.779" y="351.306" width="19.2336" height="40.9788" rx="9.6168"
        transform="rotate(142.399 299.779 351.306)" fill="#07A8F8" />
    <rect x="290.806" y="368.817" width="19.2336" height="23.9532" rx="9.6168"
        transform="rotate(-157.737 290.806 368.817)" fill="#07A8F8" />
    <rect x="285.665" y="391.291" width="19.2336" height="42.484" rx="9.6168"
        transform="rotate(-159.365 285.665 391.291)" fill="#07A8F8" />
    <rect x="275.376" y="368.92" width="19.2336" height="23.9532" rx="9.6168"
        transform="rotate(166.761 275.376 368.92)" fill="#07A8F8" />
    <rect x="258.683" y="403.924" width="19.2336" height="51.4764" rx="9.6168"
        transform="rotate(-159.808 258.683 403.924)" fill="#07A8F8" />
    <rect width="19.2336" height="40.9788" rx="9.6168"
        transform="matrix(-0.739923 0.672691 0.672691 0.739923 476.526 293.525)"
        fill="url(#paint13_linear_970_2576)" />
    <rect width="19.2336" height="40.9788" rx="9.6168"
        transform="matrix(-0.739923 0.672691 0.672691 0.739923 476.526 293.525)"
        fill="url(#paint14_linear_970_2576)" />
    <rect width="19.2336" height="40.9788" rx="9.6168"
        transform="matrix(-0.780477 -0.625185 -0.625185 0.780477 501.631 327.309)"
        fill="url(#paint15_linear_970_2576)" />
    <rect width="19.2336" height="40.9788" rx="9.6168"
        transform="matrix(-0.780477 -0.625185 -0.625185 0.780477 501.631 327.309)"
        fill="url(#paint16_linear_970_2576)" />
    <rect width="19.2336" height="23.9532" rx="9.6168"
        transform="matrix(-0.998935 -0.0461494 -0.0461494 0.998935 405.183 321.625)" fill="#162435" />
    <path
        d="M460.15 324.491C458.551 321.804 455.855 319.959 452.815 319.472L416.625 313.671C414.113 313.268 411.566 313.826 409.487 315.235L389.563 328.741C383.841 332.619 383.785 341.087 389.623 345.1C400.851 352.817 417.535 363.306 427.716 365.17C438.52 367.147 455.918 361.938 467.047 357.93C472.724 355.885 474.801 349.12 471.633 343.793L460.15 324.491Z"
        fill="url(#paint17_linear_970_2576)" />
    <path
        d="M460.15 324.491C458.551 321.804 455.855 319.959 452.815 319.472L416.625 313.671C414.113 313.268 411.566 313.826 409.487 315.235L389.563 328.741C383.841 332.619 383.785 341.087 389.623 345.1C400.851 352.817 417.535 363.306 427.716 365.17C438.52 367.147 455.918 361.938 467.047 357.93C472.724 355.885 474.801 349.12 471.633 343.793L460.15 324.491Z"
        fill="url(#paint18_linear_970_2576)" />
    <path
        d="M455.975 343.178C454.545 341.903 452.804 341.045 450.945 340.701L411.419 333.382C409.882 333.097 408.31 333.172 406.825 333.6L402.28 334.909C393.375 337.475 392.715 349.644 401.417 353.267C410.964 357.243 421.256 361.089 428.211 362.46C435.58 363.912 445.693 363.859 454.738 363.341C463.314 362.849 466.312 352.396 459.775 346.566L455.975 343.178Z"
        fill="url(#paint19_linear_970_2576)" />
    <path
        d="M455.975 343.178C454.545 341.903 452.804 341.045 450.945 340.701L411.419 333.382C409.882 333.097 408.31 333.172 406.825 333.6L402.28 334.909C393.375 337.475 392.715 349.644 401.417 353.267C410.964 357.243 421.256 361.089 428.211 362.46C435.58 363.912 445.693 363.859 454.738 363.341C463.314 362.849 466.312 352.396 459.775 346.566L455.975 343.178Z"
        fill="url(#paint20_linear_970_2576)" />
    <path
        d="M455.975 343.178C454.545 341.903 452.804 341.045 450.945 340.701L411.419 333.382C409.882 333.097 408.31 333.172 406.825 333.6L402.28 334.909C393.375 337.475 392.715 349.644 401.417 353.267C410.964 357.243 421.256 361.089 428.211 362.46C435.58 363.912 445.693 363.859 454.738 363.341C463.314 362.849 466.312 352.396 459.775 346.566L455.975 343.178Z"
        fill="url(#paint21_linear_970_2576)" />
    <rect width="19.2336" height="23.9532" rx="9.6168"
        transform="matrix(-0.800488 0.599349 0.599349 0.800488 409.845 326.465)" fill="#162435" />
    <rect width="19.2336" height="23.9532" rx="9.6168"
        transform="matrix(-0.993657 -0.112451 -0.112451 0.993657 469.37 341.891)" fill="#162435" />
    <rect width="19.2336" height="23.9532" rx="9.6168"
        transform="matrix(-0.999806 -0.0197008 -0.0197008 0.999806 429.986 333.946)" fill="#162435" />
    <rect width="19.2336" height="23.9532" rx="9.6168"
        transform="matrix(-0.960603 -0.277923 -0.277923 0.960603 449.294 339.191)" fill="#162435" />
    <rect width="19.2336" height="35.2417" rx="9.6168"
        transform="matrix(-0.766034 0.6428 0.6428 0.766034 398.255 314.129)"
        fill="url(#paint22_linear_970_2576)" />
    <rect width="19.2336" height="35.2417" rx="9.6168"
        transform="matrix(-0.766034 0.6428 0.6428 0.766034 398.255 314.129)"
        fill="url(#paint23_linear_970_2576)" />
    <rect width="19.2336" height="23.9532" rx="9.6168"
        transform="matrix(-0.975874 0.218336 0.218336 0.975874 400.438 311.62)" fill="#162435" />
    <rect width="19.2336" height="25.5468" rx="9.6168"
        transform="matrix(-0.99124 -0.132073 -0.132073 0.99124 432.382 328.749)"
        fill="url(#paint24_linear_970_2576)" />
    <rect width="19.2336" height="25.5468" rx="9.6168"
        transform="matrix(-0.99124 -0.132073 -0.132073 0.99124 432.382 328.749)"
        fill="url(#paint25_linear_970_2576)" />
    <rect width="19.2336" height="38.7913" rx="9.6168"
        transform="matrix(-0.956692 -0.291102 -0.291102 0.956692 411.693 295.599)"
        fill="url(#paint26_linear_970_2576)" />
    <rect width="19.2336" height="38.7913" rx="9.6168"
        transform="matrix(-0.956692 -0.291102 -0.291102 0.956692 411.693 295.599)"
        fill="url(#paint27_linear_970_2576)" />
    <rect width="19.2336" height="23.9532" rx="9.6168"
        transform="matrix(-0.968673 -0.248341 -0.248341 0.968673 433.856 319.642)" fill="#162435" />
    <rect width="19.2336" height="47.7253" rx="9.6168"
        transform="matrix(-0.999918 -0.0128446 -0.0128446 0.999918 432.491 288.226)"
        fill="url(#paint28_linear_970_2576)" />
    <rect width="19.2336" height="47.7253" rx="9.6168"
        transform="matrix(-0.999918 -0.0128446 -0.0128446 0.999918 432.491 288.226)"
        fill="url(#paint29_linear_970_2576)" />
    <rect width="19.2336" height="46.2875" rx="9.6168"
        transform="matrix(-0.911858 -0.410506 -0.410506 0.911858 461.612 317.728)"
        fill="url(#paint30_linear_970_2576)" />
    <rect width="19.2336" height="46.2875" rx="9.6168"
        transform="matrix(-0.911858 -0.410506 -0.410506 0.911858 461.612 317.728)"
        fill="url(#paint31_linear_970_2576)" />
    <rect width="19.2336" height="46.2875" rx="9.6168"
        transform="matrix(-0.911858 -0.410506 -0.410506 0.911858 461.612 317.728)"
        fill="url(#paint32_linear_970_2576)" />
    <rect width="19.2336" height="40.9788" rx="9.6168"
        transform="matrix(-0.760424 -0.649427 -0.649427 0.760424 484.538 334.817)"
        fill="url(#paint33_linear_970_2576)" />
    <rect width="19.2336" height="40.9788" rx="9.6168"
        transform="matrix(-0.760424 -0.649427 -0.649427 0.760424 484.538 334.817)"
        fill="url(#paint34_linear_970_2576)" />
    <rect width="19.2336" height="23.9532" rx="9.6168"
        transform="matrix(-0.943425 0.331586 0.331586 0.943425 476.462 316.875)" fill="#162435" />
    <rect width="19.2336" height="42.484" rx="9.6168"
        transform="matrix(-0.957571 0.288196 0.288196 0.957571 472.862 294.22)"
        fill="url(#paint35_linear_970_2576)" />
    <rect width="19.2336" height="42.484" rx="9.6168"
        transform="matrix(-0.957571 0.288196 0.288196 0.957571 472.862 294.22)"
        fill="url(#paint36_linear_970_2576)" />
    <rect width="19.2336" height="23.9532" rx="9.6168"
        transform="matrix(-0.960603 -0.277923 -0.277923 0.960603 461.057 315.992)" fill="#162435" />
    <rect width="19.2336" height="51.4764" rx="9.6168"
        transform="matrix(-0.99343 0.11444 0.11444 0.99343 453.107 282)"
        fill="url(#paint37_linear_970_2576)" />
    <rect width="19.2336" height="51.4764" rx="9.6168"
        transform="matrix(-0.99343 0.11444 0.11444 0.99343 453.107 282)"
        fill="url(#paint38_linear_970_2576)" />
    <rect x="303.147" y="367.879" width="19.2336" height="40.9788" rx="9.6168"
        transform="rotate(166.696 303.147 367.879)" fill="url(#paint39_linear_970_2576)" />
    <rect x="219.857" y="362.47" width="19.2336" height="23.9532" rx="9.6168"
        transform="rotate(-179.748 219.857 362.47)" fill="#162435" />
    <path
        d="M274.9 362.386C273.168 364.989 270.382 366.695 267.321 367.028L230.885 370.993C228.354 371.268 225.84 370.582 223.834 369.069L204.618 354.574C199.1 350.411 199.472 341.951 205.506 338.239C217.109 331.099 234.301 321.466 244.564 320.12C255.454 318.691 272.567 324.773 283.479 329.339C289.045 331.667 290.778 338.529 287.344 343.689L274.9 362.386Z"
        fill="url(#paint40_linear_970_2576)" />
    <path
        d="M274.9 362.386C273.168 364.989 270.382 366.695 267.321 367.028L230.885 370.993C228.354 371.268 225.84 370.582 223.834 369.069L204.618 354.574C199.1 350.411 199.472 341.951 205.506 338.239C217.109 331.099 234.301 321.466 244.564 320.12C255.454 318.691 272.567 324.773 283.479 329.339C289.045 331.667 290.778 338.529 287.344 343.689L274.9 362.386Z"
        fill="url(#paint41_linear_970_2576)" />
    <path
        d="M271.675 343.512C270.183 344.713 268.4 345.482 266.526 345.731L226.681 351.043C225.131 351.25 223.565 351.096 222.104 350.593L217.63 349.056C208.867 346.043 208.823 333.857 217.697 330.678C227.433 327.19 237.906 323.869 244.921 322.852C252.354 321.774 262.451 322.337 271.458 323.312C279.999 324.237 282.465 334.828 275.641 340.32L271.675 343.512Z"
        fill="url(#paint42_linear_970_2576)" />
    <rect x="224.76" y="357.871" width="19.2336" height="23.9532" rx="9.6168"
        transform="rotate(-140.279 224.76 357.871)" fill="#162435" />
    <rect x="284.988" y="345.474" width="19.2336" height="23.9532" rx="9.6168"
        transform="rotate(176.441 284.988 345.474)" fill="#162435" />
    <rect x="245.253" y="351.418" width="19.2336" height="23.9532" rx="9.6168"
        transform="rotate(-178.231 245.253 351.418)" fill="#162435" />
    <rect x="264.802" y="347.155" width="19.2336" height="23.9532" rx="9.6168"
        transform="rotate(166.761 264.802 347.155)" fill="#162435" />
    <rect x="212.561" y="369.606" width="19.2336" height="35.2417" rx="9.6168"
        transform="rotate(-137.102 212.561 369.606)" fill="url(#paint43_linear_970_2576)" />
    <rect x="212.561" y="369.606" width="19.2336" height="35.2417" rx="9.6168"
        transform="rotate(-137.102 212.561 369.606)" fill="url(#paint44_linear_970_2576)" />
    <rect x="214.614" y="372.223" width="19.2336" height="23.9532" rx="9.6168"
        transform="rotate(-164.491 214.614 372.223)" fill="#162435" />
    <rect x="247.383" y="356.73" width="19.2336" height="25.5468" rx="9.6168"
        transform="rotate(175.308 247.383 356.73)" fill="url(#paint45_linear_970_2576)" />
    <rect x="247.383" y="356.73" width="19.2336" height="25.5468" rx="9.6168"
        transform="rotate(175.308 247.383 356.73)" fill="url(#paint46_linear_970_2576)" />
    <rect x="225.287" y="388.252" width="19.2336" height="38.7913" rx="9.6168"
        transform="rotate(163.808 225.287 388.252)" fill="url(#paint47_linear_970_2576)" />
    <rect x="225.287" y="388.252" width="19.2336" height="38.7913" rx="9.6168"
        transform="rotate(163.808 225.287 388.252)" fill="url(#paint48_linear_970_2576)" />
    <rect x="248.395" y="365.9" width="19.2336" height="23.9532" rx="9.6168"
        transform="rotate(168.518 248.395 365.9)" fill="#162435" />
    <rect x="245.444" y="397.206" width="19.2336" height="47.7253" rx="9.6168"
        transform="rotate(-177.839 245.444 397.206)" fill="url(#paint49_linear_970_2576)" />
    <rect x="245.444" y="397.206" width="19.2336" height="47.7253" rx="9.6168"
        transform="rotate(-177.839 245.444 397.206)" fill="url(#paint50_linear_970_2576)" />
    <rect x="276.019" y="369.214" width="19.2336" height="46.2875" rx="9.6168"
        transform="rotate(158.661 276.019 369.214)" fill="url(#paint51_linear_970_2576)" />
    <rect x="276.019" y="369.214" width="19.2336" height="46.2875" rx="9.6168"
        transform="rotate(158.661 276.019 369.214)" fill="url(#paint52_linear_970_2576)" />
    <rect x="299.779" y="353.306" width="19.2336" height="40.9788" rx="9.6168"
        transform="rotate(142.399 299.779 353.306)" fill="url(#paint53_linear_970_2576)" />
    <rect x="299.779" y="353.306" width="19.2336" height="40.9788" rx="9.6168"
        transform="rotate(142.399 299.779 353.306)" fill="url(#paint54_linear_970_2576)" />
    <rect x="290.806" y="370.817" width="19.2336" height="23.9532" rx="9.6168"
        transform="rotate(-157.737 290.806 370.817)" fill="#162435" />
    <rect x="285.665" y="393.291" width="19.2336" height="42.484" rx="9.6168"
        transform="rotate(-159.365 285.665 393.291)" fill="url(#paint55_linear_970_2576)" />
    <rect x="285.665" y="393.291" width="19.2336" height="42.484" rx="9.6168"
        transform="rotate(-159.365 285.665 393.291)" fill="url(#paint56_linear_970_2576)" />
    <rect x="275.376" y="370.92" width="19.2336" height="23.9532" rx="9.6168"
        transform="rotate(166.761 275.376 370.92)" fill="#162435" />
    <rect x="258.683" y="405.924" width="19.2336" height="51.4764" rx="9.6168"
        transform="rotate(-159.808 258.683 405.924)" fill="url(#paint57_linear_970_2576)" />
    <rect x="258.683" y="405.924" width="19.2336" height="51.4764" rx="9.6168"
        transform="rotate(-159.808 258.683 405.924)" fill="url(#paint58_linear_970_2576)" />
    <rect x="363.56" y="144.362" width="19.4007" height="4.78335" rx="2.39168"
        transform="rotate(-144.798 363.56 144.362)" fill="#688DDD" />
    <rect width="19.4007" height="4.78335" rx="2.39168"
        transform="matrix(0.944468 -0.328604 -0.328604 -0.944468 380.463 145.731)" fill="#688DDD" />
    <rect width="8.27776" height="20.72" rx="4.13888"
        transform="matrix(-0.189733 0.981836 -0.991199 -0.132379 365.135 143.622)" fill="#688DDD" />
    <rect width="8.27776" height="19.2696" rx="4.13888"
        transform="matrix(-0.189733 0.981836 -0.991199 -0.132379 400.204 146.873)" fill="#688DDD" />
    <path
        d="M355.109 158.764C354.958 156.849 356.857 155.4 358.688 155.982C362.074 157.058 367.02 158.439 370.854 158.719C374.701 159.001 380.271 158.071 383.401 157.457C384.772 157.188 386.163 157.898 386.708 159.185C387.403 160.826 386.45 162.688 384.701 163.031C380.97 163.763 374.973 164.767 371.31 164.499C366.453 164.143 359.809 162.021 356.816 160.992C355.851 160.66 355.189 159.782 355.109 158.764Z"
        fill="#688DDD" />
    <defs>
        <linearGradient id="paint0_linear_970_2576" x1="390.165" y1="76.2847" x2="345.182"
            y2="395.997" gradientUnits="userSpaceOnUse">
            <stop stop-color="#0C1921" />
            <stop offset="1" stop-color="#081116" />
        </linearGradient>
        <linearGradient id="paint1_linear_970_2576" x1="391.11" y1="76.4176" x2="345.183"
            y2="402.838" gradientUnits="userSpaceOnUse">
            <stop stop-color="#0C1321" />
            <stop offset="1" stop-color="#080E16" />
        </linearGradient>
        <linearGradient id="paint2_linear_970_2576" x1="363.532" y1="253.457" x2="368.304"
            y2="219.545" gradientUnits="userSpaceOnUse">
            <stop stop-color="#060F13" />
            <stop offset="1" stop-color="#060C10" />
        </linearGradient>
        <linearGradient id="paint3_linear_970_2576" x1="358.517" y1="278.851" x2="363.934"
            y2="237.708" gradientUnits="userSpaceOnUse">
            <stop stop-color="#0A0F1B" />
            <stop offset="1" stop-color="#080D16" />
        </linearGradient>
        <linearGradient id="paint4_linear_970_2576" x1="327.779" y1="98.7021" x2="332.55"
            y2="64.7902" gradientUnits="userSpaceOnUse">
            <stop stop-color="#060F13" />
            <stop offset="1" stop-color="#060C10" />
        </linearGradient>
        <linearGradient id="paint5_linear_970_2576" x1="322.418" y1="63.8478" x2="342.692"
            y2="67.1634" gradientUnits="userSpaceOnUse">
            <stop stop-color="#0C1921" />
            <stop offset="1" stop-color="#081116" />
        </linearGradient>
        <linearGradient id="paint6_linear_970_2576" x1="389.859" y1="76.9711" x2="367.115"
            y2="238.615" gradientUnits="userSpaceOnUse">
            <stop stop-color="#0C1921" />
            <stop offset="1" stop-color="#081116" />
        </linearGradient>
        <linearGradient id="paint7_linear_970_2576" x1="389.859" y1="76.9711" x2="367.115"
            y2="238.615" gradientUnits="userSpaceOnUse">
            <stop stop-color="#0C1321" />
            <stop offset="1" stop-color="#080E16" />
        </linearGradient>
        <linearGradient id="paint8_linear_970_2576" x1="473.774" y1="-12.3239" x2="441.359"
            y2="306.707" gradientUnits="userSpaceOnUse">
            <stop stop-color="#093F71" />
            <stop offset="0.445135" stop-color="#0C1721" />
            <stop offset="0.662055" stop-color="#080E16" />
            <stop offset="0.76069" stop-color="#080E16" />
            <stop offset="0.927608" stop-color="#602332" />
        </linearGradient>
        <linearGradient id="paint9_linear_970_2576" x1="386.658" y1="93.507" x2="368.971"
            y2="219.213" gradientUnits="userSpaceOnUse">
            <stop stop-color="#2A4B71" />
            <stop offset="1" stop-color="#151B29" />
        </linearGradient>
        <linearGradient id="paint10_linear_970_2576" x1="393.748" y1="96.3406" x2="377.813"
            y2="209.599" gradientUnits="userSpaceOnUse">
            <stop stop-color="#205CA2" />
            <stop offset="1" stop-color="#14264C" />
        </linearGradient>
        <linearGradient id="paint11_linear_970_2576" x1="484.088" y1="306.608" x2="394.754"
            y2="294.039" gradientUnits="userSpaceOnUse">
            <stop stop-color="#F75C35" />
            <stop offset="1" stop-color="#E3094E" />
        </linearGradient>
        <linearGradient id="paint12_linear_970_2576" x1="354.366" y1="367" x2="354.366" y2="440.459"
            gradientUnits="userSpaceOnUse">
            <stop stop-color="#0C1321" />
            <stop offset="1" stop-color="#080D16" />
        </linearGradient>
        <linearGradient id="paint13_linear_970_2576" x1="9.66904" y1="2.16521e-07" x2="9.66904"
            y2="40.9788" gradientUnits="userSpaceOnUse">
            <stop stop-color="#0C1321" />
            <stop offset="1" stop-color="#080E16" />
        </linearGradient>
        <linearGradient id="paint14_linear_970_2576" x1="15.3983" y1="-25.1331" x2="24.767"
            y2="54.3519" gradientUnits="userSpaceOnUse">
            <stop stop-color="#093F71" />
            <stop offset="0.445135" stop-color="#0C1721" />
            <stop offset="0.662055" stop-color="#080E16" />
            <stop offset="0.76069" stop-color="#080E16" />
            <stop offset="0.927608" stop-color="#602332" />
        </linearGradient>
        <linearGradient id="paint15_linear_970_2576" x1="9.66904" y1="2.16521e-07" x2="9.66904"
            y2="40.9788" gradientUnits="userSpaceOnUse">
            <stop stop-color="#0C1321" />
            <stop offset="1" stop-color="#080E16" />
        </linearGradient>
        <linearGradient id="paint16_linear_970_2576" x1="15.3982" y1="-25.1331" x2="24.767"
            y2="54.3519" gradientUnits="userSpaceOnUse">
            <stop stop-color="#093F71" />
            <stop offset="0.445135" stop-color="#0C1721" />
            <stop offset="0.662055" stop-color="#080E16" />
            <stop offset="0.76069" stop-color="#080E16" />
            <stop offset="0.927608" stop-color="#602332" />
        </linearGradient>
        <linearGradient id="paint17_linear_970_2576" x1="435.785" y1="319.72" x2="426.2"
            y2="364.851" gradientUnits="userSpaceOnUse">
            <stop stop-color="#0C1721" />
            <stop offset="1" stop-color="#080E16" />
        </linearGradient>
        <linearGradient id="paint18_linear_970_2576" x1="409.02" y1="278.464" x2="385.914"
            y2="374.266" gradientUnits="userSpaceOnUse">
            <stop stop-color="#093F71" />
            <stop offset="0.445135" stop-color="#0C1721" />
            <stop offset="0.662055" stop-color="#080E16" />
            <stop offset="0.76069" stop-color="#080E16" />
            <stop offset="0.927608" stop-color="#602332" />
        </linearGradient>
        <linearGradient id="paint19_linear_970_2576" x1="432.298" y1="338.804" x2="427.315"
            y2="362.271" gradientUnits="userSpaceOnUse">
            <stop stop-color="#0C1721" />
            <stop offset="1" stop-color="#080E16" />
        </linearGradient>
        <linearGradient id="paint20_linear_970_2576" x1="402.53" y1="313.985" x2="391.164"
            y2="363.986" gradientUnits="userSpaceOnUse">
            <stop stop-color="#093F71" />
            <stop offset="0.445135" stop-color="#0C1721" />
            <stop offset="0.662055" stop-color="#080E16" />
            <stop offset="0.76069" stop-color="#080E16" />
            <stop offset="0.927608" stop-color="#602332" />
        </linearGradient>
        <linearGradient id="paint21_linear_970_2576" x1="402.53" y1="313.985" x2="391.164"
            y2="363.986" gradientUnits="userSpaceOnUse">
            <stop stop-color="#093F71" />
            <stop offset="0.445135" stop-color="#0C1721" />
            <stop offset="0.662055" stop-color="#080E16" />
            <stop offset="0.76069" stop-color="#080E16" />
            <stop offset="0.927608" stop-color="#602332" />
        </linearGradient>
        <linearGradient id="paint22_linear_970_2576" x1="9.66904" y1="1.86208e-07" x2="9.66904"
            y2="35.2417" gradientUnits="userSpaceOnUse">
            <stop stop-color="#0C1321" />
            <stop offset="1" stop-color="#080E16" />
        </linearGradient>
        <linearGradient id="paint23_linear_970_2576" x1="15.3983" y1="-21.6144" x2="22.3521"
            y2="46.9873" gradientUnits="userSpaceOnUse">
            <stop stop-color="#093F71" />
            <stop offset="0.445135" stop-color="#0C1721" />
            <stop offset="0.662055" stop-color="#080E16" />
            <stop offset="0.76069" stop-color="#080E16" />
            <stop offset="0.927608" stop-color="#602332" />
        </linearGradient>
        <linearGradient id="paint24_linear_970_2576" x1="9.66904" y1="1.34983e-07" x2="9.66904"
            y2="25.5468" gradientUnits="userSpaceOnUse">
            <stop stop-color="#0C1321" />
            <stop offset="1" stop-color="#080E16" />
        </linearGradient>
        <linearGradient id="paint25_linear_970_2576" x1="15.3983" y1="-15.6683" x2="19.0701"
            y2="34.3024" gradientUnits="userSpaceOnUse">
            <stop stop-color="#093F71" />
            <stop offset="0.445135" stop-color="#0C1721" />
            <stop offset="0.662055" stop-color="#080E16" />
            <stop offset="0.76069" stop-color="#080E16" />
            <stop offset="0.927608" stop-color="#602332" />
        </linearGradient>
        <linearGradient id="paint26_linear_970_2576" x1="9.66904" y1="2.04963e-07" x2="9.66904"
            y2="38.7913" gradientUnits="userSpaceOnUse">
            <stop stop-color="#0C1321" />
            <stop offset="1" stop-color="#080E16" />
        </linearGradient>
        <linearGradient id="paint27_linear_970_2576" x1="15.3983" y1="-23.7914" x2="23.8054"
            y2="51.5577" gradientUnits="userSpaceOnUse">
            <stop stop-color="#093F71" />
            <stop offset="0.445135" stop-color="#0C1721" />
            <stop offset="0.662055" stop-color="#080E16" />
            <stop offset="0.76069" stop-color="#080E16" />
            <stop offset="0.927608" stop-color="#602332" />
        </linearGradient>
        <linearGradient id="paint28_linear_970_2576" x1="9.66904" y1="2.52168e-07" x2="9.66904"
            y2="47.7253" gradientUnits="userSpaceOnUse">
            <stop stop-color="#0C1321" />
            <stop offset="1" stop-color="#080E16" />
        </linearGradient>
        <linearGradient id="paint29_linear_970_2576" x1="15.3983" y1="-29.2708" x2="28.044"
            y2="62.8501" gradientUnits="userSpaceOnUse">
            <stop stop-color="#093F71" />
            <stop offset="0.445135" stop-color="#0C1721" />
            <stop offset="0.662055" stop-color="#080E16" />
            <stop offset="0.76069" stop-color="#080E16" />
            <stop offset="0.927608" stop-color="#602332" />
        </linearGradient>
        <linearGradient id="paint30_linear_970_2576" x1="9.66904" y1="2.44571e-07" x2="9.66904"
            y2="46.2875" gradientUnits="userSpaceOnUse">
            <stop stop-color="#0C1321" />
            <stop offset="1" stop-color="#080E16" />
        </linearGradient>
        <linearGradient id="paint31_linear_970_2576" x1="15.3982" y1="-28.389" x2="27.3066"
            y2="61.0548" gradientUnits="userSpaceOnUse">
            <stop stop-color="#093F71" />
            <stop offset="0.445135" stop-color="#0C1721" />
            <stop offset="0.662055" stop-color="#080E16" />
            <stop offset="0.76069" stop-color="#080E16" />
            <stop offset="0.927608" stop-color="#602332" />
        </linearGradient>
        <linearGradient id="paint32_linear_970_2576" x1="15.3982" y1="-28.389" x2="27.3066"
            y2="61.0548" gradientUnits="userSpaceOnUse">
            <stop stop-color="#093F71" />
            <stop offset="0.445135" stop-color="#0C1721" />
            <stop offset="0.662055" stop-color="#080E16" />
            <stop offset="0.76069" stop-color="#080E16" />
            <stop offset="0.927608" stop-color="#602332" />
        </linearGradient>
        <linearGradient id="paint33_linear_970_2576" x1="9.66904" y1="2.16521e-07" x2="9.66904"
            y2="40.9788" gradientUnits="userSpaceOnUse">
            <stop stop-color="#0C1321" />
            <stop offset="1" stop-color="#080E16" />
        </linearGradient>
        <linearGradient id="paint34_linear_970_2576" x1="15.3982" y1="-25.1331" x2="24.767"
            y2="54.3519" gradientUnits="userSpaceOnUse">
            <stop stop-color="#093F71" />
            <stop offset="0.445135" stop-color="#0C1721" />
            <stop offset="0.662055" stop-color="#080E16" />
            <stop offset="0.76069" stop-color="#080E16" />
            <stop offset="0.927608" stop-color="#602332" />
        </linearGradient>
        <linearGradient id="paint35_linear_970_2576" x1="9.66904" y1="2.24474e-07" x2="9.66904"
            y2="42.484" gradientUnits="userSpaceOnUse">
            <stop stop-color="#0C1321" />
            <stop offset="1" stop-color="#080E16" />
        </linearGradient>
        <linearGradient id="paint36_linear_970_2576" x1="15.3983" y1="-26.0562" x2="25.4576"
            y2="56.2639" gradientUnits="userSpaceOnUse">
            <stop stop-color="#093F71" />
            <stop offset="0.445135" stop-color="#0C1721" />
            <stop offset="0.662055" stop-color="#080E16" />
            <stop offset="0.76069" stop-color="#080E16" />
            <stop offset="0.927608" stop-color="#602332" />
        </linearGradient>
        <linearGradient id="paint37_linear_970_2576" x1="9.66904" y1="2.71988e-07" x2="9.66904"
            y2="51.4764" gradientUnits="userSpaceOnUse">
            <stop stop-color="#0C1321" />
            <stop offset="1" stop-color="#080E16" />
        </linearGradient>
        <linearGradient id="paint38_linear_970_2576" x1="15.3983" y1="-31.5714" x2="30.0656"
            y2="67.4907" gradientUnits="userSpaceOnUse">
            <stop stop-color="#093F71" />
            <stop offset="0.445135" stop-color="#0C1721" />
            <stop offset="0.662055" stop-color="#080E16" />
            <stop offset="0.76069" stop-color="#080E16" />
            <stop offset="0.927608" stop-color="#602332" />
        </linearGradient>
        <linearGradient id="paint39_linear_970_2576" x1="312.817" y1="367.879" x2="312.817"
            y2="408.858" gradientUnits="userSpaceOnUse">
            <stop stop-color="#0C1321" />
            <stop offset="1" stop-color="#080E16" />
        </linearGradient>
        <linearGradient id="paint40_linear_970_2576" x1="250.325" y1="365.919" x2="243.034"
            y2="320.362" gradientUnits="userSpaceOnUse">
            <stop stop-color="#0C1721" />
            <stop offset="1" stop-color="#080E16" />
        </linearGradient>
        <linearGradient id="paint41_linear_970_2576" x1="221.509" y1="405.77" x2="203.275"
            y2="308.922" gradientUnits="userSpaceOnUse">
            <stop stop-color="#093F71" />
            <stop offset="0.445135" stop-color="#0C1721" />
            <stop offset="0.662055" stop-color="#080E16" />
            <stop offset="0.76069" stop-color="#080E16" />
            <stop offset="0.927608" stop-color="#602332" />
        </linearGradient>
        <linearGradient id="paint42_linear_970_2576" x1="247.808" y1="346.684" x2="244.017"
            y2="322.995" gradientUnits="userSpaceOnUse">
            <stop stop-color="#0C1721" />
            <stop offset="1" stop-color="#080E16" />
        </linearGradient>
        <linearGradient id="paint43_linear_970_2576" x1="222.23" y1="369.606" x2="222.23"
            y2="404.848" gradientUnits="userSpaceOnUse">
            <stop stop-color="#0C1321" />
            <stop offset="1" stop-color="#080E16" />
        </linearGradient>
        <linearGradient id="paint44_linear_970_2576" x1="227.959" y1="347.992" x2="234.913"
            y2="416.593" gradientUnits="userSpaceOnUse">
            <stop stop-color="#093F71" />
            <stop offset="0.445135" stop-color="#0C1721" />
            <stop offset="0.662055" stop-color="#080E16" />
            <stop offset="0.76069" stop-color="#080E16" />
            <stop offset="0.927608" stop-color="#602332" />
        </linearGradient>
        <linearGradient id="paint45_linear_970_2576" x1="257.052" y1="356.73" x2="257.052"
            y2="382.277" gradientUnits="userSpaceOnUse">
            <stop stop-color="#0C1321" />
            <stop offset="1" stop-color="#080E16" />
        </linearGradient>
        <linearGradient id="paint46_linear_970_2576" x1="262.781" y1="341.062" x2="266.453"
            y2="391.033" gradientUnits="userSpaceOnUse">
            <stop stop-color="#093F71" />
            <stop offset="0.445135" stop-color="#0C1721" />
            <stop offset="0.662055" stop-color="#080E16" />
            <stop offset="0.76069" stop-color="#080E16" />
            <stop offset="0.927608" stop-color="#602332" />
        </linearGradient>
        <linearGradient id="paint47_linear_970_2576" x1="234.956" y1="388.252" x2="234.956"
            y2="427.043" gradientUnits="userSpaceOnUse">
            <stop stop-color="#0C1321" />
            <stop offset="1" stop-color="#080E16" />
        </linearGradient>
        <linearGradient id="paint48_linear_970_2576" x1="240.685" y1="364.461" x2="249.092"
            y2="439.81" gradientUnits="userSpaceOnUse">
            <stop stop-color="#093F71" />
            <stop offset="0.445135" stop-color="#0C1721" />
            <stop offset="0.662055" stop-color="#080E16" />
            <stop offset="0.76069" stop-color="#080E16" />
            <stop offset="0.927608" stop-color="#602332" />
        </linearGradient>
        <linearGradient id="paint49_linear_970_2576" x1="255.113" y1="397.206" x2="255.113"
            y2="444.932" gradientUnits="userSpaceOnUse">
            <stop stop-color="#0C1321" />
            <stop offset="1" stop-color="#080E16" />
        </linearGradient>
        <linearGradient id="paint50_linear_970_2576" x1="260.843" y1="367.935" x2="273.488"
            y2="460.056" gradientUnits="userSpaceOnUse">
            <stop stop-color="#093F71" />
            <stop offset="0.445135" stop-color="#0C1721" />
            <stop offset="0.662055" stop-color="#080E16" />
            <stop offset="0.76069" stop-color="#080E16" />
            <stop offset="0.927608" stop-color="#602332" />
        </linearGradient>
        <linearGradient id="paint51_linear_970_2576" x1="285.688" y1="369.214" x2="285.688"
            y2="415.502" gradientUnits="userSpaceOnUse">
            <stop stop-color="#0C1321" />
            <stop offset="1" stop-color="#080E16" />
        </linearGradient>
        <linearGradient id="paint52_linear_970_2576" x1="291.417" y1="340.825" x2="303.325"
            y2="430.269" gradientUnits="userSpaceOnUse">
            <stop stop-color="#093F71" />
            <stop offset="0.445135" stop-color="#0C1721" />
            <stop offset="0.662055" stop-color="#080E16" />
            <stop offset="0.76069" stop-color="#080E16" />
            <stop offset="0.927608" stop-color="#602332" />
        </linearGradient>
        <linearGradient id="paint53_linear_970_2576" x1="309.448" y1="353.306" x2="309.448"
            y2="394.285" gradientUnits="userSpaceOnUse">
            <stop stop-color="#0C1321" />
            <stop offset="1" stop-color="#080E16" />
        </linearGradient>
        <linearGradient id="paint54_linear_970_2576" x1="315.178" y1="328.173" x2="324.546"
            y2="407.658" gradientUnits="userSpaceOnUse">
            <stop stop-color="#093F71" />
            <stop offset="0.445135" stop-color="#0C1721" />
            <stop offset="0.662055" stop-color="#080E16" />
            <stop offset="0.76069" stop-color="#080E16" />
            <stop offset="0.927608" stop-color="#602332" />
        </linearGradient>
        <linearGradient id="paint55_linear_970_2576" x1="295.334" y1="393.291" x2="295.334"
            y2="435.775" gradientUnits="userSpaceOnUse">
            <stop stop-color="#0C1321" />
            <stop offset="1" stop-color="#080E16" />
        </linearGradient>
        <linearGradient id="paint56_linear_970_2576" x1="301.063" y1="367.235" x2="311.123"
            y2="449.555" gradientUnits="userSpaceOnUse">
            <stop stop-color="#093F71" />
            <stop offset="0.445135" stop-color="#0C1721" />
            <stop offset="0.662055" stop-color="#080E16" />
            <stop offset="0.76069" stop-color="#080E16" />
            <stop offset="0.927608" stop-color="#602332" />
        </linearGradient>
        <linearGradient id="paint57_linear_970_2576" x1="268.352" y1="405.924" x2="268.352"
            y2="457.4" gradientUnits="userSpaceOnUse">
            <stop stop-color="#0C1321" />
            <stop offset="1" stop-color="#080E16" />
        </linearGradient>
        <linearGradient id="paint58_linear_970_2576" x1="274.081" y1="374.352" x2="288.748"
            y2="473.415" gradientUnits="userSpaceOnUse">
            <stop stop-color="#093F71" />
            <stop offset="0.445135" stop-color="#0C1721" />
            <stop offset="0.662055" stop-color="#080E16" />
            <stop offset="0.76069" stop-color="#080E16" />
            <stop offset="0.927608" stop-color="#602332" />
        </linearGradient>
    </defs>
</svg>