<svg width="100%" height="100%" viewBox="0 0 393 852" fill="none" xmlns="http://www.w3.org/2000/svg">
    <g clip-path="url(#clip0_63_2098)">
        <rect width="393" height="852" fill="#081016" />
        <g clip-path="url(#clip1_63_2098)">
            <rect x="-164" y="37.9089" width="254.463" height="765.715" rx="36.313"
                transform="rotate(-29.1399 -164 37.9089)" fill="#070C12" />
            <rect x="171.89" y="-98.8517" width="20.8408" height="765.715" rx="10.4204"
                transform="rotate(-29.1399 171.89 -98.8517)" fill="url(#paint0_linear_63_2098)" />
            <g filter="url(#filter0_f_63_2098)">
                <rect x="77" y="356" width="224" height="220" rx="110" fill="#045ABE"
                    style="mix-blend-mode:lighten" />
            </g>
            <path
                d="M264.238 510.912C264.238 500.008 273.078 491.168 283.983 491.168H373.491C384.396 491.168 393.236 500.008 393.236 510.912V847.885C393.236 858.79 384.396 867.63 373.491 867.63H283.983C273.078 867.63 264.238 858.79 264.238 847.885V510.912Z"
                fill="url(#paint1_linear_63_2098)" />
            <g filter="url(#filter1_dd_63_2098)">
                <path
                    d="M192.967 358.258C198.352 358.258 197.275 339.56 202.308 338.41C212.855 336.001 220.58 331.21 228.683 324.64C244.256 312.013 254.197 292.814 254.197 271.313V268.624V253.165C231.505 249.999 216.54 248.362 192.967 248.362C175.987 248.362 152.8 249.999 130.108 253.165V268.624V271.313C130.108 292.814 140.049 312.013 155.622 324.64C163.725 331.21 173.354 336.001 183.901 338.41C188.934 339.56 187.582 358.258 192.967 358.258Z"
                    fill="url(#paint2_linear_63_2098)" />
                <path
                    d="M192.967 358.258C198.352 358.258 197.275 339.56 202.308 338.41C212.855 336.001 220.58 331.21 228.683 324.64M192.967 358.258C187.582 358.258 188.934 339.56 183.901 338.41C173.354 336.001 163.725 331.21 155.622 324.64M192.967 358.258C192.967 364.92 192.967 375.292 192.967 375.292C192.967 375.292 192.967 385.349 192.967 391.776M130.108 268.624C120.001 270.081 109.997 271.852 100.105 273.925C104.738 301.135 101.753 324.64 155.622 324.64M130.108 268.624V271.313C130.108 292.814 140.049 312.013 155.622 324.64M130.108 268.624V253.165C152.8 249.999 175.987 248.362 192.967 248.362C216.54 248.362 231.505 249.999 254.197 253.165V268.624M254.197 268.624V271.313C254.197 292.814 244.256 312.013 228.683 324.64M254.197 268.624C264.304 270.081 274.309 271.852 284.201 273.925C279.567 301.135 281.433 330.234 228.683 324.64M192.967 391.776C192.967 380.787 228.683 391.776 228.683 391.776M192.967 391.776C192.967 380.787 159.449 391.776 159.449 391.776"
                    stroke="url(#paint3_linear_63_2098)" stroke-width="13.1875"
                    stroke-linecap="round" stroke-linejoin="round" />
            </g>
            <path
                d="M104.966 408.241C104.966 397.336 113.806 388.496 124.71 388.496H258.973C269.878 388.496 278.718 397.336 278.718 408.241V842.62C278.718 853.525 269.878 862.365 258.973 862.365H124.71C113.806 862.365 104.966 853.525 104.966 842.62V408.241Z"
                fill="url(#paint4_linear_63_2098)" />
            <path
                d="M-12.1849 593.839C-12.1849 582.935 -3.34498 574.095 7.55962 574.095H99.7007C110.605 574.095 119.445 582.935 119.445 593.839V849.202C119.445 860.106 110.605 868.946 99.7007 868.946H7.55962C-3.34498 868.946 -12.1849 860.106 -12.1849 849.202V593.839Z"
                fill="url(#paint5_linear_63_2098)" />
            <g filter="url(#filter2_ddd_63_2098)">
                <path
                    d="M172.762 265.208V294.55H166.558V271.096H166.386L159.667 275.308V269.807L166.931 265.208H172.762ZM190.837 295.194C188.373 295.185 186.252 294.578 184.476 293.375C182.709 292.171 181.348 290.428 180.392 288.145C179.447 285.863 178.979 283.117 178.988 279.907C178.988 276.708 179.461 273.981 180.407 271.726C181.362 269.472 182.723 267.758 184.49 266.583C186.267 265.399 188.382 264.806 190.837 264.806C193.292 264.806 195.402 265.399 197.17 266.583C198.946 267.767 200.312 269.487 201.267 271.741C202.222 273.985 202.695 276.708 202.685 279.907C202.685 283.126 202.208 285.877 201.253 288.16C200.307 290.443 198.951 292.186 197.184 293.389C195.417 294.593 193.301 295.194 190.837 295.194ZM190.837 290.051C192.518 290.051 193.86 289.206 194.863 287.515C195.866 285.824 196.362 283.289 196.353 279.907C196.353 277.682 196.124 275.829 195.665 274.348C195.216 272.868 194.576 271.755 193.745 271.01C192.924 270.265 191.954 269.893 190.837 269.893C189.165 269.893 187.828 270.728 186.825 272.4C185.822 274.071 185.316 276.574 185.307 279.907C185.307 282.161 185.531 284.043 185.98 285.552C186.438 287.052 187.083 288.179 187.914 288.933C188.745 289.678 189.719 290.051 190.837 290.051ZM212.293 288.217L212.307 280.896H213.196L220.245 272.543H227.251L217.78 283.604H216.333L212.293 288.217ZM206.763 294.55V265.208H212.866V294.55H206.763ZM220.517 294.55L214.041 284.965L218.11 280.652L227.666 294.55H220.517Z"
                    fill="#F1C1AF" />
            </g>
            <g filter="url(#filter3_ddd_63_2098)">
                <path
                    d="M194.33 330.507V333.388H191.279V330.535C188.879 330.309 186.902 329.632 185.349 328.502V325.169C186.111 325.875 187.184 326.468 188.512 326.977C189.867 327.485 191.223 327.739 192.607 327.739C195.205 327.739 197.182 326.61 197.182 324.774C197.182 323.983 196.787 323.362 196.306 322.938C196.081 322.741 195.742 322.543 195.29 322.345C194.386 321.922 193.849 321.78 192.579 321.413L192.183 321.3C191.082 320.99 190.206 320.707 189.613 320.481C189.02 320.255 188.371 319.916 187.636 319.493C186.196 318.589 185.603 317.318 185.603 315.511C185.603 312.658 187.693 310.653 191.279 310.201V307.349H194.33V310.201C196.081 310.399 197.662 310.935 199.102 311.754V314.833C197.097 313.618 195.007 312.997 192.833 312.997C190.122 312.997 188.794 314.07 188.794 315.539C188.794 316.923 190.602 317.77 192.861 318.42C194.019 318.73 195.149 319.097 196.278 319.521C198.566 320.34 200.373 322.119 200.373 324.717C200.373 326.299 199.808 327.598 198.679 328.615C197.577 329.632 196.109 330.253 194.33 330.507Z"
                    fill="#F1C1AF" />
            </g>
            <g filter="url(#filter4_dddd_63_2098)">
                <path
                    d="M206.276 502.608H187.602V448.803L172.516 455.766V437.515L189.818 428.758H206.276V502.608Z"
                    fill="#EAB4C5" />
            </g>
            <rect x="-295" y="437.909" width="254.463" height="765.715" rx="36.313"
                transform="rotate(-29.1399 -295 437.909)" fill="url(#paint6_linear_63_2098)" />
            <rect x="-14.686" y="-281.386" width="326.857" height="1206.6" rx="36.313"
                transform="rotate(-29.1399 -14.686 -281.386)" fill="#060D11" />
            <rect x="-14.686" y="-281.386" width="326.857" height="1206.6" rx="36.313"
                transform="rotate(-29.1399 -14.686 -281.386)" fill="url(#paint7_linear_63_2098)" />
            <rect x="-14.686" y="-281.386" width="326.857" height="1206.6" rx="36.313"
                transform="rotate(-29.1399 -14.686 -281.386)" fill="url(#paint8_linear_63_2098)" />
            <g style="mix-blend-mode:plus-lighter" filter="url(#filter5_f_63_2098)">
                <circle cx="347.672" cy="764.672" r="67.9033"
                    transform="rotate(103.946 347.672 764.672)" fill="#EF0303" />
            </g>
            <g style="mix-blend-mode:plus-lighter" filter="url(#filter6_f_63_2098)">
                <circle cx="40.0956" cy="115.096" r="50.1951"
                    transform="rotate(103.946 40.0956 115.096)" fill="#0356EF" />
            </g>
        </g>
        <path
            d="M108.736 627.2L105.216 637.5C104.989 638.193 104.736 638.807 104.456 639.34C104.176 639.873 103.836 640.3 103.436 640.62C103.036 640.94 102.529 641.127 101.916 641.18C101.636 641.207 101.309 641.207 100.936 641.18C100.576 641.153 100.216 641.113 99.8559 641.06C99.4959 641.007 99.1825 640.953 98.9159 640.9L99.1959 639.12C99.8225 639.16 100.329 639.18 100.716 639.18C101.103 639.18 101.409 639.133 101.636 639.04C101.863 638.947 102.049 638.787 102.196 638.56C102.356 638.32 102.523 637.987 102.696 637.56L103.156 636.22L103.496 635.32L106.176 627.2H108.736ZM100.096 627.2L102.516 634.82C102.583 635.007 102.723 635.1 102.936 635.1H103.836L104.376 637.04H102.116C101.663 637.04 101.309 636.933 101.056 636.72C100.816 636.507 100.636 636.207 100.516 635.82L97.5159 627.2H100.096ZM111.964 631.18V634.82C111.964 635.22 112.05 635.507 112.224 635.68C112.41 635.84 112.704 635.92 113.104 635.92C113.584 635.92 114.05 635.873 114.504 635.78C114.97 635.687 115.49 635.513 116.064 635.26L116.304 636.94C115.65 637.22 114.964 637.433 114.244 637.58C113.524 637.713 112.877 637.78 112.304 637.78C111.37 637.78 110.677 637.6 110.224 637.24C109.784 636.88 109.564 636.327 109.564 635.58V631.18H111.964ZM118.264 631.18V641H115.844V631.18H118.264ZM125.998 630.94C126.785 630.94 127.445 631.047 127.978 631.26C128.512 631.46 128.918 631.807 129.198 632.3C129.478 632.793 129.618 633.473 129.618 634.34V641H127.698L127.358 638.88L127.198 638.6V634.32C127.185 633.8 127.058 633.427 126.818 633.2C126.578 632.96 126.125 632.84 125.458 632.84C124.938 632.84 124.292 632.86 123.518 632.9C122.758 632.94 121.992 632.993 121.218 633.06L120.998 631.4C121.465 631.307 121.992 631.227 122.578 631.16C123.178 631.093 123.772 631.04 124.358 631C124.958 630.96 125.505 630.94 125.998 630.94ZM128.578 634.96L128.558 636.46H124.078C123.665 636.473 123.372 636.58 123.198 636.78C123.025 636.98 122.938 637.253 122.938 637.6V638.14C122.938 638.54 123.045 638.847 123.258 639.06C123.485 639.26 123.818 639.36 124.258 639.36C124.618 639.36 125.018 639.287 125.458 639.14C125.898 638.993 126.332 638.78 126.758 638.5C127.198 638.22 127.592 637.887 127.938 637.5V638.76C127.818 638.96 127.632 639.2 127.378 639.48C127.125 639.747 126.812 640.013 126.438 640.28C126.078 640.547 125.658 640.767 125.178 640.94C124.698 641.113 124.172 641.2 123.598 641.2C123.012 641.2 122.485 641.1 122.018 640.9C121.552 640.687 121.185 640.38 120.918 639.98C120.665 639.567 120.538 639.06 120.538 638.46V637.42C120.538 636.647 120.792 636.047 121.298 635.62C121.805 635.18 122.512 634.96 123.418 634.96H128.578ZM136.747 631.08C137.801 631.08 138.634 631.153 139.247 631.3C139.861 631.447 140.301 631.713 140.567 632.1C140.847 632.473 140.987 633.007 140.987 633.7C140.987 634.393 140.821 634.92 140.487 635.28C140.167 635.64 139.621 635.853 138.847 635.92V635.98C139.781 636.047 140.427 636.3 140.787 636.74C141.161 637.18 141.347 637.793 141.347 638.58C141.347 639.247 141.207 639.767 140.927 640.14C140.661 640.513 140.227 640.78 139.627 640.94C139.041 641.087 138.267 641.16 137.307 641.16C136.561 641.16 135.907 641.153 135.347 641.14C134.787 641.14 134.267 641.127 133.787 641.1C133.321 641.087 132.834 641.067 132.327 641.04L132.587 639.4C132.867 639.413 133.394 639.427 134.167 639.44C134.954 639.44 135.874 639.44 136.927 639.44C137.421 639.44 137.814 639.407 138.107 639.34C138.414 639.26 138.627 639.12 138.747 638.92C138.881 638.72 138.947 638.44 138.947 638.08C138.947 637.533 138.794 637.167 138.487 636.98C138.181 636.78 137.634 636.68 136.847 636.68H132.567V635.22H136.847C137.314 635.22 137.681 635.187 137.947 635.12C138.227 635.053 138.427 634.927 138.547 634.74C138.667 634.553 138.727 634.293 138.727 633.96C138.727 633.653 138.661 633.413 138.527 633.24C138.394 633.067 138.174 632.947 137.867 632.88C137.574 632.813 137.167 632.78 136.647 632.78C136.021 632.767 135.461 632.76 134.967 632.76C134.474 632.76 134.034 632.76 133.647 632.76C133.261 632.76 132.907 632.78 132.587 632.82L132.327 631.2C132.781 631.16 133.214 631.133 133.627 631.12C134.054 631.107 134.514 631.1 135.007 631.1C135.514 631.087 136.094 631.08 136.747 631.08ZM134.607 631.2V641.04H132.327V631.2H134.607ZM148.016 630.94C148.35 630.94 148.716 630.953 149.116 630.98C149.516 631.007 149.916 631.06 150.316 631.14C150.73 631.22 151.11 631.333 151.456 631.48L151.176 633C150.683 632.973 150.19 632.953 149.696 632.94C149.216 632.927 148.79 632.92 148.416 632.92C147.763 632.92 147.236 633.013 146.836 633.2C146.436 633.373 146.15 633.693 145.976 634.16C145.803 634.613 145.716 635.253 145.716 636.08C145.716 636.907 145.803 637.553 145.976 638.02C146.15 638.473 146.436 638.793 146.836 638.98C147.236 639.167 147.763 639.26 148.416 639.26C148.63 639.26 148.903 639.253 149.236 639.24C149.57 639.227 149.923 639.207 150.296 639.18C150.683 639.153 151.05 639.12 151.396 639.08L151.616 640.64C151.11 640.853 150.536 641.007 149.896 641.1C149.27 641.193 148.636 641.24 147.996 641.24C146.823 641.24 145.883 641.073 145.176 640.74C144.47 640.407 143.956 639.867 143.636 639.12C143.33 638.36 143.176 637.347 143.176 636.08C143.176 634.813 143.33 633.807 143.636 633.06C143.956 632.3 144.47 631.76 145.176 631.44C145.896 631.107 146.843 630.94 148.016 630.94ZM158.535 631.18V641H156.115V631.18H158.535ZM161.915 631.18V633.08H152.715V631.18H161.915ZM168.154 631.08C169.207 631.08 170.04 631.153 170.654 631.3C171.267 631.447 171.707 631.713 171.974 632.1C172.254 632.473 172.394 633.007 172.394 633.7C172.394 634.393 172.227 634.92 171.894 635.28C171.574 635.64 171.027 635.853 170.254 635.92V635.98C171.187 636.047 171.834 636.3 172.194 636.74C172.567 637.18 172.754 637.793 172.754 638.58C172.754 639.247 172.614 639.767 172.334 640.14C172.067 640.513 171.634 640.78 171.034 640.94C170.447 641.087 169.674 641.16 168.714 641.16C167.967 641.16 167.314 641.153 166.754 641.14C166.194 641.14 165.674 641.127 165.194 641.1C164.727 641.087 164.24 641.067 163.734 641.04L163.994 639.4C164.274 639.413 164.8 639.427 165.574 639.44C166.36 639.44 167.28 639.44 168.334 639.44C168.827 639.44 169.22 639.407 169.514 639.34C169.82 639.26 170.034 639.12 170.154 638.92C170.287 638.72 170.354 638.44 170.354 638.08C170.354 637.533 170.2 637.167 169.894 636.98C169.587 636.78 169.04 636.68 168.254 636.68H163.974V635.22H168.254C168.72 635.22 169.087 635.187 169.354 635.12C169.634 635.053 169.834 634.927 169.954 634.74C170.074 634.553 170.134 634.293 170.134 633.96C170.134 633.653 170.067 633.413 169.934 633.24C169.8 633.067 169.58 632.947 169.274 632.88C168.98 632.813 168.574 632.78 168.054 632.78C167.427 632.767 166.867 632.76 166.374 632.76C165.88 632.76 165.44 632.76 165.054 632.76C164.667 632.76 164.314 632.78 163.994 632.82L163.734 631.2C164.187 631.16 164.62 631.133 165.034 631.12C165.46 631.107 165.92 631.1 166.414 631.1C166.92 631.087 167.5 631.08 168.154 631.08ZM166.014 631.2V641.04H163.734V631.2H166.014ZM184.285 631.18L180.605 641.3C180.445 641.78 180.245 642.22 180.005 642.62C179.779 643.033 179.512 643.4 179.205 643.72C178.899 644.053 178.545 644.327 178.145 644.54C177.612 644.86 177.025 645.04 176.385 645.08C175.745 645.133 175.079 645.107 174.385 645L174.585 643.38C175.092 643.393 175.559 643.373 175.985 643.32C176.412 643.267 176.785 643.14 177.105 642.94C177.372 642.767 177.612 642.52 177.825 642.2C178.052 641.88 178.239 641.533 178.385 641.16L178.905 639.94C179.025 639.647 179.139 639.313 179.245 638.94C179.352 638.553 179.452 638.22 179.545 637.94L181.705 631.18H184.285ZM176.385 631.18L178.545 637.94C178.612 638.167 178.672 638.4 178.725 638.64C178.779 638.867 178.832 639.093 178.885 639.32H179.385L178.585 641H177.965C177.779 641 177.612 640.947 177.465 640.84C177.319 640.733 177.212 640.587 177.145 640.4L173.785 631.18H176.385ZM195.161 631.18V641L192.981 641.02V635.28C192.981 635.04 192.987 634.807 193.001 634.58C193.027 634.34 193.047 634.087 193.061 633.82H193.021C192.927 634.033 192.814 634.267 192.681 634.52C192.547 634.76 192.414 634.967 192.281 635.14L188.021 641H185.941V631.18H188.121V636.98C188.121 637.207 188.114 637.433 188.101 637.66C188.087 637.873 188.067 638.113 188.041 638.38H188.081C188.187 638.153 188.301 637.933 188.421 637.72C188.554 637.507 188.687 637.313 188.821 637.14L193.101 631.18H195.161ZM192.021 626.84H193.681C193.747 627.387 193.661 627.887 193.421 628.34C193.181 628.78 192.814 629.14 192.321 629.42C191.827 629.687 191.234 629.82 190.541 629.82C189.847 629.82 189.254 629.687 188.761 629.42C188.267 629.14 187.894 628.78 187.641 628.34C187.401 627.887 187.307 627.387 187.361 626.84H189.021C188.994 627.427 189.114 627.867 189.381 628.16C189.647 628.44 190.034 628.58 190.541 628.58C191.034 628.58 191.407 628.44 191.661 628.16C191.927 627.867 192.047 627.427 192.021 626.84ZM206.728 631.08C207.781 631.08 208.614 631.153 209.228 631.3C209.841 631.447 210.281 631.713 210.548 632.1C210.828 632.473 210.968 633.007 210.968 633.7C210.968 634.393 210.801 634.92 210.468 635.28C210.148 635.64 209.601 635.853 208.828 635.92V635.98C209.761 636.047 210.408 636.3 210.768 636.74C211.141 637.18 211.328 637.793 211.328 638.58C211.328 639.247 211.188 639.767 210.908 640.14C210.641 640.513 210.208 640.78 209.608 640.94C209.021 641.087 208.248 641.16 207.288 641.16C206.541 641.16 205.888 641.153 205.328 641.14C204.768 641.14 204.248 641.127 203.768 641.1C203.301 641.087 202.814 641.067 202.308 641.04L202.568 639.4C202.848 639.413 203.374 639.427 204.148 639.44C204.934 639.44 205.854 639.44 206.908 639.44C207.401 639.44 207.794 639.407 208.088 639.34C208.394 639.26 208.608 639.12 208.728 638.92C208.861 638.72 208.928 638.44 208.928 638.08C208.928 637.533 208.774 637.167 208.468 636.98C208.161 636.78 207.614 636.68 206.828 636.68H202.548V635.22H206.828C207.294 635.22 207.661 635.187 207.928 635.12C208.208 635.053 208.408 634.927 208.528 634.74C208.648 634.553 208.708 634.293 208.708 633.96C208.708 633.653 208.641 633.413 208.508 633.24C208.374 633.067 208.154 632.947 207.848 632.88C207.554 632.813 207.148 632.78 206.628 632.78C206.001 632.767 205.441 632.76 204.948 632.76C204.454 632.76 204.014 632.76 203.628 632.76C203.241 632.76 202.888 632.78 202.568 632.82L202.308 631.2C202.761 631.16 203.194 631.133 203.608 631.12C204.034 631.107 204.494 631.1 204.988 631.1C205.494 631.087 206.074 631.08 206.728 631.08ZM204.588 631.2V641.04H202.308V631.2H204.588ZM222.871 631.18V641H220.451V631.18H222.871ZM226.251 631.18V633.08H217.051V631.18H226.251ZM237.449 631.18L233.769 641.3C233.609 641.78 233.409 642.22 233.169 642.62C232.943 643.033 232.676 643.4 232.369 643.72C232.063 644.053 231.709 644.327 231.309 644.54C230.776 644.86 230.189 645.04 229.549 645.08C228.909 645.133 228.243 645.107 227.549 645L227.749 643.38C228.256 643.393 228.723 643.373 229.149 643.32C229.576 643.267 229.949 643.14 230.269 642.94C230.536 642.767 230.776 642.52 230.989 642.2C231.216 641.88 231.403 641.533 231.549 641.16L232.069 639.94C232.189 639.647 232.303 639.313 232.409 638.94C232.516 638.553 232.616 638.22 232.709 637.94L234.869 631.18H237.449ZM229.549 631.18L231.709 637.94C231.776 638.167 231.836 638.4 231.889 638.64C231.943 638.867 231.996 639.093 232.049 639.32H232.549L231.749 641H231.129C230.943 641 230.776 640.947 230.629 640.84C230.483 640.733 230.376 640.587 230.309 640.4L226.949 631.18H229.549ZM245.205 630.94C246.445 630.94 247.325 631.387 247.845 632.28C248.378 633.173 248.645 634.467 248.645 636.16C248.645 637.453 248.505 638.473 248.225 639.22C247.958 639.953 247.545 640.48 246.985 640.8C246.438 641.107 245.751 641.26 244.925 641.26C244.258 641.26 243.605 641.167 242.965 640.98C242.325 640.78 241.745 640.473 241.225 640.06L241.385 638.86C241.905 639.007 242.365 639.133 242.765 639.24C243.178 639.347 243.638 639.4 244.145 639.4C244.625 639.4 245.011 639.32 245.305 639.16C245.598 638.987 245.811 638.667 245.945 638.2C246.078 637.733 246.145 637.06 246.145 636.18C246.145 635.313 246.085 634.64 245.965 634.16C245.845 633.68 245.645 633.347 245.365 633.16C245.098 632.96 244.745 632.86 244.305 632.86C243.825 632.86 243.371 632.967 242.945 633.18C242.518 633.38 242.031 633.68 241.485 634.08L241.185 632.8C241.491 632.44 241.858 632.12 242.285 631.84C242.725 631.56 243.191 631.34 243.685 631.18C244.191 631.02 244.698 630.94 245.205 630.94ZM241.085 631.18L241.345 633.08L241.545 633.36V639.7L241.445 639.94C241.485 640.327 241.511 640.713 241.525 641.1C241.551 641.5 241.558 641.907 241.545 642.32V644.9H239.125V631.18H241.085ZM253.399 631.18V641H250.999V631.18H253.399ZM257.939 634.96V636.66H253.279V634.96H257.939ZM260.139 631.18V641H257.759V631.18H260.139ZM272.114 631.18V641L269.934 641.02V635.28C269.934 635.04 269.94 634.807 269.954 634.58C269.98 634.34 270 634.087 270.014 633.82H269.974C269.88 634.033 269.767 634.267 269.634 634.52C269.5 634.76 269.367 634.967 269.234 635.14L264.974 641H262.894V631.18H265.074V636.98C265.074 637.207 265.067 637.433 265.054 637.66C265.04 637.873 265.02 638.113 264.994 638.38H265.034C265.14 638.153 265.254 637.933 265.374 637.72C265.507 637.507 265.64 637.313 265.774 637.14L270.054 631.18H272.114ZM280.986 630.94C282.226 630.94 283.106 631.387 283.626 632.28C284.159 633.173 284.426 634.467 284.426 636.16C284.426 637.453 284.286 638.473 284.006 639.22C283.739 639.953 283.326 640.48 282.766 640.8C282.219 641.107 281.533 641.26 280.706 641.26C280.039 641.26 279.386 641.167 278.746 640.98C278.106 640.78 277.526 640.473 277.006 640.06L277.166 638.86C277.686 639.007 278.146 639.133 278.546 639.24C278.959 639.347 279.419 639.4 279.926 639.4C280.406 639.4 280.793 639.32 281.086 639.16C281.379 638.987 281.593 638.667 281.726 638.2C281.859 637.733 281.926 637.06 281.926 636.18C281.926 635.313 281.866 634.64 281.746 634.16C281.626 633.68 281.426 633.347 281.146 633.16C280.879 632.96 280.526 632.86 280.086 632.86C279.606 632.86 279.153 632.967 278.726 633.18C278.299 633.38 277.813 633.68 277.266 634.08L276.966 632.8C277.273 632.44 277.639 632.12 278.066 631.84C278.506 631.56 278.973 631.34 279.466 631.18C279.973 631.02 280.479 630.94 280.986 630.94ZM276.866 631.18L277.126 633.08L277.326 633.36V639.7L277.226 639.94C277.266 640.327 277.293 640.713 277.306 641.1C277.333 641.5 277.339 641.907 277.326 642.32V644.9H274.906V631.18H276.866ZM291.74 630.94C292.527 630.94 293.187 631.047 293.72 631.26C294.254 631.46 294.66 631.807 294.94 632.3C295.22 632.793 295.36 633.473 295.36 634.34V641H293.44L293.1 638.88L292.94 638.6V634.32C292.927 633.8 292.8 633.427 292.56 633.2C292.32 632.96 291.867 632.84 291.2 632.84C290.68 632.84 290.034 632.86 289.26 632.9C288.5 632.94 287.734 632.993 286.96 633.06L286.74 631.4C287.207 631.307 287.734 631.227 288.32 631.16C288.92 631.093 289.514 631.04 290.1 631C290.7 630.96 291.247 630.94 291.74 630.94ZM294.32 634.96L294.3 636.46H289.82C289.407 636.473 289.114 636.58 288.94 636.78C288.767 636.98 288.68 637.253 288.68 637.6V638.14C288.68 638.54 288.787 638.847 289 639.06C289.227 639.26 289.56 639.36 290 639.36C290.36 639.36 290.76 639.287 291.2 639.14C291.64 638.993 292.074 638.78 292.5 638.5C292.94 638.22 293.334 637.887 293.68 637.5V638.76C293.56 638.96 293.374 639.2 293.12 639.48C292.867 639.747 292.554 640.013 292.18 640.28C291.82 640.547 291.4 640.767 290.92 640.94C290.44 641.113 289.914 641.2 289.34 641.2C288.754 641.2 288.227 641.1 287.76 640.9C287.294 640.687 286.927 640.38 286.66 639.98C286.407 639.567 286.28 639.06 286.28 638.46V637.42C286.28 636.647 286.534 636.047 287.04 635.62C287.547 635.18 288.254 634.96 289.16 634.96H294.32ZM307.189 631.18L304.269 635.96L307.409 641H304.889L301.869 635.96L304.689 631.18H307.189ZM299.769 631.18L302.569 635.96L299.529 641H297.009L300.169 635.96L297.269 631.18H299.769ZM303.569 635.1V636.72H300.889V635.1H303.569ZM154.477 655.18V665L152.297 665.02V659.28C152.297 659.04 152.304 658.807 152.317 658.58C152.344 658.34 152.364 658.087 152.377 657.82H152.337C152.244 658.033 152.13 658.267 151.997 658.52C151.864 658.76 151.73 658.967 151.597 659.14L147.337 665H145.257V655.18H147.437V660.98C147.437 661.207 147.43 661.433 147.417 661.66C147.404 661.873 147.384 662.113 147.357 662.38H147.397C147.504 662.153 147.617 661.933 147.737 661.72C147.87 661.507 148.004 661.313 148.137 661.14L152.417 655.18H154.477ZM170.484 655.18C170.257 655.847 170.051 656.433 169.864 656.94C169.677 657.447 169.497 657.873 169.324 658.22C169.151 658.553 168.951 658.833 168.724 659.06C168.511 659.287 168.251 659.467 167.944 659.6C167.651 659.72 167.291 659.807 166.864 659.86V659.94C167.304 659.98 167.684 660.06 168.004 660.18C168.324 660.3 168.597 660.48 168.824 660.72C169.064 660.947 169.277 661.247 169.464 661.62C169.664 661.98 169.864 662.44 170.064 663C170.277 663.56 170.517 664.227 170.784 665H168.244C168.017 664.307 167.811 663.713 167.624 663.22C167.437 662.727 167.264 662.32 167.104 662C166.944 661.68 166.764 661.433 166.564 661.26C166.377 661.073 166.151 660.947 165.884 660.88C165.631 660.8 165.331 660.76 164.984 660.76L164.964 659.06C165.391 659.06 165.751 658.993 166.044 658.86C166.337 658.713 166.584 658.487 166.784 658.18C166.997 657.873 167.197 657.48 167.384 657C167.571 656.507 167.777 655.9 168.004 655.18H170.484ZM164.044 655.18V657.88C164.044 658.2 164.017 658.533 163.964 658.88C163.911 659.227 163.824 659.553 163.704 659.86C163.811 660.153 163.891 660.46 163.944 660.78C164.011 661.1 164.044 661.393 164.044 661.66V665H161.624V655.18H164.044ZM165.684 659.06V660.76H163.404V659.06H165.684ZM177.041 654.94C178.228 654.94 179.175 655.107 179.881 655.44C180.601 655.773 181.115 656.32 181.421 657.08C181.741 657.84 181.901 658.847 181.901 660.1C181.901 661.353 181.741 662.36 181.421 663.12C181.115 663.867 180.601 664.413 179.881 664.76C179.175 665.093 178.228 665.26 177.041 665.26C175.855 665.26 174.901 665.093 174.181 664.76C173.461 664.413 172.941 663.867 172.621 663.12C172.301 662.36 172.141 661.353 172.141 660.1C172.141 658.847 172.301 657.84 172.621 657.08C172.941 656.32 173.461 655.773 174.181 655.44C174.901 655.107 175.855 654.94 177.041 654.94ZM177.041 656.78C176.441 656.78 175.968 656.88 175.621 657.08C175.288 657.267 175.048 657.6 174.901 658.08C174.755 658.56 174.681 659.233 174.681 660.1C174.681 660.967 174.755 661.64 174.901 662.12C175.048 662.6 175.288 662.933 175.621 663.12C175.968 663.307 176.441 663.4 177.041 663.4C177.628 663.4 178.088 663.307 178.421 663.12C178.768 662.933 179.008 662.6 179.141 662.12C179.288 661.64 179.361 660.967 179.361 660.1C179.361 659.233 179.288 658.56 179.141 658.08C179.008 657.6 178.768 657.267 178.421 657.08C178.088 656.88 177.628 656.78 177.041 656.78ZM186.641 655.18V665H184.241V655.18H186.641ZM191.181 658.96V660.66H186.521V658.96H191.181ZM193.381 655.18V665H191.001V655.18H193.381ZM204.996 655.18C204.769 655.847 204.563 656.433 204.376 656.94C204.189 657.447 204.009 657.873 203.836 658.22C203.663 658.553 203.463 658.833 203.236 659.06C203.023 659.287 202.763 659.467 202.456 659.6C202.163 659.72 201.803 659.807 201.376 659.86V659.94C201.816 659.98 202.196 660.06 202.516 660.18C202.836 660.3 203.109 660.48 203.336 660.72C203.576 660.947 203.789 661.247 203.976 661.62C204.176 661.98 204.376 662.44 204.576 663C204.789 663.56 205.029 664.227 205.296 665H202.756C202.529 664.307 202.323 663.713 202.136 663.22C201.949 662.727 201.776 662.32 201.616 662C201.456 661.68 201.276 661.433 201.076 661.26C200.889 661.073 200.663 660.947 200.396 660.88C200.143 660.8 199.843 660.76 199.496 660.76L199.476 659.06C199.903 659.06 200.263 658.993 200.556 658.86C200.849 658.713 201.096 658.487 201.296 658.18C201.509 657.873 201.709 657.48 201.896 657C202.083 656.507 202.289 655.9 202.516 655.18H204.996ZM198.556 655.18V657.88C198.556 658.2 198.529 658.533 198.476 658.88C198.423 659.227 198.336 659.553 198.216 659.86C198.323 660.153 198.403 660.46 198.456 660.78C198.523 661.1 198.556 661.393 198.556 661.66V665H196.136V655.18H198.556ZM200.196 659.06V660.76H197.916V659.06H200.196ZM216.571 655.18L212.891 665.3C212.731 665.78 212.531 666.22 212.291 666.62C212.064 667.033 211.797 667.4 211.491 667.72C211.184 668.053 210.831 668.327 210.431 668.54C209.897 668.86 209.311 669.04 208.671 669.08C208.031 669.133 207.364 669.107 206.671 669L206.871 667.38C207.377 667.393 207.844 667.373 208.271 667.32C208.697 667.267 209.071 667.14 209.391 666.94C209.657 666.767 209.897 666.52 210.111 666.2C210.337 665.88 210.524 665.533 210.671 665.16L211.191 663.94C211.311 663.647 211.424 663.313 211.531 662.94C211.637 662.553 211.737 662.22 211.831 661.94L213.991 655.18H216.571ZM208.671 655.18L210.831 661.94C210.897 662.167 210.957 662.4 211.011 662.64C211.064 662.867 211.117 663.093 211.171 663.32H211.671L210.871 665H210.251C210.064 665 209.897 664.947 209.751 664.84C209.604 664.733 209.497 664.587 209.431 664.4L206.071 655.18H208.671ZM224.326 654.94C225.566 654.94 226.446 655.387 226.966 656.28C227.499 657.173 227.766 658.467 227.766 660.16C227.766 661.453 227.626 662.473 227.346 663.22C227.079 663.953 226.666 664.48 226.106 664.8C225.559 665.107 224.872 665.26 224.046 665.26C223.379 665.26 222.726 665.167 222.086 664.98C221.446 664.78 220.866 664.473 220.346 664.06L220.506 662.86C221.026 663.007 221.486 663.133 221.886 663.24C222.299 663.347 222.759 663.4 223.266 663.4C223.746 663.4 224.132 663.32 224.426 663.16C224.719 662.987 224.932 662.667 225.066 662.2C225.199 661.733 225.266 661.06 225.266 660.18C225.266 659.313 225.206 658.64 225.086 658.16C224.966 657.68 224.766 657.347 224.486 657.16C224.219 656.96 223.866 656.86 223.426 656.86C222.946 656.86 222.492 656.967 222.066 657.18C221.639 657.38 221.152 657.68 220.606 658.08L220.306 656.8C220.612 656.44 220.979 656.12 221.406 655.84C221.846 655.56 222.312 655.34 222.806 655.18C223.312 655.02 223.819 654.94 224.326 654.94ZM220.206 655.18L220.466 657.08L220.666 657.36V663.7L220.566 663.94C220.606 664.327 220.632 664.713 220.646 665.1C220.672 665.5 220.679 665.907 220.666 666.32V668.9H218.246V655.18H220.206ZM234.52 654.94C234.854 654.94 235.22 654.953 235.62 654.98C236.02 655.007 236.42 655.06 236.82 655.14C237.234 655.22 237.614 655.333 237.96 655.48L237.68 657C237.187 656.973 236.694 656.953 236.2 656.94C235.72 656.927 235.294 656.92 234.92 656.92C234.267 656.92 233.74 657.013 233.34 657.2C232.94 657.373 232.654 657.693 232.48 658.16C232.307 658.613 232.22 659.253 232.22 660.08C232.22 660.907 232.307 661.553 232.48 662.02C232.654 662.473 232.94 662.793 233.34 662.98C233.74 663.167 234.267 663.26 234.92 663.26C235.134 663.26 235.407 663.253 235.74 663.24C236.074 663.227 236.427 663.207 236.8 663.18C237.187 663.153 237.554 663.12 237.9 663.08L238.12 664.64C237.614 664.853 237.04 665.007 236.4 665.1C235.774 665.193 235.14 665.24 234.5 665.24C233.327 665.24 232.387 665.073 231.68 664.74C230.974 664.407 230.46 663.867 230.14 663.12C229.834 662.36 229.68 661.347 229.68 660.08C229.68 658.813 229.834 657.807 230.14 657.06C230.46 656.3 230.974 655.76 231.68 655.44C232.4 655.107 233.347 654.94 234.52 654.94ZM245.119 654.94C245.906 654.94 246.566 655.047 247.099 655.26C247.633 655.46 248.039 655.807 248.319 656.3C248.599 656.793 248.739 657.473 248.739 658.34V665H246.819L246.479 662.88L246.319 662.6V658.32C246.306 657.8 246.179 657.427 245.939 657.2C245.699 656.96 245.246 656.84 244.579 656.84C244.059 656.84 243.413 656.86 242.639 656.9C241.879 656.94 241.113 656.993 240.339 657.06L240.119 655.4C240.586 655.307 241.113 655.227 241.699 655.16C242.299 655.093 242.893 655.04 243.479 655C244.079 654.96 244.626 654.94 245.119 654.94ZM247.699 658.96L247.679 660.46H243.199C242.786 660.473 242.493 660.58 242.319 660.78C242.146 660.98 242.059 661.253 242.059 661.6V662.14C242.059 662.54 242.166 662.847 242.379 663.06C242.606 663.26 242.939 663.36 243.379 663.36C243.739 663.36 244.139 663.287 244.579 663.14C245.019 662.993 245.453 662.78 245.879 662.5C246.319 662.22 246.713 661.887 247.059 661.5V662.76C246.939 662.96 246.753 663.2 246.499 663.48C246.246 663.747 245.933 664.013 245.559 664.28C245.199 664.547 244.779 664.767 244.299 664.94C243.819 665.113 243.293 665.2 242.719 665.2C242.133 665.2 241.606 665.1 241.139 664.9C240.673 664.687 240.306 664.38 240.039 663.98C239.786 663.567 239.659 663.06 239.659 662.46V661.42C239.659 660.647 239.913 660.047 240.419 659.62C240.926 659.18 241.633 658.96 242.539 658.96H247.699ZM260.568 655.18L257.648 659.96L260.788 665H258.268L255.248 659.96L258.068 655.18H260.568ZM253.148 655.18L255.948 659.96L252.908 665H250.388L253.548 659.96L250.648 655.18H253.148ZM256.948 659.1V660.72H254.268V659.1H256.948Z"
            fill="white" />

    </g>
    <defs>
        <filter id="filter0_f_63_2098" x="-54.6302" y="224.37" width="487.26" height="483.26"
            filterUnits="userSpaceOnUse" color-interpolation-filters="sRGB">
            <feFlood flood-opacity="0" result="BackgroundImageFix" />
            <feBlend mode="normal" in="SourceGraphic" in2="BackgroundImageFix" result="shape" />
            <feGaussianBlur stdDeviation="65.8151" result="effect1_foregroundBlur_63_2098" />
        </filter>
        <filter id="filter1_dd_63_2098" x="93.51" y="239.57" width="197.285" height="160.999"
            filterUnits="userSpaceOnUse" color-interpolation-filters="sRGB">
            <feFlood flood-opacity="0" result="BackgroundImageFix" />
            <feColorMatrix in="SourceAlpha" type="matrix"
                values="0 0 0 0 0 0 0 0 0 0 0 0 0 0 0 0 0 0 127 0" result="hardAlpha" />
            <feOffset dy="-2.19792" />
            <feComposite in2="hardAlpha" operator="out" />
            <feColorMatrix type="matrix"
                values="0 0 0 0 0.192157 0 0 0 0 0.262745 0 0 0 0 0.360784 0 0 0 1 0" />
            <feBlend mode="normal" in2="BackgroundImageFix" result="effect1_dropShadow_63_2098" />
            <feColorMatrix in="SourceAlpha" type="matrix"
                values="0 0 0 0 0 0 0 0 0 0 0 0 0 0 0 0 0 0 127 0" result="hardAlpha" />
            <feOffset dy="2.19792" />
            <feComposite in2="hardAlpha" operator="out" />
            <feColorMatrix type="matrix"
                values="0 0 0 0 0.0156863 0 0 0 0 0.635294 0 0 0 0 0.745098 0 0 0 1 0" />
            <feBlend mode="normal" in2="effect1_dropShadow_63_2098"
                result="effect2_dropShadow_63_2098" />
            <feBlend mode="normal" in="SourceGraphic" in2="effect2_dropShadow_63_2098"
                result="shape" />
        </filter>
        <filter id="filter2_ddd_63_2098" x="135.266" y="240.406" width="116.801" height="79.1897"
            filterUnits="userSpaceOnUse" color-interpolation-filters="sRGB">
            <feFlood flood-opacity="0" result="BackgroundImageFix" />
            <feColorMatrix in="SourceAlpha" type="matrix"
                values="0 0 0 0 0 0 0 0 0 0 0 0 0 0 0 0 0 0 127 0" result="hardAlpha" />
            <feOffset />
            <feGaussianBlur stdDeviation="0.871459" />
            <feColorMatrix type="matrix"
                values="0 0 0 0 0.913725 0 0 0 0 0.180392 0 0 0 0 0.219608 0 0 0 1 0" />
            <feBlend mode="normal" in2="BackgroundImageFix" result="effect1_dropShadow_63_2098" />
            <feColorMatrix in="SourceAlpha" type="matrix"
                values="0 0 0 0 0 0 0 0 0 0 0 0 0 0 0 0 0 0 127 0" result="hardAlpha" />
            <feOffset />
            <feGaussianBlur stdDeviation="1.74292" />
            <feColorMatrix type="matrix"
                values="0 0 0 0 0.913725 0 0 0 0 0.180392 0 0 0 0 0.219608 0 0 0 1 0" />
            <feBlend mode="normal" in2="effect1_dropShadow_63_2098"
                result="effect2_dropShadow_63_2098" />
            <feColorMatrix in="SourceAlpha" type="matrix"
                values="0 0 0 0 0 0 0 0 0 0 0 0 0 0 0 0 0 0 127 0" result="hardAlpha" />
            <feOffset />
            <feGaussianBlur stdDeviation="12.2004" />
            <feColorMatrix type="matrix"
                values="0 0 0 0 0.913725 0 0 0 0 0.180392 0 0 0 0 0.219608 0 0 0 1 0" />
            <feBlend mode="normal" in2="effect2_dropShadow_63_2098"
                result="effect3_dropShadow_63_2098" />
            <feBlend mode="normal" in="SourceGraphic" in2="effect3_dropShadow_63_2098"
                result="shape" />
        </filter>
        <filter id="filter3_ddd_63_2098" x="150.713" y="272.713" width="84.296" height="95.3102"
            filterUnits="userSpaceOnUse" color-interpolation-filters="sRGB">
            <feFlood flood-opacity="0" result="BackgroundImageFix" />
            <feColorMatrix in="SourceAlpha" type="matrix"
                values="0 0 0 0 0 0 0 0 0 0 0 0 0 0 0 0 0 0 127 0" result="hardAlpha" />
            <feOffset />
            <feGaussianBlur stdDeviation="1.23699" />
            <feColorMatrix type="matrix"
                values="0 0 0 0 0.913725 0 0 0 0 0.180392 0 0 0 0 0.219608 0 0 0 1 0" />
            <feBlend mode="normal" in2="BackgroundImageFix" result="effect1_dropShadow_63_2098" />
            <feColorMatrix in="SourceAlpha" type="matrix"
                values="0 0 0 0 0 0 0 0 0 0 0 0 0 0 0 0 0 0 127 0" result="hardAlpha" />
            <feOffset />
            <feGaussianBlur stdDeviation="2.47398" />
            <feColorMatrix type="matrix"
                values="0 0 0 0 0.913725 0 0 0 0 0.180392 0 0 0 0 0.219608 0 0 0 1 0" />
            <feBlend mode="normal" in2="effect1_dropShadow_63_2098"
                result="effect2_dropShadow_63_2098" />
            <feColorMatrix in="SourceAlpha" type="matrix"
                values="0 0 0 0 0 0 0 0 0 0 0 0 0 0 0 0 0 0 127 0" result="hardAlpha" />
            <feOffset />
            <feGaussianBlur stdDeviation="17.3178" />
            <feColorMatrix type="matrix"
                values="0 0 0 0 0.913725 0 0 0 0 0.180392 0 0 0 0 0.219608 0 0 0 1 0" />
            <feBlend mode="normal" in2="effect2_dropShadow_63_2098"
                result="effect3_dropShadow_63_2098" />
            <feBlend mode="normal" in="SourceGraphic" in2="effect3_dropShadow_63_2098"
                result="shape" />
        </filter>
        <filter id="filter4_dddd_63_2098" x="148.115" y="404.357" width="82.5617" height="122.652"
            filterUnits="userSpaceOnUse" color-interpolation-filters="sRGB">
            <feFlood flood-opacity="0" result="BackgroundImageFix" />
            <feColorMatrix in="SourceAlpha" type="matrix"
                values="0 0 0 0 0 0 0 0 0 0 0 0 0 0 0 0 0 0 127 0" result="hardAlpha" />
            <feOffset dy="2.19792" />
            <feComposite in2="hardAlpha" operator="out" />
            <feColorMatrix type="matrix" values="0 0 0 0 0 0 0 0 0 0 0 0 0 0 0 0 0 0 0.25 0" />
            <feBlend mode="normal" in2="BackgroundImageFix" result="effect1_dropShadow_63_2098" />
            <feColorMatrix in="SourceAlpha" type="matrix"
                values="0 0 0 0 0 0 0 0 0 0 0 0 0 0 0 0 0 0 127 0" result="hardAlpha" />
            <feOffset />
            <feGaussianBlur stdDeviation="0.871459" />
            <feColorMatrix type="matrix"
                values="0 0 0 0 0.913725 0 0 0 0 0.180392 0 0 0 0 0.219608 0 0 0 1 0" />
            <feBlend mode="normal" in2="effect1_dropShadow_63_2098"
                result="effect2_dropShadow_63_2098" />
            <feColorMatrix in="SourceAlpha" type="matrix"
                values="0 0 0 0 0 0 0 0 0 0 0 0 0 0 0 0 0 0 127 0" result="hardAlpha" />
            <feOffset />
            <feGaussianBlur stdDeviation="1.74292" />
            <feColorMatrix type="matrix"
                values="0 0 0 0 0.913725 0 0 0 0 0.180392 0 0 0 0 0.219608 0 0 0 1 0" />
            <feBlend mode="normal" in2="effect2_dropShadow_63_2098"
                result="effect3_dropShadow_63_2098" />
            <feColorMatrix in="SourceAlpha" type="matrix"
                values="0 0 0 0 0 0 0 0 0 0 0 0 0 0 0 0 0 0 127 0" result="hardAlpha" />
            <feOffset />
            <feGaussianBlur stdDeviation="12.2004" />
            <feColorMatrix type="matrix"
                values="0 0 0 0 0.913725 0 0 0 0 0.180392 0 0 0 0 0.219608 0 0 0 1 0" />
            <feBlend mode="normal" in2="effect3_dropShadow_63_2098"
                result="effect4_dropShadow_63_2098" />
            <feBlend mode="normal" in="SourceGraphic" in2="effect4_dropShadow_63_2098"
                result="shape" />
        </filter>
        <filter id="filter5_f_63_2098" x="-20.2469" y="396.753" width="735.839" height="735.839"
            filterUnits="userSpaceOnUse" color-interpolation-filters="sRGB">
            <feFlood flood-opacity="0" result="BackgroundImageFix" />
            <feBlend mode="normal" in="SourceGraphic" in2="BackgroundImageFix" result="shape" />
            <feGaussianBlur stdDeviation="150" result="effect1_foregroundBlur_63_2098" />
        </filter>
        <filter id="filter6_f_63_2098" x="-310.111" y="-235.111" width="700.414" height="700.414"
            filterUnits="userSpaceOnUse" color-interpolation-filters="sRGB">
            <feFlood flood-opacity="0" result="BackgroundImageFix" />
            <feBlend mode="normal" in="SourceGraphic" in2="BackgroundImageFix" result="shape" />
            <feGaussianBlur stdDeviation="150" result="effect1_foregroundBlur_63_2098" />
        </filter>
        <filter id="filter7_d_63_2098" x="50.6909" y="765" width="75.6036" height="37.06"
            filterUnits="userSpaceOnUse" color-interpolation-filters="sRGB">
            <feFlood flood-opacity="0" result="BackgroundImageFix" />
            <feColorMatrix in="SourceAlpha" type="matrix"
                values="0 0 0 0 0 0 0 0 0 0 0 0 0 0 0 0 0 0 127 0" result="hardAlpha" />
            <feOffset />
            <feGaussianBlur stdDeviation="5.1" />
            <feColorMatrix type="matrix"
                values="0 0 0 0 0.941176 0 0 0 0 0.203922 0 0 0 0 0.214641 0 0 0 0.25 0" />
            <feBlend mode="normal" in2="BackgroundImageFix" result="effect1_dropShadow_63_2098" />
            <feBlend mode="normal" in="SourceGraphic" in2="effect1_dropShadow_63_2098"
                result="shape" />
        </filter>
        <linearGradient id="paint0_linear_63_2098" x1="182.311" y1="-98.8517" x2="182.311"
            y2="666.864" gradientUnits="userSpaceOnUse">
            <stop stop-color="#0C1921" />
            <stop offset="1" stop-color="#081116" />
        </linearGradient>
        <linearGradient id="paint1_linear_63_2098" x1="328.737" y1="375.333" x2="328.737"
            y2="867.63" gradientUnits="userSpaceOnUse">
            <stop stop-color="#0B141E" />
            <stop offset="0.508437" stop-color="#080D16" />
            <stop offset="0.875" stop-color="#081116" />
        </linearGradient>
        <linearGradient id="paint2_linear_63_2098" x1="192.967" y1="248.362" x2="192.967"
            y2="447.274" gradientUnits="userSpaceOnUse">
            <stop stop-color="#181C2E" />
            <stop offset="0.1" stop-color="#0E111C" />
        </linearGradient>
        <linearGradient id="paint3_linear_63_2098" x1="192.967" y1="248.362" x2="192.967"
            y2="447.274" gradientUnits="userSpaceOnUse">
            <stop stop-color="#181F2E" />
            <stop offset="0.085" stop-color="#0E101C" />
        </linearGradient>
        <linearGradient id="paint4_linear_63_2098" x1="191.842" y1="388.496" x2="191.842"
            y2="862.365" gradientUnits="userSpaceOnUse">
            <stop offset="0.151629" stop-color="#0B111E" />
            <stop offset="0.508437" stop-color="#080D16" />
            <stop offset="0.875" stop-color="#081116" />
        </linearGradient>
        <linearGradient id="paint5_linear_63_2098" x1="58.772" y1="434.567" x2="50.3489"
            y2="868.883" gradientUnits="userSpaceOnUse">
            <stop stop-color="#0B121E" />
            <stop offset="0.508437" stop-color="#080D16" />
            <stop offset="0.875" stop-color="#081116" />
        </linearGradient>
        <linearGradient id="paint6_linear_63_2098" x1="-295" y1="965.913" x2="-47.5941" y2="971.807"
            gradientUnits="userSpaceOnUse">
            <stop offset="0.513992" stop-color="#060B11" />
            <stop offset="1" stop-color="#0A101E" />
        </linearGradient>
        <linearGradient id="paint7_linear_63_2098" x1="312.171" y1="315.151" x2="-14.295"
            y2="308.747" gradientUnits="userSpaceOnUse">
            <stop offset="0.513992" stop-color="#060D11" />
            <stop offset="1" stop-color="#0A171E" />
        </linearGradient>
        <linearGradient id="paint8_linear_63_2098" x1="148.743" y1="-281.386" x2="148.743"
            y2="925.214" gradientUnits="userSpaceOnUse">
            <stop stop-color="#0C1221" />
            <stop offset="1" stop-color="#080F16" />
        </linearGradient>
        <clipPath id="clip0_63_2098">
            <rect width="393" height="852" fill="white" />
        </clipPath>
        <clipPath id="clip1_63_2098">
            <rect width="497" height="976" fill="white" transform="translate(-53 -57)" />
        </clipPath>
    </defs>
</svg>