<svg width="393" height="852" viewBox="0 0 393 852" fill="none" xmlns="http://www.w3.org/2000/svg">
    <g clip-path="url(#clip0_63_1924)">
        <g clip-path="url(#clip1_63_1924)">
            <rect width="543" height="1012" transform="translate(-81 -108)" fill="#080C16" />
            <rect width="326.857" height="1206.6" rx="36.313"
                transform="matrix(-0.873434 -0.486943 -0.486943 0.873434 419.034 -472.839)"
                fill="#060D11" />
            <rect width="326.857" height="1206.6" rx="36.313"
                transform="matrix(-0.873434 -0.486943 -0.486943 0.873434 419.034 -472.839)"
                fill="url(#paint0_linear_63_1924)" />
            <rect width="326.857" height="1206.6" rx="36.313"
                transform="matrix(-0.873434 -0.486943 -0.486943 0.873434 419.034 -472.839)"
                fill="url(#paint1_linear_63_1924)" />
            <rect width="326.857" height="1206.6" rx="36.313"
                transform="matrix(-0.873434 -0.486943 -0.486943 0.873434 419.034 -472.839)"
                fill="url(#paint2_linear_63_1924)" />
            <g style="mix-blend-mode:plus-lighter" filter="url(#filter0_f_63_1924)">
                <circle cx="40.0956" cy="115.096" r="50.1951"
                    transform="rotate(103.946 40.0956 115.096)" fill="#0356EF" />
            </g>
            <g style="mix-blend-mode:plus-lighter" filter="url(#filter1_f_63_1924)">
                <circle cx="347.672" cy="764.672" r="67.9033"
                    transform="rotate(103.946 347.672 764.672)" fill="#EF0303" />
            </g>
        </g>
        <g filter="url(#filter2_f_63_1924)">
            <rect x="120" y="275" width="174" height="172" rx="86" fill="#045ABE"
                style="mix-blend-mode:lighten" />
        </g>
        <path
            d="M181.298 215.708C184.828 202.907 197.363 194.669 210.499 196.518L249.901 202.062C263.007 203.906 272.599 215.212 272.27 228.429L265.318 507.362C264.925 523.109 250.795 535.07 235.18 532.873L128.408 517.85C112.824 515.658 102.787 500.349 106.976 485.162L181.298 215.708Z"
            fill="#07A8F8" />
        <path
            d="M181.298 215.708C184.828 202.907 197.363 194.669 210.499 196.518L249.901 202.062C263.007 203.906 272.599 215.212 272.27 228.429L265.318 507.362C264.925 523.109 250.795 535.07 235.18 532.873L128.408 517.85C112.824 515.658 102.787 500.349 106.976 485.162L181.298 215.708Z"
            fill="#07A8F8" />
        <path
            d="M137.953 367.231L269.444 385.731L298.981 373.548C298.981 373.548 309.248 368.81 312.755 363.171C344.584 312.005 96.8283 286.724 98.0172 327.028C98.2138 333.694 101.859 340.156 108.194 345.336C119.647 354.701 137.953 367.231 137.953 367.231Z"
            fill="#07A8F8" />
        <path
            d="M137.953 367.231L269.444 385.731L298.981 373.548C298.981 373.548 309.248 368.81 312.755 363.171C344.584 312.005 96.8283 286.724 98.0172 327.028C98.2138 333.694 101.859 340.156 108.194 345.336C119.647 354.701 137.953 367.231 137.953 367.231Z"
            fill="#07A8F8" />
        <path
            d="M161.643 220.839L173.946 222.57L178.881 206.925C178.881 206.925 180.664 200.994 181.807 195.022C192.183 140.837 167.729 146.975 162.504 186.377C161.64 192.893 161.19 198.779 161.213 203.071C161.253 210.83 161.643 220.839 161.643 220.839Z"
            fill="#07A8F8" />
        <path
            d="M161.643 220.839L173.946 222.57L178.881 206.925C178.881 206.925 180.664 200.994 181.807 195.022C192.183 140.837 167.729 146.975 162.504 186.377C161.64 192.893 161.19 198.779 161.213 203.071C161.253 210.83 161.643 220.839 161.643 220.839Z"
            fill="#07A8F8" />
        <path
            d="M134.188 208.496C138.199 196.357 150.366 188.787 163.007 190.565L289.092 208.305C301.308 210.024 310.6 220.013 311.412 232.3L318.876 345.223C319.978 361.888 305.356 375.438 288.787 373.106L119.917 349.346C103.809 347.08 93.7554 330.868 98.8663 315.399L134.188 208.496Z"
            fill="#07A8F8" />
        <path
            d="M134.188 208.496C138.199 196.357 150.366 188.787 163.007 190.565L289.092 208.305C301.308 210.024 310.6 220.013 311.412 232.3L318.876 345.223C319.978 361.888 305.356 375.438 288.787 373.106L119.917 349.346C103.809 347.08 93.7554 330.868 98.8663 315.399L134.188 208.496Z"
            fill="#07A8F8" />
        <path
            d="M146.918 224.277C150.861 212.037 163.084 204.37 175.799 206.159L274.515 220.048C286.973 221.801 296.353 232.14 296.87 244.689L300.119 323.563C300.796 339.989 286.302 353.094 269.995 350.799L143.864 333.053C127.835 330.797 117.782 314.722 122.753 299.293L146.918 224.277Z"
            fill="#07A8F8" />
        <path
            d="M146.918 224.277C150.861 212.037 163.084 204.37 175.799 206.159L274.515 220.048C286.973 221.801 296.353 232.14 296.87 244.689L300.119 323.563C300.796 339.989 286.302 353.094 269.995 350.799L143.864 333.053C127.835 330.797 117.782 314.722 122.753 299.293L146.918 224.277Z"
            fill="#07A8F8" />
        <path
            d="M246.377 393.076C246.766 391.608 248.191 390.663 249.695 390.874L317.546 400.421C319.06 400.634 320.171 401.951 320.127 403.479L318.235 468.548C318.183 470.335 316.588 471.68 314.818 471.431L232.152 459.8C230.371 459.55 229.209 457.799 229.67 456.06L246.377 393.076Z"
            fill="#07A8F8" />
        <path
            d="M181.298 217.708C184.828 204.907 197.363 196.669 210.499 198.518L249.901 204.062C263.007 205.906 272.599 217.212 272.27 230.429L265.318 509.362C264.925 525.109 250.795 537.07 235.18 534.873L128.408 519.85C112.824 517.658 102.787 502.349 106.976 487.162L181.298 217.708Z"
            fill="url(#paint3_linear_63_1924)" />
        <path
            d="M181.298 217.708C184.828 204.907 197.363 196.669 210.499 198.518L249.901 204.062C263.007 205.906 272.599 217.212 272.27 230.429L265.318 509.362C264.925 525.109 250.795 537.07 235.18 534.873L128.408 519.85C112.824 517.658 102.787 502.349 106.976 487.162L181.298 217.708Z"
            fill="url(#paint4_linear_63_1924)" />
        <path
            d="M137.953 369.231L269.444 387.731L298.981 375.548C298.981 375.548 309.248 370.81 312.755 365.171C344.584 314.005 96.8283 288.724 98.0172 329.028C98.2138 335.694 101.859 342.156 108.194 347.336C119.647 356.701 137.953 369.231 137.953 369.231Z"
            fill="url(#paint5_linear_63_1924)" />
        <path
            d="M137.953 369.231L269.444 387.731L298.981 375.548C298.981 375.548 309.248 370.81 312.755 365.171C344.584 314.005 96.8283 288.724 98.0172 329.028C98.2138 335.694 101.859 342.156 108.194 347.336C119.647 356.701 137.953 369.231 137.953 369.231Z"
            fill="url(#paint6_linear_63_1924)" />
        <path
            d="M161.643 222.839L173.946 224.57L178.881 208.925C178.881 208.925 180.664 202.994 181.807 197.022C192.183 142.837 167.729 148.975 162.504 188.377C161.64 194.893 161.19 200.779 161.213 205.071C161.253 212.83 161.643 222.839 161.643 222.839Z"
            fill="url(#paint7_linear_63_1924)" />
        <path
            d="M161.643 222.839L173.946 224.57L178.881 208.925C178.881 208.925 180.664 202.994 181.807 197.022C192.183 142.837 167.729 148.975 162.504 188.377C161.64 194.893 161.19 200.779 161.213 205.071C161.253 212.83 161.643 222.839 161.643 222.839Z"
            fill="url(#paint8_linear_63_1924)" />
        <path
            d="M134.188 210.496C138.199 198.357 150.366 190.787 163.007 192.565L289.092 210.305C301.308 212.024 310.6 222.013 311.412 234.3L318.876 347.223C319.978 363.888 305.356 377.438 288.787 375.106L119.917 351.346C103.809 349.08 93.7554 332.868 98.8663 317.399L134.188 210.496Z"
            fill="url(#paint9_linear_63_1924)" />
        <path
            d="M134.188 210.496C138.199 198.357 150.366 190.787 163.007 192.565L289.092 210.305C301.308 212.024 310.6 222.013 311.412 234.3L318.876 347.223C319.978 363.888 305.356 377.438 288.787 375.106L119.917 351.346C103.809 349.08 93.7554 332.868 98.8663 317.399L134.188 210.496Z"
            fill="url(#paint10_linear_63_1924)" />
        <path
            d="M134.188 210.496C138.199 198.357 150.366 190.787 163.007 192.565L289.092 210.305C301.308 212.024 310.6 222.013 311.412 234.3L318.876 347.223C319.978 363.888 305.356 377.438 288.787 375.106L119.917 351.346C103.809 349.08 93.7554 332.868 98.8663 317.399L134.188 210.496Z"
            fill="url(#paint11_linear_63_1924)" />
        <path
            d="M146.918 226.277C150.861 214.037 163.084 206.37 175.799 208.159L274.515 222.048C286.973 223.801 296.353 234.14 296.87 246.689L300.119 325.563C300.796 341.989 286.302 355.094 269.995 352.799L143.864 335.053C127.835 332.797 117.782 316.722 122.753 301.293L146.918 226.277Z"
            fill="url(#paint12_linear_63_1924)" />
        <path
            d="M146.918 226.277C150.861 214.037 163.084 206.37 175.799 208.159L274.515 222.048C286.973 223.801 296.353 234.14 296.87 246.689L300.119 325.563C300.796 341.989 286.302 355.094 269.995 352.799L143.864 335.053C127.835 332.797 117.782 316.722 122.753 301.293L146.918 226.277Z"
            fill="url(#paint13_linear_63_1924)" />
        <path
            d="M248.466 380.572C248.831 379.073 250.272 378.096 251.799 378.311L319.545 387.842C321.08 388.058 322.198 389.409 322.123 390.957L318.295 470.613C318.21 472.377 316.628 473.686 314.88 473.44L232.084 461.791C230.327 461.543 229.167 459.834 229.587 458.11L248.466 380.572Z"
            fill="url(#paint14_linear_63_1924)" />
        <path
            d="M272.54 418.131C273.696 413.642 278.039 410.737 282.629 411.383L284.127 411.594C288.745 412.244 292.127 416.278 291.959 420.939V420.939C291.766 426.339 286.94 430.384 281.589 429.631L280.091 429.42C274.71 428.663 271.185 423.393 272.54 418.131V418.131Z"
            fill="#D9CDCA" />
        <path
            d="M255.042 393.504C256.067 389.378 260.048 386.693 264.259 387.286V387.286C268.493 387.881 271.586 391.597 271.399 395.87V395.87C271.185 400.764 266.797 404.409 261.945 403.726V403.726C257.069 403.04 253.855 398.284 255.042 393.504V393.504Z"
            fill="#D9CDCA" />
        <path
            d="M299.219 400.502C300.244 396.376 304.225 393.691 308.436 394.284V394.284C312.671 394.879 315.764 398.595 315.577 402.868V402.868C315.362 407.762 310.974 411.407 306.123 410.724V410.724C301.247 410.038 298.032 405.282 299.219 400.502V400.502Z"
            fill="#D9CDCA" />
        <rect width="19.2336" height="40.9788" rx="9.6168"
            transform="matrix(-0.739923 0.672691 0.672691 0.739923 315.231 417)" fill="#07A8F8" />
        <rect width="19.2336" height="40.9788" rx="9.6168"
            transform="matrix(-0.780477 -0.625185 -0.625185 0.780477 341.631 450.309)"
            fill="#07A8F8" />
        <rect width="19.2336" height="23.9532" rx="9.6168"
            transform="matrix(-0.998935 -0.0461494 -0.0461494 0.998935 245.182 444.625)"
            fill="#07A8F8" />
        <path
            d="M300.15 447.491C298.551 444.804 295.855 442.959 292.815 442.472L256.625 436.671C254.112 436.268 251.566 436.826 249.487 438.235L229.562 451.741C223.841 455.619 223.785 464.087 229.623 468.1C240.851 475.817 257.534 486.306 267.716 488.17C278.52 490.147 295.918 484.938 307.047 480.93C312.724 478.885 314.801 472.12 311.632 466.793L300.15 447.491Z"
            fill="#07A8F8" />
        <path
            d="M295.975 466.178C294.545 464.903 292.804 464.045 290.944 463.701L251.419 456.382C249.882 456.097 248.31 456.172 246.825 456.6L242.28 457.909C233.375 460.475 232.715 472.644 241.417 476.267C250.964 480.243 261.256 484.089 268.211 485.46C275.58 486.912 285.693 486.859 294.738 486.341C303.314 485.849 306.312 475.396 299.775 469.566L295.975 466.178Z"
            fill="#07A8F8" />
        <rect width="19.2336" height="23.9532" rx="9.6168"
            transform="matrix(-0.800488 0.599349 0.599349 0.800488 249.845 449.465)" fill="#07A8F8" />
        <rect width="19.2336" height="23.9532" rx="9.6168"
            transform="matrix(-0.993657 -0.112451 -0.112451 0.993657 309.37 464.891)" fill="#07A8F8" />
        <rect width="19.2336" height="23.9532" rx="9.6168"
            transform="matrix(-0.999806 -0.0197008 -0.0197008 0.999806 269.986 456.946)"
            fill="#07A8F8" />
        <rect width="19.2336" height="23.9532" rx="9.6168"
            transform="matrix(-0.960603 -0.277923 -0.277923 0.960603 289.294 462.191)"
            fill="#07A8F8" />
        <rect width="19.2336" height="35.2417" rx="9.6168"
            transform="matrix(-0.766034 0.6428 0.6428 0.766034 238.255 437.129)" fill="#07A8F8" />
        <rect width="19.2336" height="23.9532" rx="9.6168"
            transform="matrix(-0.975874 0.218336 0.218336 0.975874 240.438 434.62)" fill="#07A8F8" />
        <rect width="19.2336" height="25.5468" rx="9.6168"
            transform="matrix(-0.99124 -0.132073 -0.132073 0.99124 272.382 451.749)" fill="#07A8F8" />
        <rect width="19.2336" height="38.7913" rx="9.6168"
            transform="matrix(-0.956692 -0.291102 -0.291102 0.956692 251.693 418.599)"
            fill="#07A8F8" />
        <rect width="19.2336" height="23.9532" rx="9.6168"
            transform="matrix(-0.968673 -0.248341 -0.248341 0.968673 273.856 442.642)"
            fill="#07A8F8" />
        <rect width="19.2336" height="47.7253" rx="9.6168"
            transform="matrix(-0.999918 -0.0128446 -0.0128446 0.999918 272.491 411.226)"
            fill="#07A8F8" />
        <rect width="19.2336" height="46.2875" rx="9.6168"
            transform="matrix(-0.911858 -0.410506 -0.410506 0.911858 301.612 440.728)"
            fill="#07A8F8" />
        <rect width="19.2336" height="40.9788" rx="9.6168"
            transform="matrix(-0.760424 -0.649427 -0.649427 0.760424 324.538 457.817)"
            fill="#07A8F8" />
        <rect width="19.2336" height="23.9532" rx="9.6168"
            transform="matrix(-0.943425 0.331586 0.331586 0.943425 316.462 439.875)" fill="#07A8F8" />
        <rect width="19.2336" height="42.484" rx="9.6168"
            transform="matrix(-0.957571 0.288196 0.288196 0.957571 312.862 417.22)" fill="#07A8F8" />
        <rect width="19.2336" height="23.9532" rx="9.6168"
            transform="matrix(-0.960603 -0.277923 -0.277923 0.960603 301.057 438.992)"
            fill="#07A8F8" />
        <rect width="19.2336" height="51.4764" rx="9.6168"
            transform="matrix(-0.99343 0.11444 0.11444 0.99343 293.108 405)" fill="#07A8F8" />
        <rect x="-160" y="492" width="713" height="75" fill="url(#paint15_linear_63_1924)" />
        <rect x="143.147" y="490.879" width="19.2336" height="40.9788" rx="9.6168"
            transform="rotate(166.696 143.147 490.879)" fill="#07A8F8" />
        <rect x="59.8579" y="485.47" width="19.2336" height="23.9532" rx="9.6168"
            transform="rotate(-179.748 59.8579 485.47)" fill="#07A8F8" />
        <path
            d="M114.9 485.386C113.168 487.989 110.382 489.695 107.321 490.028L70.8843 493.993C68.3542 494.268 65.8394 493.582 63.834 492.069L44.6177 477.574C39.0995 473.411 39.4721 464.951 45.5054 461.239C57.1089 454.099 74.3012 444.466 84.5636 443.12C95.4538 441.691 112.567 447.773 123.479 452.339C129.045 454.667 130.778 461.529 127.344 466.689L114.9 485.386Z"
            fill="#07A8F8" />
        <path
            d="M111.675 466.512C110.183 467.713 108.4 468.482 106.526 468.731L66.6808 474.043C65.1316 474.25 63.5657 474.096 62.104 473.593L57.6306 472.056C48.867 469.043 48.8233 456.857 57.6974 453.678C67.4332 450.19 77.9061 446.869 84.9216 445.852C92.3544 444.774 102.452 445.337 111.459 446.312C119.999 447.237 122.465 457.828 115.641 463.32L111.675 466.512Z"
            fill="#07A8F8" />
        <rect x="64.7598" y="480.871" width="19.2336" height="23.9532" rx="9.6168"
            transform="rotate(-140.279 64.7598 480.871)" fill="#07A8F8" />
        <rect x="124.988" y="468.474" width="19.2336" height="23.9532" rx="9.6168"
            transform="rotate(176.441 124.988 468.474)" fill="#07A8F8" />
        <rect x="85.2531" y="474.418" width="19.2336" height="23.9532" rx="9.6168"
            transform="rotate(-178.231 85.2531 474.418)" fill="#07A8F8" />
        <rect x="104.802" y="470.155" width="19.2336" height="23.9532" rx="9.6168"
            transform="rotate(166.761 104.802 470.155)" fill="#07A8F8" />
        <rect x="52.5602" y="492.606" width="19.2336" height="35.2417" rx="9.6168"
            transform="rotate(-137.102 52.5602 492.606)" fill="#07A8F8" />
        <rect x="54.6141" y="495.223" width="19.2336" height="23.9532" rx="9.6168"
            transform="rotate(-164.491 54.6141 495.223)" fill="#07A8F8" />
        <rect x="87.3827" y="479.73" width="19.2336" height="25.5468" rx="9.6168"
            transform="rotate(175.308 87.3827 479.73)" fill="#07A8F8" />
        <rect x="65.2875" y="511.252" width="19.2336" height="38.7913" rx="9.6168"
            transform="rotate(163.808 65.2875 511.252)" fill="#07A8F8" />
        <rect x="88.395" y="488.9" width="19.2336" height="23.9532" rx="9.6168"
            transform="rotate(168.518 88.395 488.9)" fill="#07A8F8" />
        <rect x="85.4438" y="520.206" width="19.2336" height="47.7253" rx="9.6168"
            transform="rotate(-177.839 85.4438 520.206)" fill="#07A8F8" />
        <rect x="116.019" y="492.214" width="19.2336" height="46.2875" rx="9.6168"
            transform="rotate(158.661 116.019 492.214)" fill="#07A8F8" />
        <rect x="139.779" y="476.306" width="19.2336" height="40.9788" rx="9.6168"
            transform="rotate(142.399 139.779 476.306)" fill="#07A8F8" />
        <rect x="130.806" y="493.817" width="19.2336" height="23.9532" rx="9.6168"
            transform="rotate(-157.737 130.806 493.817)" fill="#07A8F8" />
        <rect x="125.666" y="516.291" width="19.2336" height="42.484" rx="9.6168"
            transform="rotate(-159.365 125.666 516.291)" fill="#07A8F8" />
        <rect x="115.376" y="493.92" width="19.2336" height="23.9532" rx="9.6168"
            transform="rotate(166.761 115.376 493.92)" fill="#07A8F8" />
        <rect x="98.6831" y="528.924" width="19.2336" height="51.4764" rx="9.6168"
            transform="rotate(-159.808 98.6831 528.924)" fill="#07A8F8" />
        <rect width="19.2336" height="40.9788" rx="9.6168"
            transform="matrix(-0.739923 0.672691 0.672691 0.739923 316.526 418.525)"
            fill="url(#paint16_linear_63_1924)" />
        <rect width="19.2336" height="40.9788" rx="9.6168"
            transform="matrix(-0.739923 0.672691 0.672691 0.739923 316.526 418.525)"
            fill="url(#paint17_linear_63_1924)" />
        <rect width="19.2336" height="40.9788" rx="9.6168"
            transform="matrix(-0.780477 -0.625185 -0.625185 0.780477 341.631 452.309)"
            fill="url(#paint18_linear_63_1924)" />
        <rect width="19.2336" height="40.9788" rx="9.6168"
            transform="matrix(-0.780477 -0.625185 -0.625185 0.780477 341.631 452.309)"
            fill="url(#paint19_linear_63_1924)" />
        <rect width="19.2336" height="23.9532" rx="9.6168"
            transform="matrix(-0.998935 -0.0461494 -0.0461494 0.998935 245.182 446.625)"
            fill="#162435" />
        <path
            d="M300.15 449.491C298.551 446.804 295.855 444.959 292.815 444.472L256.625 438.671C254.112 438.268 251.566 438.826 249.486 440.235L229.562 453.741C223.84 457.619 223.785 466.087 229.623 470.1C240.851 477.817 257.534 488.306 267.715 490.17C278.519 492.147 295.918 486.938 307.047 482.93C312.724 480.885 314.801 474.12 311.632 468.793L300.15 449.491Z"
            fill="url(#paint20_linear_63_1924)" />
        <path
            d="M300.15 449.491C298.551 446.804 295.855 444.959 292.815 444.472L256.625 438.671C254.112 438.268 251.566 438.826 249.486 440.235L229.562 453.741C223.84 457.619 223.785 466.087 229.623 470.1C240.851 477.817 257.534 488.306 267.715 490.17C278.519 492.147 295.918 486.938 307.047 482.93C312.724 480.885 314.801 474.12 311.632 468.793L300.15 449.491Z"
            fill="url(#paint21_linear_63_1924)" />
        <path
            d="M295.975 468.178C294.545 466.903 292.804 466.045 290.944 465.701L251.419 458.382C249.882 458.097 248.31 458.172 246.825 458.6L242.279 459.909C233.375 462.475 232.715 474.644 241.417 478.267C250.964 482.243 261.256 486.089 268.211 487.46C275.58 488.912 285.693 488.859 294.737 488.341C303.314 487.849 306.312 477.396 299.774 471.566L295.975 468.178Z"
            fill="url(#paint22_linear_63_1924)" />
        <path
            d="M295.975 468.178C294.545 466.903 292.804 466.045 290.944 465.701L251.419 458.382C249.882 458.097 248.31 458.172 246.825 458.6L242.279 459.909C233.375 462.475 232.715 474.644 241.417 478.267C250.964 482.243 261.256 486.089 268.211 487.46C275.58 488.912 285.693 488.859 294.737 488.341C303.314 487.849 306.312 477.396 299.774 471.566L295.975 468.178Z"
            fill="url(#paint23_linear_63_1924)" />
        <path
            d="M295.975 468.178C294.545 466.903 292.804 466.045 290.944 465.701L251.419 458.382C249.882 458.097 248.31 458.172 246.825 458.6L242.279 459.909C233.375 462.475 232.715 474.644 241.417 478.267C250.964 482.243 261.256 486.089 268.211 487.46C275.58 488.912 285.693 488.859 294.737 488.341C303.314 487.849 306.312 477.396 299.774 471.566L295.975 468.178Z"
            fill="url(#paint24_linear_63_1924)" />
        <rect width="19.2336" height="23.9532" rx="9.6168"
            transform="matrix(-0.800488 0.599349 0.599349 0.800488 249.845 451.465)" fill="#162435" />
        <rect width="19.2336" height="23.9532" rx="9.6168"
            transform="matrix(-0.993657 -0.112451 -0.112451 0.993657 309.37 466.891)" fill="#162435" />
        <rect width="19.2336" height="23.9532" rx="9.6168"
            transform="matrix(-0.999806 -0.0197008 -0.0197008 0.999806 269.986 458.946)"
            fill="#162435" />
        <rect width="19.2336" height="23.9532" rx="9.6168"
            transform="matrix(-0.960603 -0.277923 -0.277923 0.960603 289.294 464.191)"
            fill="#162435" />
        <rect width="19.2336" height="35.2417" rx="9.6168"
            transform="matrix(-0.766034 0.6428 0.6428 0.766034 238.255 439.129)"
            fill="url(#paint25_linear_63_1924)" />
        <rect width="19.2336" height="35.2417" rx="9.6168"
            transform="matrix(-0.766034 0.6428 0.6428 0.766034 238.255 439.129)"
            fill="url(#paint26_linear_63_1924)" />
        <rect width="19.2336" height="23.9532" rx="9.6168"
            transform="matrix(-0.975874 0.218336 0.218336 0.975874 240.438 436.62)" fill="#162435" />
        <rect width="19.2336" height="25.5468" rx="9.6168"
            transform="matrix(-0.99124 -0.132073 -0.132073 0.99124 272.381 453.749)"
            fill="url(#paint27_linear_63_1924)" />
        <rect width="19.2336" height="25.5468" rx="9.6168"
            transform="matrix(-0.99124 -0.132073 -0.132073 0.99124 272.381 453.749)"
            fill="url(#paint28_linear_63_1924)" />
        <rect width="19.2336" height="38.7913" rx="9.6168"
            transform="matrix(-0.956692 -0.291102 -0.291102 0.956692 251.693 420.599)"
            fill="url(#paint29_linear_63_1924)" />
        <rect width="19.2336" height="38.7913" rx="9.6168"
            transform="matrix(-0.956692 -0.291102 -0.291102 0.956692 251.693 420.599)"
            fill="url(#paint30_linear_63_1924)" />
        <rect width="19.2336" height="23.9532" rx="9.6168"
            transform="matrix(-0.968673 -0.248341 -0.248341 0.968673 273.856 444.642)"
            fill="#162435" />
        <rect width="19.2336" height="47.7253" rx="9.6168"
            transform="matrix(-0.999918 -0.0128446 -0.0128446 0.999918 272.491 413.226)"
            fill="url(#paint31_linear_63_1924)" />
        <rect width="19.2336" height="47.7253" rx="9.6168"
            transform="matrix(-0.999918 -0.0128446 -0.0128446 0.999918 272.491 413.226)"
            fill="url(#paint32_linear_63_1924)" />
        <rect width="19.2336" height="46.2875" rx="9.6168"
            transform="matrix(-0.911858 -0.410506 -0.410506 0.911858 301.612 442.728)"
            fill="url(#paint33_linear_63_1924)" />
        <rect width="19.2336" height="40.9788" rx="9.6168"
            transform="matrix(-0.760424 -0.649427 -0.649427 0.760424 324.538 459.817)"
            fill="url(#paint34_linear_63_1924)" />
        <rect width="19.2336" height="40.9788" rx="9.6168"
            transform="matrix(-0.760424 -0.649427 -0.649427 0.760424 324.538 459.817)"
            fill="url(#paint35_linear_63_1924)" />
        <rect width="19.2336" height="23.9532" rx="9.6168"
            transform="matrix(-0.943425 0.331586 0.331586 0.943425 316.461 441.875)" fill="#162435" />
        <rect width="19.2336" height="42.484" rx="9.6168"
            transform="matrix(-0.957571 0.288196 0.288196 0.957571 312.862 419.22)"
            fill="url(#paint36_linear_63_1924)" />
        <rect width="19.2336" height="42.484" rx="9.6168"
            transform="matrix(-0.957571 0.288196 0.288196 0.957571 312.862 419.22)"
            fill="url(#paint37_linear_63_1924)" />
        <rect width="19.2336" height="23.9532" rx="9.6168"
            transform="matrix(-0.960603 -0.277923 -0.277923 0.960603 301.057 440.992)"
            fill="#162435" />
        <rect width="19.2336" height="51.4764" rx="9.6168"
            transform="matrix(-0.99343 0.11444 0.11444 0.99343 293.107 407)"
            fill="url(#paint38_linear_63_1924)" />
        <rect width="19.2336" height="51.4764" rx="9.6168"
            transform="matrix(-0.99343 0.11444 0.11444 0.99343 293.107 407)"
            fill="url(#paint39_linear_63_1924)" />
        <rect x="143.147" y="492.879" width="19.2336" height="40.9788" rx="9.6168"
            transform="rotate(166.696 143.147 492.879)" fill="url(#paint40_linear_63_1924)" />
        <rect x="59.8579" y="487.47" width="19.2336" height="23.9532" rx="9.6168"
            transform="rotate(-179.748 59.8579 487.47)" fill="#162435" />
        <path
            d="M114.9 487.386C113.168 489.989 110.382 491.695 107.321 492.028L70.8843 495.993C68.3542 496.268 65.8394 495.582 63.834 494.069L44.6177 479.574C39.0995 475.411 39.4721 466.951 45.5054 463.239C57.1089 456.099 74.3012 446.466 84.5636 445.12C95.4538 443.691 112.567 449.773 123.479 454.339C129.045 456.667 130.778 463.529 127.344 468.689L114.9 487.386Z"
            fill="url(#paint41_linear_63_1924)" />
        <path
            d="M114.9 487.386C113.168 489.989 110.382 491.695 107.321 492.028L70.8843 495.993C68.3542 496.268 65.8394 495.582 63.834 494.069L44.6177 479.574C39.0995 475.411 39.4721 466.951 45.5054 463.239C57.1089 456.099 74.3012 446.466 84.5636 445.12C95.4538 443.691 112.567 449.773 123.479 454.339C129.045 456.667 130.778 463.529 127.344 468.689L114.9 487.386Z"
            fill="url(#paint42_linear_63_1924)" />
        <path
            d="M111.675 468.512C110.183 469.713 108.4 470.482 106.526 470.731L66.6808 476.043C65.1316 476.25 63.5657 476.096 62.104 475.593L57.6306 474.056C48.867 471.043 48.8233 458.857 57.6974 455.678C67.4332 452.19 77.9061 448.869 84.9216 447.852C92.3544 446.774 102.452 447.337 111.459 448.312C119.999 449.237 122.465 459.828 115.641 465.32L111.675 468.512Z"
            fill="url(#paint43_linear_63_1924)" />
        <rect x="64.7598" y="482.871" width="19.2336" height="23.9532" rx="9.6168"
            transform="rotate(-140.279 64.7598 482.871)" fill="#162435" />
        <rect x="124.988" y="470.474" width="19.2336" height="23.9532" rx="9.6168"
            transform="rotate(176.441 124.988 470.474)" fill="#162435" />
        <rect x="85.2531" y="476.418" width="19.2336" height="23.9532" rx="9.6168"
            transform="rotate(-178.231 85.2531 476.418)" fill="#162435" />
        <rect x="104.802" y="472.155" width="19.2336" height="23.9532" rx="9.6168"
            transform="rotate(166.761 104.802 472.155)" fill="#162435" />
        <rect x="52.5602" y="494.606" width="19.2336" height="35.2417" rx="9.6168"
            transform="rotate(-137.102 52.5602 494.606)" fill="url(#paint44_linear_63_1924)" />
        <rect x="54.6141" y="497.223" width="19.2336" height="23.9532" rx="9.6168"
            transform="rotate(-164.491 54.6141 497.223)" fill="#162435" />
        <rect x="87.3827" y="481.73" width="19.2336" height="25.5468" rx="9.6168"
            transform="rotate(175.308 87.3827 481.73)" fill="url(#paint45_linear_63_1924)" />
        <rect x="65.2875" y="513.252" width="19.2336" height="38.7913" rx="9.6168"
            transform="rotate(163.808 65.2875 513.252)" fill="url(#paint46_linear_63_1924)" />
        <rect x="88.395" y="490.9" width="19.2336" height="23.9532" rx="9.6168"
            transform="rotate(168.518 88.395 490.9)" fill="#162435" />
        <rect x="85.4438" y="522.206" width="19.2336" height="47.7253" rx="9.6168"
            transform="rotate(-177.839 85.4438 522.206)" fill="url(#paint47_linear_63_1924)" />
        <rect x="116.019" y="494.214" width="19.2336" height="46.2875" rx="9.6168"
            transform="rotate(158.661 116.019 494.214)" fill="url(#paint48_linear_63_1924)" />
        <rect x="139.779" y="478.306" width="19.2336" height="40.9788" rx="9.6168"
            transform="rotate(142.399 139.779 478.306)" fill="url(#paint49_linear_63_1924)" />
        <rect x="130.806" y="495.817" width="19.2336" height="23.9532" rx="9.6168"
            transform="rotate(-157.737 130.806 495.817)" fill="#162435" />
        <rect x="125.666" y="518.291" width="19.2336" height="42.484" rx="9.6168"
            transform="rotate(-159.365 125.666 518.291)" fill="url(#paint50_linear_63_1924)" />
        <rect x="115.376" y="495.92" width="19.2336" height="23.9532" rx="9.6168"
            transform="rotate(166.761 115.376 495.92)" fill="#162435" />
        <rect x="98.6831" y="530.924" width="19.2336" height="51.4764" rx="9.6168"
            transform="rotate(-159.808 98.6831 530.924)" fill="url(#paint51_linear_63_1924)" />
        <rect x="203.56" y="269.362" width="19.4007" height="4.78335" rx="2.39168"
            transform="rotate(-144.798 203.56 269.362)" fill="#688DDD" />
        <rect width="19.4007" height="4.78335" rx="2.39168"
            transform="matrix(0.944468 -0.328604 -0.328604 -0.944468 220.463 270.731)"
            fill="#688DDD" />
        <rect width="8.27776" height="20.72" rx="4.13888"
            transform="matrix(-0.189733 0.981836 -0.991199 -0.132379 205.135 268.622)"
            fill="#688DDD" />
        <rect width="8.27776" height="19.2696" rx="4.13888"
            transform="matrix(-0.189733 0.981836 -0.991199 -0.132379 240.204 271.873)"
            fill="#688DDD" />
        <path
            d="M195.109 283.764C194.958 281.849 196.857 280.4 198.688 280.982C202.074 282.058 207.02 283.439 210.854 283.719C214.701 284.001 220.271 283.071 223.401 282.457C224.772 282.188 226.163 282.898 226.708 284.185V284.185C227.403 285.826 226.45 287.688 224.701 288.031C220.97 288.763 214.973 289.767 211.31 289.499C206.453 289.143 199.809 287.021 196.816 285.992C195.851 285.66 195.189 284.782 195.109 283.764V283.764Z"
            fill="#688DDD" />
    </g>
    <defs>
        <filter id="filter0_f_63_1924" x="-310.111" y="-235.111" width="700.414" height="700.414"
            filterUnits="userSpaceOnUse" color-interpolation-filters="sRGB">
            <feFlood flood-opacity="0" result="BackgroundImageFix" />
            <feBlend mode="normal" in="SourceGraphic" in2="BackgroundImageFix" result="shape" />
            <feGaussianBlur stdDeviation="150" result="effect1_foregroundBlur_63_1924" />
        </filter>
        <filter id="filter1_f_63_1924" x="-20.2469" y="396.753" width="735.839" height="735.839"
            filterUnits="userSpaceOnUse" color-interpolation-filters="sRGB">
            <feFlood flood-opacity="0" result="BackgroundImageFix" />
            <feBlend mode="normal" in="SourceGraphic" in2="BackgroundImageFix" result="shape" />
            <feGaussianBlur stdDeviation="150" result="effect1_foregroundBlur_63_1924" />
        </filter>
        <filter id="filter2_f_63_1924" x="1.09743" y="156.097" width="411.805" height="409.805"
            filterUnits="userSpaceOnUse" color-interpolation-filters="sRGB">
            <feFlood flood-opacity="0" result="BackgroundImageFix" />
            <feBlend mode="normal" in="SourceGraphic" in2="BackgroundImageFix" result="shape" />
            <feGaussianBlur stdDeviation="59.4513" result="effect1_foregroundBlur_63_1924" />
        </filter>
        <linearGradient id="paint0_linear_63_1924" x1="326.857" y1="596.537" x2="0.390997"
            y2="590.133" gradientUnits="userSpaceOnUse">
            <stop offset="0.513992" stop-color="#060D11" />
            <stop offset="1" stop-color="#0A171E" />
        </linearGradient>
        <linearGradient id="paint1_linear_63_1924" x1="163.429" y1="0" x2="163.429" y2="1206.6"
            gradientUnits="userSpaceOnUse">
            <stop stop-color="#0C1721" />
            <stop offset="1" stop-color="#080F16" />
        </linearGradient>
        <linearGradient id="paint2_linear_63_1924" x1="163.429" y1="0" x2="163.429" y2="1206.6"
            gradientUnits="userSpaceOnUse">
            <stop stop-color="#0C0F21" />
            <stop offset="1" stop-color="#080B16" />
        </linearGradient>
        <linearGradient id="paint3_linear_63_1924" x1="230.165" y1="201.285" x2="185.182"
            y2="520.997" gradientUnits="userSpaceOnUse">
            <stop stop-color="#0C1921" />
            <stop offset="1" stop-color="#081116" />
        </linearGradient>
        <linearGradient id="paint4_linear_63_1924" x1="231.11" y1="201.418" x2="185.183"
            y2="527.839" gradientUnits="userSpaceOnUse">
            <stop stop-color="#0C1321" />
            <stop offset="1" stop-color="#080E16" />
        </linearGradient>
        <linearGradient id="paint5_linear_63_1924" x1="203.532" y1="378.457" x2="208.303"
            y2="344.545" gradientUnits="userSpaceOnUse">
            <stop stop-color="#060F13" />
            <stop offset="1" stop-color="#060C10" />
        </linearGradient>
        <linearGradient id="paint6_linear_63_1924" x1="198.516" y1="403.851" x2="203.933"
            y2="362.708" gradientUnits="userSpaceOnUse">
            <stop stop-color="#0A0F1B" />
            <stop offset="1" stop-color="#080D16" />
        </linearGradient>
        <linearGradient id="paint7_linear_63_1924" x1="167.779" y1="223.702" x2="172.55" y2="189.79"
            gradientUnits="userSpaceOnUse">
            <stop stop-color="#060F13" />
            <stop offset="1" stop-color="#060C10" />
        </linearGradient>
        <linearGradient id="paint8_linear_63_1924" x1="162.418" y1="188.848" x2="182.692"
            y2="192.163" gradientUnits="userSpaceOnUse">
            <stop stop-color="#0C1921" />
            <stop offset="1" stop-color="#081116" />
        </linearGradient>
        <linearGradient id="paint9_linear_63_1924" x1="229.858" y1="201.971" x2="207.115"
            y2="363.615" gradientUnits="userSpaceOnUse">
            <stop stop-color="#0C1921" />
            <stop offset="1" stop-color="#081116" />
        </linearGradient>
        <linearGradient id="paint10_linear_63_1924" x1="229.858" y1="201.971" x2="207.115"
            y2="363.615" gradientUnits="userSpaceOnUse">
            <stop stop-color="#0C1321" />
            <stop offset="1" stop-color="#080E16" />
        </linearGradient>
        <linearGradient id="paint11_linear_63_1924" x1="313.774" y1="112.676" x2="281.359"
            y2="431.707" gradientUnits="userSpaceOnUse">
            <stop stop-color="#093F71" />
            <stop offset="0.445135" stop-color="#0C1721" />
            <stop offset="0.662055" stop-color="#080E16" />
            <stop offset="0.76069" stop-color="#080E16" />
            <stop offset="0.927608" stop-color="#602332" />
        </linearGradient>
        <linearGradient id="paint12_linear_63_1924" x1="226.657" y1="218.507" x2="208.97"
            y2="344.213" gradientUnits="userSpaceOnUse">
            <stop stop-color="#2A4B71" />
            <stop offset="1" stop-color="#151B29" />
        </linearGradient>
        <linearGradient id="paint13_linear_63_1924" x1="233.747" y1="221.341" x2="217.812"
            y2="334.599" gradientUnits="userSpaceOnUse">
            <stop stop-color="#205CA2" />
            <stop offset="1" stop-color="#14264C" />
        </linearGradient>
        <linearGradient id="paint14_linear_63_1924" x1="324.087" y1="431.608" x2="234.753"
            y2="419.039" gradientUnits="userSpaceOnUse">
            <stop stop-color="#F75C35" />
            <stop offset="1" stop-color="#E3094E" />
        </linearGradient>
        <linearGradient id="paint15_linear_63_1924" x1="194.366" y1="492" x2="194.366" y2="565.459"
            gradientUnits="userSpaceOnUse">
            <stop stop-color="#0C1321" />
            <stop offset="1" stop-color="#080D16" />
        </linearGradient>
        <linearGradient id="paint16_linear_63_1924" x1="9.66904" y1="2.16521e-07" x2="9.66904"
            y2="40.9788" gradientUnits="userSpaceOnUse">
            <stop stop-color="#0C1321" />
            <stop offset="1" stop-color="#080E16" />
        </linearGradient>
        <linearGradient id="paint17_linear_63_1924" x1="15.3983" y1="-25.1331" x2="24.767"
            y2="54.3519" gradientUnits="userSpaceOnUse">
            <stop stop-color="#093F71" />
            <stop offset="0.445135" stop-color="#0C1721" />
            <stop offset="0.662055" stop-color="#080E16" />
            <stop offset="0.76069" stop-color="#080E16" />
            <stop offset="0.927608" stop-color="#602332" />
        </linearGradient>
        <linearGradient id="paint18_linear_63_1924" x1="9.66904" y1="2.16521e-07" x2="9.66904"
            y2="40.9788" gradientUnits="userSpaceOnUse">
            <stop stop-color="#0C1321" />
            <stop offset="1" stop-color="#080E16" />
        </linearGradient>
        <linearGradient id="paint19_linear_63_1924" x1="15.3982" y1="-25.1331" x2="24.767"
            y2="54.3519" gradientUnits="userSpaceOnUse">
            <stop stop-color="#093F71" />
            <stop offset="0.445135" stop-color="#0C1721" />
            <stop offset="0.662055" stop-color="#080E16" />
            <stop offset="0.76069" stop-color="#080E16" />
            <stop offset="0.927608" stop-color="#602332" />
        </linearGradient>
        <linearGradient id="paint20_linear_63_1924" x1="275.784" y1="444.72" x2="266.2" y2="489.851"
            gradientUnits="userSpaceOnUse">
            <stop stop-color="#0C1721" />
            <stop offset="1" stop-color="#080E16" />
        </linearGradient>
        <linearGradient id="paint21_linear_63_1924" x1="249.019" y1="403.464" x2="225.913"
            y2="499.266" gradientUnits="userSpaceOnUse">
            <stop stop-color="#093F71" />
            <stop offset="0.445135" stop-color="#0C1721" />
            <stop offset="0.662055" stop-color="#080E16" />
            <stop offset="0.76069" stop-color="#080E16" />
            <stop offset="0.927608" stop-color="#602332" />
        </linearGradient>
        <linearGradient id="paint22_linear_63_1924" x1="272.298" y1="463.804" x2="267.315"
            y2="487.271" gradientUnits="userSpaceOnUse">
            <stop stop-color="#0C1721" />
            <stop offset="1" stop-color="#080E16" />
        </linearGradient>
        <linearGradient id="paint23_linear_63_1924" x1="242.53" y1="438.985" x2="231.164"
            y2="488.986" gradientUnits="userSpaceOnUse">
            <stop stop-color="#093F71" />
            <stop offset="0.445135" stop-color="#0C1721" />
            <stop offset="0.662055" stop-color="#080E16" />
            <stop offset="0.76069" stop-color="#080E16" />
            <stop offset="0.927608" stop-color="#602332" />
        </linearGradient>
        <linearGradient id="paint24_linear_63_1924" x1="242.53" y1="438.985" x2="231.164"
            y2="488.986" gradientUnits="userSpaceOnUse">
            <stop stop-color="#093F71" />
            <stop offset="0.445135" stop-color="#0C1721" />
            <stop offset="0.662055" stop-color="#080E16" />
            <stop offset="0.76069" stop-color="#080E16" />
            <stop offset="0.927608" stop-color="#602332" />
        </linearGradient>
        <linearGradient id="paint25_linear_63_1924" x1="9.66904" y1="1.86208e-07" x2="9.66904"
            y2="35.2417" gradientUnits="userSpaceOnUse">
            <stop stop-color="#0C1321" />
            <stop offset="1" stop-color="#080E16" />
        </linearGradient>
        <linearGradient id="paint26_linear_63_1924" x1="15.3983" y1="-21.6144" x2="22.3521"
            y2="46.9873" gradientUnits="userSpaceOnUse">
            <stop stop-color="#093F71" />
            <stop offset="0.445135" stop-color="#0C1721" />
            <stop offset="0.662055" stop-color="#080E16" />
            <stop offset="0.76069" stop-color="#080E16" />
            <stop offset="0.927608" stop-color="#602332" />
        </linearGradient>
        <linearGradient id="paint27_linear_63_1924" x1="9.66904" y1="1.34983e-07" x2="9.66904"
            y2="25.5468" gradientUnits="userSpaceOnUse">
            <stop stop-color="#0C1321" />
            <stop offset="1" stop-color="#080E16" />
        </linearGradient>
        <linearGradient id="paint28_linear_63_1924" x1="15.3983" y1="-15.6683" x2="19.0701"
            y2="34.3024" gradientUnits="userSpaceOnUse">
            <stop stop-color="#093F71" />
            <stop offset="0.445135" stop-color="#0C1721" />
            <stop offset="0.662055" stop-color="#080E16" />
            <stop offset="0.76069" stop-color="#080E16" />
            <stop offset="0.927608" stop-color="#602332" />
        </linearGradient>
        <linearGradient id="paint29_linear_63_1924" x1="9.66904" y1="2.04963e-07" x2="9.66904"
            y2="38.7913" gradientUnits="userSpaceOnUse">
            <stop stop-color="#0C1321" />
            <stop offset="1" stop-color="#080E16" />
        </linearGradient>
        <linearGradient id="paint30_linear_63_1924" x1="15.3983" y1="-23.7914" x2="23.8054"
            y2="51.5577" gradientUnits="userSpaceOnUse">
            <stop stop-color="#093F71" />
            <stop offset="0.445135" stop-color="#0C1721" />
            <stop offset="0.662055" stop-color="#080E16" />
            <stop offset="0.76069" stop-color="#080E16" />
            <stop offset="0.927608" stop-color="#602332" />
        </linearGradient>
        <linearGradient id="paint31_linear_63_1924" x1="9.66904" y1="2.52168e-07" x2="9.66904"
            y2="47.7253" gradientUnits="userSpaceOnUse">
            <stop stop-color="#0C1321" />
            <stop offset="1" stop-color="#080E16" />
        </linearGradient>
        <linearGradient id="paint32_linear_63_1924" x1="15.3983" y1="-29.2708" x2="28.044"
            y2="62.8501" gradientUnits="userSpaceOnUse">
            <stop stop-color="#093F71" />
            <stop offset="0.445135" stop-color="#0C1721" />
            <stop offset="0.662055" stop-color="#080E16" />
            <stop offset="0.76069" stop-color="#080E16" />
            <stop offset="0.927608" stop-color="#602332" />
        </linearGradient>
        <linearGradient id="paint33_linear_63_1924" x1="15.3982" y1="-28.389" x2="27.3066"
            y2="61.0548" gradientUnits="userSpaceOnUse">
            <stop stop-color="#093F71" />
            <stop offset="0.445135" stop-color="#0C1721" />
            <stop offset="0.662055" stop-color="#080E16" />
            <stop offset="0.76069" stop-color="#080E16" />
            <stop offset="0.927608" stop-color="#602332" />
        </linearGradient>
        <linearGradient id="paint34_linear_63_1924" x1="9.66904" y1="2.16521e-07" x2="9.66904"
            y2="40.9788" gradientUnits="userSpaceOnUse">
            <stop stop-color="#0C1321" />
            <stop offset="1" stop-color="#080E16" />
        </linearGradient>
        <linearGradient id="paint35_linear_63_1924" x1="15.3982" y1="-25.1331" x2="24.767"
            y2="54.3519" gradientUnits="userSpaceOnUse">
            <stop stop-color="#093F71" />
            <stop offset="0.445135" stop-color="#0C1721" />
            <stop offset="0.662055" stop-color="#080E16" />
            <stop offset="0.76069" stop-color="#080E16" />
            <stop offset="0.927608" stop-color="#602332" />
        </linearGradient>
        <linearGradient id="paint36_linear_63_1924" x1="9.66904" y1="2.24474e-07" x2="9.66904"
            y2="42.484" gradientUnits="userSpaceOnUse">
            <stop stop-color="#0C1321" />
            <stop offset="1" stop-color="#080E16" />
        </linearGradient>
        <linearGradient id="paint37_linear_63_1924" x1="15.3983" y1="-26.0562" x2="25.4576"
            y2="56.2639" gradientUnits="userSpaceOnUse">
            <stop stop-color="#093F71" />
            <stop offset="0.445135" stop-color="#0C1721" />
            <stop offset="0.662055" stop-color="#080E16" />
            <stop offset="0.76069" stop-color="#080E16" />
            <stop offset="0.927608" stop-color="#602332" />
        </linearGradient>
        <linearGradient id="paint38_linear_63_1924" x1="9.66904" y1="2.71988e-07" x2="9.66904"
            y2="51.4764" gradientUnits="userSpaceOnUse">
            <stop stop-color="#0C1321" />
            <stop offset="1" stop-color="#080E16" />
        </linearGradient>
        <linearGradient id="paint39_linear_63_1924" x1="15.3983" y1="-31.5714" x2="30.0656"
            y2="67.4907" gradientUnits="userSpaceOnUse">
            <stop stop-color="#093F71" />
            <stop offset="0.445135" stop-color="#0C1721" />
            <stop offset="0.662055" stop-color="#080E16" />
            <stop offset="0.76069" stop-color="#080E16" />
            <stop offset="0.927608" stop-color="#602332" />
        </linearGradient>
        <linearGradient id="paint40_linear_63_1924" x1="152.816" y1="492.879" x2="152.816"
            y2="533.858" gradientUnits="userSpaceOnUse">
            <stop stop-color="#0C1321" />
            <stop offset="1" stop-color="#080E16" />
        </linearGradient>
        <linearGradient id="paint41_linear_63_1924" x1="90.3251" y1="490.919" x2="83.034"
            y2="445.362" gradientUnits="userSpaceOnUse">
            <stop stop-color="#0C1721" />
            <stop offset="1" stop-color="#080E16" />
        </linearGradient>
        <linearGradient id="paint42_linear_63_1924" x1="61.5085" y1="530.77" x2="43.275"
            y2="433.922" gradientUnits="userSpaceOnUse">
            <stop stop-color="#093F71" />
            <stop offset="0.445135" stop-color="#0C1721" />
            <stop offset="0.662055" stop-color="#080E16" />
            <stop offset="0.76069" stop-color="#080E16" />
            <stop offset="0.927608" stop-color="#602332" />
        </linearGradient>
        <linearGradient id="paint43_linear_63_1924" x1="87.8079" y1="471.684" x2="84.0168"
            y2="447.995" gradientUnits="userSpaceOnUse">
            <stop stop-color="#0C1721" />
            <stop offset="1" stop-color="#080E16" />
        </linearGradient>
        <linearGradient id="paint44_linear_63_1924" x1="67.9584" y1="472.992" x2="74.9123"
            y2="541.593" gradientUnits="userSpaceOnUse">
            <stop stop-color="#093F71" />
            <stop offset="0.445135" stop-color="#0C1721" />
            <stop offset="0.662055" stop-color="#080E16" />
            <stop offset="0.76069" stop-color="#080E16" />
            <stop offset="0.927608" stop-color="#602332" />
        </linearGradient>
        <linearGradient id="paint45_linear_63_1924" x1="102.781" y1="466.062" x2="106.453"
            y2="516.033" gradientUnits="userSpaceOnUse">
            <stop stop-color="#093F71" />
            <stop offset="0.445135" stop-color="#0C1721" />
            <stop offset="0.662055" stop-color="#080E16" />
            <stop offset="0.76069" stop-color="#080E16" />
            <stop offset="0.927608" stop-color="#602332" />
        </linearGradient>
        <linearGradient id="paint46_linear_63_1924" x1="80.6857" y1="489.461" x2="89.0929"
            y2="564.81" gradientUnits="userSpaceOnUse">
            <stop stop-color="#093F71" />
            <stop offset="0.445135" stop-color="#0C1721" />
            <stop offset="0.662055" stop-color="#080E16" />
            <stop offset="0.76069" stop-color="#080E16" />
            <stop offset="0.927608" stop-color="#602332" />
        </linearGradient>
        <linearGradient id="paint47_linear_63_1924" x1="100.842" y1="492.935" x2="113.488"
            y2="585.056" gradientUnits="userSpaceOnUse">
            <stop stop-color="#093F71" />
            <stop offset="0.445135" stop-color="#0C1721" />
            <stop offset="0.662055" stop-color="#080E16" />
            <stop offset="0.76069" stop-color="#080E16" />
            <stop offset="0.927608" stop-color="#602332" />
        </linearGradient>
        <linearGradient id="paint48_linear_63_1924" x1="131.417" y1="465.825" x2="143.325"
            y2="555.269" gradientUnits="userSpaceOnUse">
            <stop stop-color="#093F71" />
            <stop offset="0.445135" stop-color="#0C1721" />
            <stop offset="0.662055" stop-color="#080E16" />
            <stop offset="0.76069" stop-color="#080E16" />
            <stop offset="0.927608" stop-color="#602332" />
        </linearGradient>
        <linearGradient id="paint49_linear_63_1924" x1="155.178" y1="453.173" x2="164.546"
            y2="532.658" gradientUnits="userSpaceOnUse">
            <stop stop-color="#093F71" />
            <stop offset="0.445135" stop-color="#0C1721" />
            <stop offset="0.662055" stop-color="#080E16" />
            <stop offset="0.76069" stop-color="#080E16" />
            <stop offset="0.927608" stop-color="#602332" />
        </linearGradient>
        <linearGradient id="paint50_linear_63_1924" x1="141.064" y1="492.235" x2="151.123"
            y2="574.555" gradientUnits="userSpaceOnUse">
            <stop stop-color="#093F71" />
            <stop offset="0.445135" stop-color="#0C1721" />
            <stop offset="0.662055" stop-color="#080E16" />
            <stop offset="0.76069" stop-color="#080E16" />
            <stop offset="0.927608" stop-color="#602332" />
        </linearGradient>
        <linearGradient id="paint51_linear_63_1924" x1="114.081" y1="499.352" x2="128.749"
            y2="598.415" gradientUnits="userSpaceOnUse">
            <stop stop-color="#093F71" />
            <stop offset="0.445135" stop-color="#0C1721" />
            <stop offset="0.662055" stop-color="#080E16" />
            <stop offset="0.76069" stop-color="#080E16" />
            <stop offset="0.927608" stop-color="#602332" />
        </linearGradient>
        <clipPath id="clip0_63_1924">
            <rect width="393" height="852" fill="white" />
        </clipPath>
        <clipPath id="clip1_63_1924">
            <rect width="543" height="1012" fill="white" transform="translate(-81 -108)" />
        </clipPath>
    </defs>
</svg>