<svg width="100%" height="100%" viewBox="0 0 393 852" fill="none" xmlns="http://www.w3.org/2000/svg">
    <g clip-path="url(#clip0_63_2098)">
        <rect width="393" height="852" fill="#081016" />
        <g clip-path="url(#clip1_63_2098)">
            <rect x="-164" y="37.9089" width="254.463" height="765.715" rx="36.313"
                transform="rotate(-29.1399 -164 37.9089)" fill="#070C12" />
            <rect x="171.89" y="-98.8517" width="20.8408" height="765.715" rx="10.4204"
                transform="rotate(-29.1399 171.89 -98.8517)" fill="url(#paint0_linear_63_2098)" />
            <g filter="url(#filter0_f_63_2098)">
                <rect x="77" y="356" width="224" height="220" rx="110" fill="#045ABE"
                    style="mix-blend-mode:lighten" />
            </g>
            <path
                d="M264.238 510.912C264.238 500.008 273.078 491.168 283.983 491.168H373.491C384.396 491.168 393.236 500.008 393.236 510.912V847.885C393.236 858.79 384.396 867.63 373.491 867.63H283.983C273.078 867.63 264.238 858.79 264.238 847.885V510.912Z"
                fill="url(#paint1_linear_63_2098)" />
            <g filter="url(#filter1_dd_63_2098)">
                <path
                    d="M192.967 358.258C198.352 358.258 197.275 339.56 202.308 338.41C212.855 336.001 220.58 331.21 228.683 324.64C244.256 312.013 254.197 292.814 254.197 271.313V268.624V253.165C231.505 249.999 216.54 248.362 192.967 248.362C175.987 248.362 152.8 249.999 130.108 253.165V268.624V271.313C130.108 292.814 140.049 312.013 155.622 324.64C163.725 331.21 173.354 336.001 183.901 338.41C188.934 339.56 187.582 358.258 192.967 358.258Z"
                    fill="url(#paint2_linear_63_2098)" />
                <path
                    d="M192.967 358.258C198.352 358.258 197.275 339.56 202.308 338.41C212.855 336.001 220.58 331.21 228.683 324.64M192.967 358.258C187.582 358.258 188.934 339.56 183.901 338.41C173.354 336.001 163.725 331.21 155.622 324.64M192.967 358.258C192.967 364.92 192.967 375.292 192.967 375.292C192.967 375.292 192.967 385.349 192.967 391.776M130.108 268.624C120.001 270.081 109.997 271.852 100.105 273.925C104.738 301.135 101.753 324.64 155.622 324.64M130.108 268.624V271.313C130.108 292.814 140.049 312.013 155.622 324.64M130.108 268.624V253.165C152.8 249.999 175.987 248.362 192.967 248.362C216.54 248.362 231.505 249.999 254.197 253.165V268.624M254.197 268.624V271.313C254.197 292.814 244.256 312.013 228.683 324.64M254.197 268.624C264.304 270.081 274.309 271.852 284.201 273.925C279.567 301.135 281.433 330.234 228.683 324.64M192.967 391.776C192.967 380.787 228.683 391.776 228.683 391.776M192.967 391.776C192.967 380.787 159.449 391.776 159.449 391.776"
                    stroke="url(#paint3_linear_63_2098)" stroke-width="13.1875"
                    stroke-linecap="round" stroke-linejoin="round" />
            </g>
            <path
                d="M104.966 408.241C104.966 397.336 113.806 388.496 124.71 388.496H258.973C269.878 388.496 278.718 397.336 278.718 408.241V842.62C278.718 853.525 269.878 862.365 258.973 862.365H124.71C113.806 862.365 104.966 853.525 104.966 842.62V408.241Z"
                fill="url(#paint4_linear_63_2098)" />
            <path
                d="M-12.1849 593.839C-12.1849 582.935 -3.34498 574.095 7.55962 574.095H99.7007C110.605 574.095 119.445 582.935 119.445 593.839V849.202C119.445 860.106 110.605 868.946 99.7007 868.946H7.55962C-3.34498 868.946 -12.1849 860.106 -12.1849 849.202V593.839Z"
                fill="url(#paint5_linear_63_2098)" />
            <g filter="url(#filter2_ddd_63_2098)">
                <path
                    d="M172.762 265.208V294.55H166.558V271.096H166.386L159.667 275.308V269.807L166.931 265.208H172.762ZM190.837 295.194C188.373 295.185 186.252 294.578 184.476 293.375C182.709 292.171 181.348 290.428 180.392 288.145C179.447 285.863 178.979 283.117 178.988 279.907C178.988 276.708 179.461 273.981 180.407 271.726C181.362 269.472 182.723 267.758 184.49 266.583C186.267 265.399 188.382 264.806 190.837 264.806C193.292 264.806 195.402 265.399 197.17 266.583C198.946 267.767 200.312 269.487 201.267 271.741C202.222 273.985 202.695 276.708 202.685 279.907C202.685 283.126 202.208 285.877 201.253 288.16C200.307 290.443 198.951 292.186 197.184 293.389C195.417 294.593 193.301 295.194 190.837 295.194ZM190.837 290.051C192.518 290.051 193.86 289.206 194.863 287.515C195.866 285.824 196.362 283.289 196.353 279.907C196.353 277.682 196.124 275.829 195.665 274.348C195.216 272.868 194.576 271.755 193.745 271.01C192.924 270.265 191.954 269.893 190.837 269.893C189.165 269.893 187.828 270.728 186.825 272.4C185.822 274.071 185.316 276.574 185.307 279.907C185.307 282.161 185.531 284.043 185.98 285.552C186.438 287.052 187.083 288.179 187.914 288.933C188.745 289.678 189.719 290.051 190.837 290.051ZM212.293 288.217L212.307 280.896H213.196L220.245 272.543H227.251L217.78 283.604H216.333L212.293 288.217ZM206.763 294.55V265.208H212.866V294.55H206.763ZM220.517 294.55L214.041 284.965L218.11 280.652L227.666 294.55H220.517Z"
                    fill="#F1C1AF" />
            </g>
            <g filter="url(#filter3_ddd_63_2098)">
                <path
                    d="M194.33 330.507V333.388H191.279V330.535C188.879 330.309 186.902 329.632 185.349 328.502V325.169C186.111 325.875 187.184 326.468 188.512 326.977C189.867 327.485 191.223 327.739 192.607 327.739C195.205 327.739 197.182 326.61 197.182 324.774C197.182 323.983 196.787 323.362 196.306 322.938C196.081 322.741 195.742 322.543 195.29 322.345C194.386 321.922 193.849 321.78 192.579 321.413L192.183 321.3C191.082 320.99 190.206 320.707 189.613 320.481C189.02 320.255 188.371 319.916 187.636 319.493C186.196 318.589 185.603 317.318 185.603 315.511C185.603 312.658 187.693 310.653 191.279 310.201V307.349H194.33V310.201C196.081 310.399 197.662 310.935 199.102 311.754V314.833C197.097 313.618 195.007 312.997 192.833 312.997C190.122 312.997 188.794 314.07 188.794 315.539C188.794 316.923 190.602 317.77 192.861 318.42C194.019 318.73 195.149 319.097 196.278 319.521C198.566 320.34 200.373 322.119 200.373 324.717C200.373 326.299 199.808 327.598 198.679 328.615C197.577 329.632 196.109 330.253 194.33 330.507Z"
                    fill="#F1C1AF" />
            </g>
            <g filter="url(#filter4_dddd_63_2098)">
                <path
                    d="M206.276 502.608H187.602V448.803L172.516 455.766V437.515L189.818 428.758H206.276V502.608Z"
                    fill="#EAB4C5" />
            </g>
            <rect x="-295" y="437.909" width="254.463" height="765.715" rx="36.313"
                transform="rotate(-29.1399 -295 437.909)" fill="url(#paint6_linear_63_2098)" />
            <rect x="-14.686" y="-281.386" width="326.857" height="1206.6" rx="36.313"
                transform="rotate(-29.1399 -14.686 -281.386)" fill="#060D11" />
            <rect x="-14.686" y="-281.386" width="326.857" height="1206.6" rx="36.313"
                transform="rotate(-29.1399 -14.686 -281.386)" fill="url(#paint7_linear_63_2098)" />
            <rect x="-14.686" y="-281.386" width="326.857" height="1206.6" rx="36.313"
                transform="rotate(-29.1399 -14.686 -281.386)" fill="url(#paint8_linear_63_2098)" />
            <g style="mix-blend-mode:plus-lighter" filter="url(#filter5_f_63_2098)">
                <circle cx="347.672" cy="764.672" r="67.9033"
                    transform="rotate(103.946 347.672 764.672)" fill="#EF0303" />
            </g>
            <g style="mix-blend-mode:plus-lighter" filter="url(#filter6_f_63_2098)">
                <circle cx="40.0956" cy="115.096" r="50.1951"
                    transform="rotate(103.946 40.0956 115.096)" fill="#0356EF" />
            </g>
        </g>

    </g>
    <defs>
        <filter id="filter0_f_63_2098" x="-54.6302" y="224.37" width="487.26" height="483.26"
            filterUnits="userSpaceOnUse" color-interpolation-filters="sRGB">
            <feFlood flood-opacity="0" result="BackgroundImageFix" />
            <feBlend mode="normal" in="SourceGraphic" in2="BackgroundImageFix" result="shape" />
            <feGaussianBlur stdDeviation="65.8151" result="effect1_foregroundBlur_63_2098" />
        </filter>
        <filter id="filter1_dd_63_2098" x="93.51" y="239.57" width="197.285" height="160.999"
            filterUnits="userSpaceOnUse" color-interpolation-filters="sRGB">
            <feFlood flood-opacity="0" result="BackgroundImageFix" />
            <feColorMatrix in="SourceAlpha" type="matrix"
                values="0 0 0 0 0 0 0 0 0 0 0 0 0 0 0 0 0 0 127 0" result="hardAlpha" />
            <feOffset dy="-2.19792" />
            <feComposite in2="hardAlpha" operator="out" />
            <feColorMatrix type="matrix"
                values="0 0 0 0 0.192157 0 0 0 0 0.262745 0 0 0 0 0.360784 0 0 0 1 0" />
            <feBlend mode="normal" in2="BackgroundImageFix" result="effect1_dropShadow_63_2098" />
            <feColorMatrix in="SourceAlpha" type="matrix"
                values="0 0 0 0 0 0 0 0 0 0 0 0 0 0 0 0 0 0 127 0" result="hardAlpha" />
            <feOffset dy="2.19792" />
            <feComposite in2="hardAlpha" operator="out" />
            <feColorMatrix type="matrix"
                values="0 0 0 0 0.0156863 0 0 0 0 0.635294 0 0 0 0 0.745098 0 0 0 1 0" />
            <feBlend mode="normal" in2="effect1_dropShadow_63_2098"
                result="effect2_dropShadow_63_2098" />
            <feBlend mode="normal" in="SourceGraphic" in2="effect2_dropShadow_63_2098"
                result="shape" />
        </filter>
        <filter id="filter2_ddd_63_2098" x="135.266" y="240.406" width="116.801" height="79.1897"
            filterUnits="userSpaceOnUse" color-interpolation-filters="sRGB">
            <feFlood flood-opacity="0" result="BackgroundImageFix" />
            <feColorMatrix in="SourceAlpha" type="matrix"
                values="0 0 0 0 0 0 0 0 0 0 0 0 0 0 0 0 0 0 127 0" result="hardAlpha" />
            <feOffset />
            <feGaussianBlur stdDeviation="0.871459" />
            <feColorMatrix type="matrix"
                values="0 0 0 0 0.913725 0 0 0 0 0.180392 0 0 0 0 0.219608 0 0 0 1 0" />
            <feBlend mode="normal" in2="BackgroundImageFix" result="effect1_dropShadow_63_2098" />
            <feColorMatrix in="SourceAlpha" type="matrix"
                values="0 0 0 0 0 0 0 0 0 0 0 0 0 0 0 0 0 0 127 0" result="hardAlpha" />
            <feOffset />
            <feGaussianBlur stdDeviation="1.74292" />
            <feColorMatrix type="matrix"
                values="0 0 0 0 0.913725 0 0 0 0 0.180392 0 0 0 0 0.219608 0 0 0 1 0" />
            <feBlend mode="normal" in2="effect1_dropShadow_63_2098"
                result="effect2_dropShadow_63_2098" />
            <feColorMatrix in="SourceAlpha" type="matrix"
                values="0 0 0 0 0 0 0 0 0 0 0 0 0 0 0 0 0 0 127 0" result="hardAlpha" />
            <feOffset />
            <feGaussianBlur stdDeviation="12.2004" />
            <feColorMatrix type="matrix"
                values="0 0 0 0 0.913725 0 0 0 0 0.180392 0 0 0 0 0.219608 0 0 0 1 0" />
            <feBlend mode="normal" in2="effect2_dropShadow_63_2098"
                result="effect3_dropShadow_63_2098" />
            <feBlend mode="normal" in="SourceGraphic" in2="effect3_dropShadow_63_2098"
                result="shape" />
        </filter>
        <filter id="filter3_ddd_63_2098" x="150.713" y="272.713" width="84.296" height="95.3102"
            filterUnits="userSpaceOnUse" color-interpolation-filters="sRGB">
            <feFlood flood-opacity="0" result="BackgroundImageFix" />
            <feColorMatrix in="SourceAlpha" type="matrix"
                values="0 0 0 0 0 0 0 0 0 0 0 0 0 0 0 0 0 0 127 0" result="hardAlpha" />
            <feOffset />
            <feGaussianBlur stdDeviation="1.23699" />
            <feColorMatrix type="matrix"
                values="0 0 0 0 0.913725 0 0 0 0 0.180392 0 0 0 0 0.219608 0 0 0 1 0" />
            <feBlend mode="normal" in2="BackgroundImageFix" result="effect1_dropShadow_63_2098" />
            <feColorMatrix in="SourceAlpha" type="matrix"
                values="0 0 0 0 0 0 0 0 0 0 0 0 0 0 0 0 0 0 127 0" result="hardAlpha" />
            <feOffset />
            <feGaussianBlur stdDeviation="2.47398" />
            <feColorMatrix type="matrix"
                values="0 0 0 0 0.913725 0 0 0 0 0.180392 0 0 0 0 0.219608 0 0 0 1 0" />
            <feBlend mode="normal" in2="effect1_dropShadow_63_2098"
                result="effect2_dropShadow_63_2098" />
            <feColorMatrix in="SourceAlpha" type="matrix"
                values="0 0 0 0 0 0 0 0 0 0 0 0 0 0 0 0 0 0 127 0" result="hardAlpha" />
            <feOffset />
            <feGaussianBlur stdDeviation="17.3178" />
            <feColorMatrix type="matrix"
                values="0 0 0 0 0.913725 0 0 0 0 0.180392 0 0 0 0 0.219608 0 0 0 1 0" />
            <feBlend mode="normal" in2="effect2_dropShadow_63_2098"
                result="effect3_dropShadow_63_2098" />
            <feBlend mode="normal" in="SourceGraphic" in2="effect3_dropShadow_63_2098"
                result="shape" />
        </filter>
        <filter id="filter4_dddd_63_2098" x="148.115" y="404.357" width="82.5617" height="122.652"
            filterUnits="userSpaceOnUse" color-interpolation-filters="sRGB">
            <feFlood flood-opacity="0" result="BackgroundImageFix" />
            <feColorMatrix in="SourceAlpha" type="matrix"
                values="0 0 0 0 0 0 0 0 0 0 0 0 0 0 0 0 0 0 127 0" result="hardAlpha" />
            <feOffset dy="2.19792" />
            <feComposite in2="hardAlpha" operator="out" />
            <feColorMatrix type="matrix" values="0 0 0 0 0 0 0 0 0 0 0 0 0 0 0 0 0 0 0.25 0" />
            <feBlend mode="normal" in2="BackgroundImageFix" result="effect1_dropShadow_63_2098" />
            <feColorMatrix in="SourceAlpha" type="matrix"
                values="0 0 0 0 0 0 0 0 0 0 0 0 0 0 0 0 0 0 127 0" result="hardAlpha" />
            <feOffset />
            <feGaussianBlur stdDeviation="0.871459" />
            <feColorMatrix type="matrix"
                values="0 0 0 0 0.913725 0 0 0 0 0.180392 0 0 0 0 0.219608 0 0 0 1 0" />
            <feBlend mode="normal" in2="effect1_dropShadow_63_2098"
                result="effect2_dropShadow_63_2098" />
            <feColorMatrix in="SourceAlpha" type="matrix"
                values="0 0 0 0 0 0 0 0 0 0 0 0 0 0 0 0 0 0 127 0" result="hardAlpha" />
            <feOffset />
            <feGaussianBlur stdDeviation="1.74292" />
            <feColorMatrix type="matrix"
                values="0 0 0 0 0.913725 0 0 0 0 0.180392 0 0 0 0 0.219608 0 0 0 1 0" />
            <feBlend mode="normal" in2="effect2_dropShadow_63_2098"
                result="effect3_dropShadow_63_2098" />
            <feColorMatrix in="SourceAlpha" type="matrix"
                values="0 0 0 0 0 0 0 0 0 0 0 0 0 0 0 0 0 0 127 0" result="hardAlpha" />
            <feOffset />
            <feGaussianBlur stdDeviation="12.2004" />
            <feColorMatrix type="matrix"
                values="0 0 0 0 0.913725 0 0 0 0 0.180392 0 0 0 0 0.219608 0 0 0 1 0" />
            <feBlend mode="normal" in2="effect3_dropShadow_63_2098"
                result="effect4_dropShadow_63_2098" />
            <feBlend mode="normal" in="SourceGraphic" in2="effect4_dropShadow_63_2098"
                result="shape" />
        </filter>
        <filter id="filter5_f_63_2098" x="-20.2469" y="396.753" width="735.839" height="735.839"
            filterUnits="userSpaceOnUse" color-interpolation-filters="sRGB">
            <feFlood flood-opacity="0" result="BackgroundImageFix" />
            <feBlend mode="normal" in="SourceGraphic" in2="BackgroundImageFix" result="shape" />
            <feGaussianBlur stdDeviation="150" result="effect1_foregroundBlur_63_2098" />
        </filter>
        <filter id="filter6_f_63_2098" x="-310.111" y="-235.111" width="700.414" height="700.414"
            filterUnits="userSpaceOnUse" color-interpolation-filters="sRGB">
            <feFlood flood-opacity="0" result="BackgroundImageFix" />
            <feBlend mode="normal" in="SourceGraphic" in2="BackgroundImageFix" result="shape" />
            <feGaussianBlur stdDeviation="150" result="effect1_foregroundBlur_63_2098" />
        </filter>
        <filter id="filter7_d_63_2098" x="50.6909" y="765" width="75.6036" height="37.06"
            filterUnits="userSpaceOnUse" color-interpolation-filters="sRGB">
            <feFlood flood-opacity="0" result="BackgroundImageFix" />
            <feColorMatrix in="SourceAlpha" type="matrix"
                values="0 0 0 0 0 0 0 0 0 0 0 0 0 0 0 0 0 0 127 0" result="hardAlpha" />
            <feOffset />
            <feGaussianBlur stdDeviation="5.1" />
            <feColorMatrix type="matrix"
                values="0 0 0 0 0.941176 0 0 0 0 0.203922 0 0 0 0 0.214641 0 0 0 0.25 0" />
            <feBlend mode="normal" in2="BackgroundImageFix" result="effect1_dropShadow_63_2098" />
            <feBlend mode="normal" in="SourceGraphic" in2="effect1_dropShadow_63_2098"
                result="shape" />
        </filter>
        <linearGradient id="paint0_linear_63_2098" x1="182.311" y1="-98.8517" x2="182.311"
            y2="666.864" gradientUnits="userSpaceOnUse">
            <stop stop-color="#0C1921" />
            <stop offset="1" stop-color="#081116" />
        </linearGradient>
        <linearGradient id="paint1_linear_63_2098" x1="328.737" y1="375.333" x2="328.737"
            y2="867.63" gradientUnits="userSpaceOnUse">
            <stop stop-color="#0B141E" />
            <stop offset="0.508437" stop-color="#080D16" />
            <stop offset="0.875" stop-color="#081116" />
        </linearGradient>
        <linearGradient id="paint2_linear_63_2098" x1="192.967" y1="248.362" x2="192.967"
            y2="447.274" gradientUnits="userSpaceOnUse">
            <stop stop-color="#181C2E" />
            <stop offset="0.1" stop-color="#0E111C" />
        </linearGradient>
        <linearGradient id="paint3_linear_63_2098" x1="192.967" y1="248.362" x2="192.967"
            y2="447.274" gradientUnits="userSpaceOnUse">
            <stop stop-color="#181F2E" />
            <stop offset="0.085" stop-color="#0E101C" />
        </linearGradient>
        <linearGradient id="paint4_linear_63_2098" x1="191.842" y1="388.496" x2="191.842"
            y2="862.365" gradientUnits="userSpaceOnUse">
            <stop offset="0.151629" stop-color="#0B111E" />
            <stop offset="0.508437" stop-color="#080D16" />
            <stop offset="0.875" stop-color="#081116" />
        </linearGradient>
        <linearGradient id="paint5_linear_63_2098" x1="58.772" y1="434.567" x2="50.3489"
            y2="868.883" gradientUnits="userSpaceOnUse">
            <stop stop-color="#0B121E" />
            <stop offset="0.508437" stop-color="#080D16" />
            <stop offset="0.875" stop-color="#081116" />
        </linearGradient>
        <linearGradient id="paint6_linear_63_2098" x1="-295" y1="965.913" x2="-47.5941" y2="971.807"
            gradientUnits="userSpaceOnUse">
            <stop offset="0.513992" stop-color="#060B11" />
            <stop offset="1" stop-color="#0A101E" />
        </linearGradient>
        <linearGradient id="paint7_linear_63_2098" x1="312.171" y1="315.151" x2="-14.295"
            y2="308.747" gradientUnits="userSpaceOnUse">
            <stop offset="0.513992" stop-color="#060D11" />
            <stop offset="1" stop-color="#0A171E" />
        </linearGradient>
        <linearGradient id="paint8_linear_63_2098" x1="148.743" y1="-281.386" x2="148.743"
            y2="925.214" gradientUnits="userSpaceOnUse">
            <stop stop-color="#0C1221" />
            <stop offset="1" stop-color="#080F16" />
        </linearGradient>
        <clipPath id="clip0_63_2098">
            <rect width="393" height="852" fill="white" />
        </clipPath>
        <clipPath id="clip1_63_2098">
            <rect width="497" height="976" fill="white" transform="translate(-53 -57)" />
        </clipPath>
    </defs>
</svg>