<svg width="100%" height="100%" viewBox="0 0 393 852" fill="none" xmlns="http://www.w3.org/2000/svg">
    <g clip-path="url(#clip0_63_25)">
        <rect width="393" height="852" fill="#080C16" />
        <rect x="-69.4177" y="-221" width="254.463" height="917.457" rx="36.313"
            transform="rotate(35.5623 -69.4177 -221)" fill="url(#paint0_linear_63_25)" />
        <rect x="435.671" y="-108.176" width="254.463" height="1084.1" rx="36.313"
            transform="rotate(35.5623 435.671 -108.176)" fill="url(#paint1_linear_63_25)" />
        <rect x="435.671" y="-108.176" width="254.463" height="1084.1" rx="36.313"
            transform="rotate(35.5623 435.671 -108.176)" fill="url(#paint2_linear_63_25)" />
        <rect x="482.426" y="260.753" width="254.463" height="838.094" rx="36.313"
            transform="rotate(35.5623 482.426 260.753)" fill="url(#paint3_linear_63_25)" />
        <rect x="482.426" y="260.753" width="254.463" height="838.094" rx="36.313"
            transform="rotate(35.5623 482.426 260.753)" fill="url(#paint4_linear_63_25)" />
        <rect x="359.729" y="-437.443" width="254.463" height="1365.01" rx="36.313"
            transform="rotate(35.5623 359.729 -437.443)" fill="url(#paint5_linear_63_25)" />
        <rect x="359.729" y="-437.443" width="254.463" height="1365.01" rx="36.313"
            transform="rotate(35.5623 359.729 -437.443)" fill="url(#paint6_linear_63_25)" />
        <path
            d="M62.7 455V424L76.8 442.467L90.6333 424V455H85.8333V443.767C85.8333 442.833 85.8444 441.789 85.8667 440.633C85.8889 439.478 85.9778 438.167 86.1333 436.7C85.4444 437.878 84.7778 438.911 84.1333 439.8C83.4889 440.689 82.9 441.5 82.3667 442.233L76.6667 450.133L70.8 442.233C70.2667 441.522 69.6667 440.7 69 439.767C68.3333 438.833 67.6667 437.789 67 436.633C67.1556 438.144 67.2444 439.478 67.2667 440.633C67.2889 441.767 67.3 442.811 67.3 443.767V455H62.7ZM105.444 455.533C103.51 455.533 101.744 455.111 100.144 454.267C98.5438 453.4 97.2771 452.233 96.3438 450.767L98.9771 445.6C99.266 447.156 99.9993 448.467 101.177 449.533C102.377 450.6 103.788 451.133 105.41 451.133C106.522 451.133 107.533 450.867 108.444 450.333C109.377 449.778 110.122 449.044 110.677 448.133C111.233 447.222 111.51 446.2 111.51 445.067C111.51 443.911 111.222 442.889 110.644 442C110.088 441.111 109.333 440.411 108.377 439.9C107.444 439.367 106.399 439.1 105.244 439.1C104.177 439.1 103.177 439.333 102.244 439.8C101.333 440.244 100.566 440.856 99.9438 441.633V425H113.91V429.3H103.977V435.367C104.333 435.233 104.688 435.144 105.044 435.1C105.399 435.056 105.755 435.033 106.11 435.033C107.91 435.033 109.566 435.467 111.077 436.333C112.588 437.2 113.81 438.4 114.744 439.933C115.677 441.444 116.144 443.167 116.144 445.1C116.144 447.056 115.655 448.822 114.677 450.4C113.699 451.978 112.399 453.233 110.777 454.167C109.177 455.078 107.399 455.533 105.444 455.533ZM123.028 455V425H133.028C135.584 425 137.85 425.422 139.828 426.267C141.828 427.089 143.517 428.211 144.895 429.633C146.273 431.033 147.317 432.633 148.028 434.433C148.739 436.233 149.095 438.089 149.095 440C149.095 441.911 148.739 443.767 148.028 445.567C147.317 447.367 146.273 448.978 144.895 450.4C143.517 451.8 141.828 452.922 139.828 453.767C137.85 454.589 135.584 455 133.028 455H123.028ZM127.828 450.6H132.561C134.561 450.6 136.273 450.3 137.695 449.7C139.139 449.078 140.328 448.256 141.261 447.233C142.195 446.211 142.884 445.078 143.328 443.833C143.773 442.567 143.995 441.289 143.995 440C143.995 438.711 143.773 437.444 143.328 436.2C142.884 434.933 142.195 433.789 141.261 432.767C140.328 431.744 139.139 430.933 137.695 430.333C136.273 429.711 134.561 429.4 132.561 429.4H127.828V450.6ZM153.749 455V435H158.449V455H153.749ZM156.116 431.767C155.338 431.767 154.682 431.5 154.149 430.967C153.616 430.411 153.349 429.756 153.349 429C153.349 428.2 153.616 427.544 154.149 427.033C154.705 426.5 155.36 426.233 156.116 426.233C156.916 426.233 157.571 426.5 158.082 427.033C158.616 427.567 158.882 428.222 158.882 429C158.882 429.778 158.616 430.433 158.082 430.967C157.549 431.5 156.893 431.767 156.116 431.767ZM173.387 455.533C171.41 455.533 169.61 455.067 167.987 454.133C166.365 453.178 165.076 451.9 164.121 450.3C163.165 448.7 162.688 446.933 162.688 445C162.688 443.044 163.165 441.278 164.121 439.7C165.076 438.1 166.365 436.833 167.987 435.9C169.61 434.944 171.41 434.467 173.387 434.467C174.788 434.467 176.11 434.711 177.354 435.2C178.621 435.667 179.732 436.333 180.688 437.2L179.387 442.433C178.832 441.433 178.043 440.578 177.021 439.867C175.999 439.133 174.821 438.767 173.487 438.767C172.332 438.767 171.276 439.056 170.321 439.633C169.388 440.189 168.643 440.933 168.087 441.867C167.554 442.8 167.287 443.844 167.287 445C167.287 446.133 167.554 447.178 168.087 448.133C168.643 449.067 169.388 449.822 170.321 450.4C171.276 450.956 172.332 451.233 173.487 451.233C174.821 451.233 175.999 450.878 177.021 450.167C178.043 449.456 178.832 448.589 179.387 447.567L180.688 452.8C179.732 453.667 178.621 454.344 177.354 454.833C176.11 455.3 174.788 455.533 173.387 455.533ZM194.305 455.533C192.15 455.533 190.227 455.067 188.539 454.133C186.85 453.2 185.527 451.922 184.572 450.3C183.639 448.678 183.172 446.844 183.172 444.8C183.172 442.844 183.627 441.089 184.539 439.533C185.472 437.978 186.716 436.744 188.272 435.833C189.85 434.922 191.583 434.467 193.472 434.467C195.383 434.467 197.105 434.911 198.639 435.8C200.194 436.689 201.427 437.9 202.339 439.433C203.25 440.944 203.705 442.667 203.705 444.6V446.367H191.072C190.516 446.367 189.961 446.344 189.405 446.3C188.85 446.233 188.294 446.156 187.739 446.067C188.005 447.6 188.739 448.878 189.939 449.9C191.161 450.922 192.65 451.433 194.405 451.433C195.672 451.433 196.827 451.167 197.872 450.633C198.916 450.078 199.772 449.367 200.439 448.5L201.572 453.167C200.594 453.944 199.483 454.533 198.239 454.933C196.994 455.333 195.683 455.533 194.305 455.533ZM187.639 443.067C188.794 442.844 189.939 442.733 191.072 442.733H196.139C196.694 442.733 197.227 442.756 197.739 442.8C198.272 442.844 198.783 442.9 199.272 442.967C198.939 441.611 198.239 440.511 197.172 439.667C196.127 438.8 194.883 438.367 193.439 438.367C192.039 438.367 190.805 438.811 189.739 439.7C188.672 440.589 187.972 441.711 187.639 443.067ZM232.833 455.6C230.611 455.6 228.533 455.211 226.6 454.433C224.667 453.633 222.967 452.533 221.5 451.133C220.056 449.711 218.922 448.056 218.1 446.167C217.3 444.278 216.9 442.233 216.9 440.033C216.9 437.833 217.3 435.789 218.1 433.9C218.922 432.011 220.056 430.356 221.5 428.933C222.967 427.511 224.656 426.4 226.567 425.6C228.5 424.8 230.578 424.4 232.8 424.4C234.889 424.4 236.844 424.756 238.667 425.467C240.489 426.178 242.1 427.178 243.5 428.467L242.1 434.2C241.167 432.689 239.9 431.456 238.3 430.5C236.7 429.522 234.867 429.033 232.8 429.033C230.756 429.033 228.922 429.522 227.3 430.5C225.678 431.478 224.389 432.8 223.433 434.467C222.478 436.111 222 437.967 222 440.033C222 442.1 222.467 443.967 223.4 445.633C224.356 447.278 225.644 448.589 227.267 449.567C228.911 450.544 230.744 451.033 232.767 451.033C233.833 451.033 234.844 450.911 235.8 450.667C236.756 450.422 237.622 450.078 238.4 449.633V442.8H231.233V438.6H242.967V452.5C241.611 453.5 240.056 454.267 238.3 454.8C236.567 455.333 234.744 455.6 232.833 455.6ZM257.451 455.4C255.629 455.4 253.962 454.933 252.451 454C250.94 453.067 249.729 451.811 248.818 450.233C247.929 448.656 247.484 446.911 247.484 445C247.484 443.089 247.929 441.344 248.818 439.767C249.729 438.189 250.94 436.933 252.451 436C253.962 435.067 255.629 434.6 257.451 434.6C258.784 434.6 260.018 434.844 261.151 435.333C262.307 435.8 263.295 436.467 264.118 437.333V435H268.284V455H264.118V452.667C263.295 453.511 262.307 454.178 261.151 454.667C260.018 455.156 258.784 455.4 257.451 455.4ZM258.051 451.2C259.162 451.2 260.173 450.922 261.084 450.367C262.018 449.811 262.751 449.067 263.284 448.133C263.84 447.2 264.118 446.156 264.118 445C264.118 443.867 263.84 442.833 263.284 441.9C262.751 440.944 262.029 440.189 261.118 439.633C260.207 439.078 259.184 438.8 258.051 438.8C256.94 438.8 255.918 439.078 254.984 439.633C254.073 440.189 253.34 440.933 252.784 441.867C252.251 442.8 251.984 443.844 251.984 445C251.984 446.133 252.251 447.178 252.784 448.133C253.34 449.067 254.073 449.811 254.984 450.367C255.895 450.922 256.918 451.2 258.051 451.2ZM273.669 455V435H277.935V437.533C278.669 436.511 279.58 435.744 280.669 435.233C281.758 434.722 282.902 434.467 284.102 434.467C285.369 434.467 286.535 434.744 287.602 435.3C288.691 435.856 289.591 436.656 290.302 437.7C291.08 436.633 292.058 435.833 293.235 435.3C294.435 434.744 295.724 434.467 297.102 434.467C298.569 434.467 299.924 434.811 301.169 435.5C302.413 436.167 303.413 437.133 304.169 438.4C304.947 439.667 305.335 441.189 305.335 442.967V455H300.635V443.6C300.635 442.156 300.213 441 299.369 440.133C298.547 439.244 297.502 438.8 296.235 438.8C295.502 438.8 294.791 438.967 294.102 439.3C293.435 439.633 292.891 440.156 292.469 440.867C292.069 441.556 291.869 442.444 291.869 443.533V455H287.135V443.6C287.135 442.622 286.935 441.778 286.535 441.067C286.158 440.333 285.635 439.767 284.969 439.367C284.302 438.967 283.569 438.767 282.769 438.767C282.058 438.767 281.358 438.944 280.669 439.3C280.002 439.633 279.447 440.144 279.002 440.833C278.58 441.522 278.369 442.422 278.369 443.533V455H273.669ZM320.258 455.533C318.103 455.533 316.181 455.067 314.492 454.133C312.803 453.2 311.481 451.922 310.525 450.3C309.592 448.678 309.125 446.844 309.125 444.8C309.125 442.844 309.581 441.089 310.492 439.533C311.425 437.978 312.669 436.744 314.225 435.833C315.803 434.922 317.536 434.467 319.425 434.467C321.336 434.467 323.058 434.911 324.592 435.8C326.147 436.689 327.381 437.9 328.292 439.433C329.203 440.944 329.658 442.667 329.658 444.6V446.367H317.025C316.469 446.367 315.914 446.344 315.358 446.3C314.803 446.233 314.247 446.156 313.692 446.067C313.958 447.6 314.692 448.878 315.892 449.9C317.114 450.922 318.603 451.433 320.358 451.433C321.625 451.433 322.781 451.167 323.825 450.633C324.869 450.078 325.725 449.367 326.392 448.5L327.525 453.167C326.547 453.944 325.436 454.533 324.192 454.933C322.947 455.333 321.636 455.533 320.258 455.533ZM313.592 443.067C314.747 442.844 315.892 442.733 317.025 442.733H322.092C322.647 442.733 323.181 442.756 323.692 442.8C324.225 442.844 324.736 442.9 325.225 442.967C324.892 441.611 324.192 440.511 323.125 439.667C322.081 438.8 320.836 438.367 319.392 438.367C317.992 438.367 316.758 438.811 315.692 439.7C314.625 440.589 313.925 441.711 313.592 443.067Z"
            fill="white" />
        <path
            d="M64.1667 475.5L59.15 465H61.7333L63.5167 468.767C63.6833 469.111 63.8444 469.467 64 469.833C64.1556 470.189 64.3111 470.617 64.4667 471.117C64.6333 470.628 64.8 470.211 64.9667 469.867C65.1333 469.522 65.2944 469.178 65.45 468.833L67.4 464.6L69.3667 468.833C69.5222 469.167 69.6778 469.506 69.8333 469.85C70 470.194 70.1611 470.617 70.3167 471.117C70.4722 470.594 70.6278 470.161 70.7833 469.817C70.95 469.461 71.1111 469.111 71.2667 468.767L73.0667 465H75.5167L70.5 475.5L68.3333 471.35C68.1556 471.006 67.9833 470.661 67.8167 470.317C67.6611 469.961 67.5 469.561 67.3333 469.117C67.1778 469.561 67.0167 469.961 66.85 470.317C66.6833 470.661 66.5056 471.006 66.3167 471.35L64.1667 475.5ZM81.4885 475.267C80.4108 475.267 79.4497 475.033 78.6052 474.567C77.7608 474.1 77.0997 473.461 76.6219 472.65C76.1552 471.839 75.9219 470.922 75.9219 469.9C75.9219 468.922 76.1497 468.044 76.6052 467.267C77.0719 466.489 77.6941 465.872 78.4719 465.417C79.2608 464.961 80.1274 464.733 81.0719 464.733C82.0274 464.733 82.8885 464.956 83.6552 465.4C84.433 465.844 85.0497 466.45 85.5052 467.217C85.9608 467.972 86.1885 468.833 86.1885 469.8V470.683H79.8719C79.5941 470.683 79.3163 470.672 79.0385 470.65C78.7608 470.617 78.483 470.578 78.2052 470.533C78.3385 471.3 78.7052 471.939 79.3052 472.45C79.9163 472.961 80.6608 473.217 81.5385 473.217C82.1719 473.217 82.7497 473.083 83.2719 472.817C83.7941 472.539 84.2219 472.183 84.5552 471.75L85.1219 474.083C84.633 474.472 84.0774 474.767 83.4552 474.967C82.833 475.167 82.1774 475.267 81.4885 475.267ZM78.1552 469.033C78.733 468.922 79.3052 468.867 79.8719 468.867H82.4052C82.683 468.867 82.9497 468.878 83.2052 468.9C83.4719 468.922 83.7274 468.95 83.9719 468.983C83.8052 468.306 83.4552 467.756 82.9219 467.333C82.3997 466.9 81.7774 466.683 81.0552 466.683C80.3552 466.683 79.7385 466.906 79.2052 467.35C78.6719 467.794 78.3219 468.356 78.1552 469.033ZM88.2104 475V459H90.5604V475H88.2104ZM98.0297 475.267C97.0408 475.267 96.1408 475.033 95.3297 474.567C94.5186 474.089 93.8741 473.45 93.3964 472.65C92.9186 471.85 92.6797 470.967 92.6797 470C92.6797 469.022 92.9186 468.139 93.3964 467.35C93.8741 466.55 94.5186 465.917 95.3297 465.45C96.1408 464.972 97.0408 464.733 98.0297 464.733C98.7297 464.733 99.3908 464.856 100.013 465.1C100.646 465.333 101.202 465.667 101.68 466.1L101.03 468.717C100.752 468.217 100.357 467.789 99.8464 467.433C99.3352 467.067 98.7464 466.883 98.0797 466.883C97.5019 466.883 96.9741 467.028 96.4964 467.317C96.0297 467.594 95.6575 467.967 95.3797 468.433C95.113 468.9 94.9797 469.422 94.9797 470C94.9797 470.567 95.113 471.089 95.3797 471.567C95.6575 472.033 96.0297 472.411 96.4964 472.7C96.9741 472.978 97.5019 473.117 98.0797 473.117C98.7464 473.117 99.3352 472.939 99.8464 472.583C100.357 472.228 100.752 471.794 101.03 471.283L101.68 473.9C101.202 474.333 100.646 474.672 100.013 474.917C99.3908 475.15 98.7297 475.267 98.0297 475.267ZM108.255 475.267C107.277 475.267 106.383 475.033 105.572 474.567C104.761 474.089 104.116 473.45 103.639 472.65C103.161 471.85 102.922 470.967 102.922 470C102.922 469.022 103.161 468.139 103.639 467.35C104.116 466.55 104.761 465.917 105.572 465.45C106.383 464.972 107.277 464.733 108.255 464.733C109.244 464.733 110.139 464.972 110.939 465.45C111.75 465.917 112.394 466.55 112.872 467.35C113.35 468.139 113.589 469.022 113.589 470C113.589 470.967 113.35 471.85 112.872 472.65C112.394 473.45 111.75 474.089 110.939 474.567C110.139 475.033 109.244 475.267 108.255 475.267ZM108.255 473.117C108.822 473.117 109.339 472.978 109.805 472.7C110.272 472.411 110.639 472.033 110.905 471.567C111.183 471.1 111.322 470.578 111.322 470C111.322 469.422 111.183 468.9 110.905 468.433C110.639 467.967 110.272 467.594 109.805 467.317C109.339 467.028 108.822 466.883 108.255 466.883C107.689 466.883 107.172 467.028 106.705 467.317C106.239 467.594 105.866 467.967 105.589 468.433C105.322 468.9 105.189 469.422 105.189 470C105.189 470.578 105.322 471.1 105.589 471.567C105.866 472.033 106.233 472.411 106.689 472.7C107.155 472.978 107.677 473.117 108.255 473.117ZM115.686 475V465H117.819V466.267C118.186 465.756 118.641 465.372 119.186 465.117C119.73 464.861 120.303 464.733 120.903 464.733C121.536 464.733 122.119 464.872 122.653 465.15C123.197 465.428 123.647 465.828 124.003 466.35C124.391 465.817 124.88 465.417 125.469 465.15C126.069 464.872 126.714 464.733 127.403 464.733C128.136 464.733 128.814 464.906 129.436 465.25C130.058 465.583 130.558 466.067 130.936 466.7C131.325 467.333 131.519 468.094 131.519 468.983V475H129.169V469.3C129.169 468.578 128.958 468 128.536 467.567C128.125 467.122 127.603 466.9 126.969 466.9C126.603 466.9 126.247 466.983 125.903 467.15C125.569 467.317 125.297 467.578 125.086 467.933C124.886 468.278 124.786 468.722 124.786 469.267V475H122.419V469.3C122.419 468.811 122.319 468.389 122.119 468.033C121.93 467.667 121.669 467.383 121.336 467.183C121.003 466.983 120.636 466.883 120.236 466.883C119.88 466.883 119.53 466.972 119.186 467.15C118.853 467.317 118.575 467.572 118.353 467.917C118.141 468.261 118.036 468.711 118.036 469.267V475H115.686ZM138.981 475.267C137.903 475.267 136.942 475.033 136.097 474.567C135.253 474.1 134.592 473.461 134.114 472.65C133.647 471.839 133.414 470.922 133.414 469.9C133.414 468.922 133.642 468.044 134.097 467.267C134.564 466.489 135.186 465.872 135.964 465.417C136.753 464.961 137.62 464.733 138.564 464.733C139.52 464.733 140.381 464.956 141.147 465.4C141.925 465.844 142.542 466.45 142.997 467.217C143.453 467.972 143.681 468.833 143.681 469.8V470.683H137.364C137.086 470.683 136.809 470.672 136.531 470.65C136.253 470.617 135.975 470.578 135.697 470.533C135.831 471.3 136.197 471.939 136.797 472.45C137.409 472.961 138.153 473.217 139.031 473.217C139.664 473.217 140.242 473.083 140.764 472.817C141.286 472.539 141.714 472.183 142.047 471.75L142.614 474.083C142.125 474.472 141.57 474.767 140.947 474.967C140.325 475.167 139.67 475.267 138.981 475.267ZM135.647 469.033C136.225 468.922 136.797 468.867 137.364 468.867H139.897C140.175 468.867 140.442 468.878 140.697 468.9C140.964 468.922 141.22 468.95 141.464 468.983C141.297 468.306 140.947 467.756 140.414 467.333C139.892 466.9 139.27 466.683 138.547 466.683C137.847 466.683 137.231 466.906 136.697 467.35C136.164 467.794 135.814 468.356 135.647 469.033ZM151.845 475V466.9H149.778V465H151.895V461.667H154.145V465H156.378V466.9H154.195V475H151.845ZM162.419 475.267C161.441 475.267 160.547 475.033 159.736 474.567C158.925 474.089 158.28 473.45 157.803 472.65C157.325 471.85 157.086 470.967 157.086 470C157.086 469.022 157.325 468.139 157.803 467.35C158.28 466.55 158.925 465.917 159.736 465.45C160.547 464.972 161.441 464.733 162.419 464.733C163.408 464.733 164.303 464.972 165.103 465.45C165.914 465.917 166.558 466.55 167.036 467.35C167.514 468.139 167.753 469.022 167.753 470C167.753 470.967 167.514 471.85 167.036 472.65C166.558 473.45 165.914 474.089 165.103 474.567C164.303 475.033 163.408 475.267 162.419 475.267ZM162.419 473.117C162.986 473.117 163.503 472.978 163.969 472.7C164.436 472.411 164.803 472.033 165.069 471.567C165.347 471.1 165.486 470.578 165.486 470C165.486 469.422 165.347 468.9 165.069 468.433C164.803 467.967 164.436 467.594 163.969 467.317C163.503 467.028 162.986 466.883 162.419 466.883C161.853 466.883 161.336 467.028 160.869 467.317C160.403 467.594 160.03 467.967 159.753 468.433C159.486 468.9 159.353 469.422 159.353 470C159.353 470.578 159.486 471.1 159.753 471.567C160.03 472.033 160.397 472.411 160.853 472.7C161.319 472.978 161.841 473.117 162.419 473.117Z"
            fill="white" />
        <g style="mix-blend-mode:plus-lighter" filter="url(#filter0_f_63_25)">
            <circle cx="347.672" cy="764.672" r="67.9033"
                transform="rotate(103.946 347.672 764.672)" fill="#EF0303" />
        </g>
        <g style="mix-blend-mode:plus-lighter" filter="url(#filter1_f_63_25)">
            <circle cx="40.0957" cy="115.096" r="50.1951"
                transform="rotate(103.946 40.0957 115.096)" fill="#0356EF" />
        </g>
    </g>
    <defs>
        <filter id="filter0_f_63_25" x="-20.2468" y="396.753" width="735.839" height="735.839"
            filterUnits="userSpaceOnUse" color-interpolation-filters="sRGB">
            <feFlood flood-opacity="0" result="BackgroundImageFix" />
            <feBlend mode="normal" in="SourceGraphic" in2="BackgroundImageFix" result="shape" />
            <feGaussianBlur stdDeviation="150" result="effect1_foregroundBlur_63_25" />
        </filter>
        <filter id="filter1_f_63_25" x="-310.111" y="-235.111" width="700.414" height="700.414"
            filterUnits="userSpaceOnUse" color-interpolation-filters="sRGB">
            <feFlood flood-opacity="0" result="BackgroundImageFix" />
            <feBlend mode="normal" in="SourceGraphic" in2="BackgroundImageFix" result="shape" />
            <feGaussianBlur stdDeviation="150" result="effect1_foregroundBlur_63_25" />
        </filter>
        <filter id="filter2_d_63_25" x="50.6909" y="765" width="75.6036" height="37.06"
            filterUnits="userSpaceOnUse" color-interpolation-filters="sRGB">
            <feFlood flood-opacity="0" result="BackgroundImageFix" />
            <feColorMatrix in="SourceAlpha" type="matrix"
                values="0 0 0 0 0 0 0 0 0 0 0 0 0 0 0 0 0 0 127 0" result="hardAlpha" />
            <feOffset />
            <feGaussianBlur stdDeviation="5.1" />
            <feColorMatrix type="matrix"
                values="0 0 0 0 0.941176 0 0 0 0 0.203922 0 0 0 0 0.214641 0 0 0 0.25 0" />
            <feBlend mode="normal" in2="BackgroundImageFix" result="effect1_dropShadow_63_25" />
            <feBlend mode="normal" in="SourceGraphic" in2="effect1_dropShadow_63_25" result="shape" />
        </filter>
        <linearGradient id="paint0_linear_63_25" x1="57.8135" y1="-221" x2="57.8135" y2="696.457"
            gradientUnits="userSpaceOnUse">
            <stop stop-color="#0C1721" />
            <stop offset="1" stop-color="#081116" />
        </linearGradient>
        <linearGradient id="paint1_linear_63_25" x1="562.903" y1="-108.176" x2="562.903"
            y2="975.921" gradientUnits="userSpaceOnUse">
            <stop stop-color="#0C1721" />
            <stop offset="1" stop-color="#081116" />
        </linearGradient>
        <linearGradient id="paint2_linear_63_25" x1="562.903" y1="-108.176" x2="562.903"
            y2="975.921" gradientUnits="userSpaceOnUse">
            <stop stop-color="#10162D" />
            <stop offset="1" stop-color="#080E16" />
        </linearGradient>
        <linearGradient id="paint3_linear_63_25" x1="609.657" y1="260.753" x2="609.657" y2="1098.85"
            gradientUnits="userSpaceOnUse">
            <stop stop-color="#0C1721" />
            <stop offset="1" stop-color="#081116" />
        </linearGradient>
        <linearGradient id="paint4_linear_63_25" x1="609.657" y1="260.753" x2="609.657" y2="1098.85"
            gradientUnits="userSpaceOnUse">
            <stop stop-color="#0C0F21" />
            <stop offset="1" stop-color="#080E16" />
        </linearGradient>
        <linearGradient id="paint5_linear_63_25" x1="486.96" y1="-437.443" x2="486.96" y2="927.566"
            gradientUnits="userSpaceOnUse">
            <stop stop-color="#0C1721" />
            <stop offset="1" stop-color="#081116" />
        </linearGradient>
        <linearGradient id="paint6_linear_63_25" x1="486.96" y1="-437.443" x2="486.96" y2="927.566"
            gradientUnits="userSpaceOnUse">
            <stop stop-color="#0C0F21" />
            <stop offset="1" stop-color="#080E16" />
        </linearGradient>
        <clipPath id="clip0_63_25">
            <rect width="393" height="852" fill="white" />
        </clipPath>
    </defs>
</svg>